<svg xmlns="http://www.w3.org/2000/svg" width="89.707" height="89.714" viewBox="0 0 89.707 89.714">
  <defs>
    <style>
      .cls-1 {
        fill: #1e365c;
      }
    </style>
  </defs>
  <g id="Group_465" data-name="Group 465" transform="translate(-270.212 -1099.521)">
    <path id="Path_75" data-name="Path 75" class="cls-1" d="M359.772,1131.344v1.051c-.724,1.554-2.215,1.165-3.457,1.246v20.99c1.31.042,2.734-.273,3.457,1.243v1.051c-.724,1.556-2.215,1.164-3.5,1.249v26.654c0,1.866-.539,2.41-2.384,2.41H275.927c-1.807,0-2.363-.551-2.363-2.342q0-12.832,0-25.664v-1.08H272.6c-1.69,0-2.516-.568-2.532-1.731-.016-1.187.827-1.77,2.575-1.773.283,0,.565,0,.868,0v-21.036c-.634,0-1.216.035-1.793-.006a1.741,1.741,0,0,1-.03-3.475c.29-.029.583-.014.876-.014h19.577c0-.41,0-.723,0-1.039,0-2.919-.015-5.84.005-8.759a5.143,5.143,0,0,1,3.586-4.973,7.437,7.437,0,0,1,2.064-.285c1.971-.036,3.941-.013,5.995-.013-.129-.36-.212-.6-.3-.844a12.138,12.138,0,0,1,5.6-15.154,29.247,29.247,0,0,1,4.431-1.524h2.8a5.016,5.016,0,0,0,.579.164,12.216,12.216,0,0,1,10.132,13.793c-.178,1.188-.565,2.345-.868,3.564,2.009,0,4.019-.006,6.029,0a5.256,5.256,0,0,1,5.5,5.5c.01,2.859,0,5.717,0,8.577v.988h1.058c6.213,0,12.428.02,18.641-.019a2.384,2.384,0,0,1,2.379,1.246m-25.582,52.347v-.718q0-31.139,0-62.278c0-1.5-.634-2.138-2.125-2.141-2.628-.006-5.257-.019-7.883.018a1.957,1.957,0,0,0-1.154.431,12.293,12.293,0,0,1-16.2.022,2.083,2.083,0,0,0-1.233-.452c-2.54-.041-5.08-.022-7.62-.02-1.781,0-2.331.562-2.331,2.373q0,30.92,0,61.839v.928h7.009v-.98q0-7.707,0-15.415a5.271,5.271,0,0,1,5.634-5.64q6.614-.008,13.226,0c3.492,0,5.665,2.186,5.668,5.7q0,7.709,0,15.417v.921Zm18.511-25.467H337.741V1183.7H352.7Zm-60.624,0H277.111v25.473h14.965Zm31.556,25.471c.019-.172.041-.285.041-.4q0-8.1,0-16.2c0-1.282-.711-1.927-2.069-1.93q-6.612-.009-13.224,0c-1.614,0-2.223.607-2.223,2.217q0,7.749,0,15.5v.8h7.009c0-.365,0-.68,0-.995,0-1.751-.018-3.5.011-5.255a1.736,1.736,0,0,1,1.533-1.745,1.708,1.708,0,0,1,1.837,1.173,3.486,3.486,0,0,1,.117,1.033c.011,1.918.006,3.837.006,5.8Zm29.068-50H337.742v20.917H352.7Zm-60.626,0h-14.96v20.917h14.96Zm31.6-23.894a8.758,8.758,0,1,0-8.744,8.751,8.783,8.783,0,0,0,8.744-8.751" transform="translate(0.147 1.995)"/>
    <path id="Path_76" data-name="Path 76" class="cls-1" d="M314.932,1140.553c1.077,0,2.154-.012,3.231,0a1.756,1.756,0,1,1,0,3.5q-3.32.023-6.637,0a1.756,1.756,0,1,1,0-3.5c1.135-.016,2.271,0,3.406,0" transform="translate(0.219 2.073)"/>
    <path id="Path_77" data-name="Path 77" class="cls-1" d="M314.842,1130.059c1.106,0,2.212-.012,3.319,0a1.757,1.757,0,1,1,0,3.5q-3.318.023-6.637,0a1.756,1.756,0,1,1,0-3.5c1.107-.016,2.213,0,3.319,0" transform="translate(0.219 2.054)"/>
    <path id="Path_78" data-name="Path 78" class="cls-1" d="M314.821,1154.552c-1.077,0-2.154.008-3.232,0a1.762,1.762,0,1,1-.045-3.5q3.32-.019,6.637,0a1.756,1.756,0,1,1-.041,3.5c-1.107.015-2.213,0-3.319,0" transform="translate(0.219 2.093)"/>
    <path id="Path_79" data-name="Path 79" class="cls-1" d="M327.154,1151.052c.581,0,1.165-.028,1.744.008a1.741,1.741,0,0,1,1.682,1.766,1.714,1.714,0,0,1-1.65,1.706c-1.219.047-2.443.046-3.663,0a1.722,1.722,0,0,1-1.682-1.763,1.746,1.746,0,0,1,1.737-1.715c.609-.029,1.221-.005,1.831,0" transform="translate(0.244 2.093)"/>
    <path id="Path_80" data-name="Path 80" class="cls-1" d="M327.155,1130.065c.581,0,1.165-.029,1.744.007a1.742,1.742,0,0,1,1.681,1.767,1.715,1.715,0,0,1-1.652,1.705c-1.219.047-2.442.046-3.662,0a1.72,1.72,0,0,1-1.681-1.764,1.744,1.744,0,0,1,1.738-1.714c.609-.029,1.22-.006,1.831-.006Z" transform="translate(0.244 2.054)"/>
    <path id="Path_81" data-name="Path 81" class="cls-1" d="M302.667,1151.052c.581,0,1.165-.028,1.744.008a1.74,1.74,0,0,1,1.683,1.765,1.714,1.714,0,0,1-1.649,1.707c-1.219.047-2.443.046-3.663,0a1.722,1.722,0,0,1-1.683-1.762,1.745,1.745,0,0,1,1.736-1.716c.609-.029,1.221-.005,1.831,0" transform="translate(0.2 2.093)"/>
    <path id="Path_82" data-name="Path 82" class="cls-1" d="M302.593,1133.56c-.581,0-1.164.022-1.744-.006a1.751,1.751,0,0,1-1.75-1.79,1.733,1.733,0,0,1,1.755-1.694q1.743-.049,3.488,0a1.742,1.742,0,1,1-.005,3.484c-.58.028-1.162.006-1.744.006" transform="translate(0.2 2.054)"/>
    <path id="Path_83" data-name="Path 83" class="cls-1" d="M327.005,1144.049c-.582,0-1.165.031-1.744-.006a1.741,1.741,0,0,1-1.676-1.772,1.713,1.713,0,0,1,1.656-1.7c1.219-.046,2.442-.045,3.663,0a1.738,1.738,0,0,1,.02,3.472c-.637.041-1.279.008-1.919.008" transform="translate(0.244 2.073)"/>
    <path id="Path_84" data-name="Path 84" class="cls-1" d="M302.559,1144.052c-.581,0-1.164.026-1.744-.006a1.746,1.746,0,0,1-1.717-1.734,1.725,1.725,0,0,1,1.7-1.745c1.19-.04,2.384-.039,3.574,0a1.739,1.739,0,0,1,.015,3.478c-.608.034-1.221.006-1.831.007" transform="translate(0.2 2.073)"/>
    <path id="Path_85" data-name="Path 85" class="cls-1" d="M345.191,1172.037c.727,0,1.456-.023,2.181.007a1.742,1.742,0,1,1-.011,3.483q-2.269.051-4.537,0a1.729,1.729,0,0,1-1.749-1.7,1.764,1.764,0,0,1,1.76-1.786c.058,0,.116,0,.174,0q1.091,0,2.182,0" transform="translate(0.276 2.131)"/>
    <path id="Path_86" data-name="Path 86" class="cls-1" d="M345.061,1165.042c-.727,0-1.456.021-2.181,0a1.745,1.745,0,1,1-.013-3.487q2.224-.044,4.45,0a1.745,1.745,0,1,1,.013,3.487c-.755.026-1.513.005-2.269.005" transform="translate(0.276 2.112)"/>
    <path id="Path_87" data-name="Path 87" class="cls-1" d="M284.49,1175.536c-.727,0-1.456.025-2.181-.007a1.742,1.742,0,1,1,.009-3.483q2.268-.047,4.537,0a1.732,1.732,0,0,1,1.75,1.7,1.767,1.767,0,0,1-1.759,1.788c-.058,0-.116,0-.174,0H284.49Z" transform="translate(0.166 2.131)"/>
    <path id="Path_88" data-name="Path 88" class="cls-1" d="M284.55,1165.042c-.728,0-1.456.021-2.181,0a1.753,1.753,0,0,1-1.809-1.734,1.734,1.734,0,0,1,1.784-1.753q2.227-.045,4.451,0a1.745,1.745,0,1,1,.023,3.487c-.755.027-1.513.005-2.268.005" transform="translate(0.166 2.111)"/>
    <path id="Path_89" data-name="Path 89" class="cls-1" d="M314.833,1172.034a1.746,1.746,0,1,1,1.748-1.787,1.765,1.765,0,0,1-1.748,1.787" transform="translate(0.225 2.124)"/>
    <path id="Path_90" data-name="Path 90" class="cls-1" d="M345.05,1151.051c-.728,0-1.456.021-2.181-.005a1.744,1.744,0,1,1,.009-3.487q2.224-.041,4.449,0a1.745,1.745,0,1,1-.009,3.487c-.755.026-1.513.005-2.268.005" transform="translate(0.276 2.086)"/>
    <path id="Path_91" data-name="Path 91" class="cls-1" d="M345.08,1140.557c-.727,0-1.455.019-2.181,0a1.748,1.748,0,1,1,.036-3.49q2.18-.033,4.363,0a1.748,1.748,0,0,1,1.824,1.718,1.767,1.767,0,0,1-1.86,1.773c-.727.02-1.455,0-2.182,0" transform="translate(0.276 2.067)"/>
    <path id="Path_92" data-name="Path 92" class="cls-1" d="M284.651,1151.052c-.756,0-1.514.019-2.269-.005a1.748,1.748,0,1,1,.037-3.49c1.454-.022,2.909-.024,4.363,0a1.747,1.747,0,0,1,1.823,1.718,1.766,1.766,0,0,1-1.86,1.773c-.7.019-1.4,0-2.094,0" transform="translate(0.166 2.086)"/>
    <path id="Path_93" data-name="Path 93" class="cls-1" d="M284.58,1140.556c-.756,0-1.514.025-2.268-.007a1.742,1.742,0,1,1,0-3.483q2.269-.048,4.537,0a1.742,1.742,0,1,1,0,3.483c-.755.031-1.513.007-2.269.007" transform="translate(0.166 2.067)"/>
    <path id="Path_94" data-name="Path 94" class="cls-1" d="M313.091,1111.529c-.644,0-1.193.021-1.74-.005a1.744,1.744,0,1,1,.011-3.488c.546-.026,1.095-.005,1.731-.005,0-.626-.019-1.174,0-1.72a1.745,1.745,0,1,1,3.489-.034c.028.548.005,1.1.005,1.753.608,0,1.153-.017,1.7,0a1.747,1.747,0,1,1-.007,3.492c-.522.021-1.045,0-1.686,0,0,.561.01,1.074,0,1.587a1.755,1.755,0,1,1-3.5.033c-.013-.494,0-.989,0-1.621" transform="translate(0.219 2.008)"/>
  </g>
</svg>
