<svg xmlns="http://www.w3.org/2000/svg" width="120.612" height="105.828" viewBox="0 0 120.612 105.828">
    <defs>
        <style>
            .cls-1{fill:#1e365c}
        </style>
    </defs>
    <g id="Group_112" data-name="Group 112" transform="translate(-1073.319 -3998.305)">
        <g id="Group_111" data-name="Group 111">
            <path id="Path_417" d="M1193.931 4054.548c-.307 2.137-.535 4.288-.935 6.407a51.99 51.99 0 0 1-16.817 29.782 50.106 50.106 0 0 1-27.39 12.846c-19.778 2.57-36.177-3.872-49.079-19.12-.149-.176-.273-.373-.482-.661l5.864-4.584c14.953 19.267 41.441 22.108 59.661 10.672a45.352 45.352 0 0 0 19.014-53.763c-6.739-19.672-26.5-32.217-47.727-30a45.205 45.205 0 0 0-39.744 37.524h14.043l-18.549 18.549-18.471-18.507h15.072c.757-2.973 1.262-5.9 2.241-8.654 7.1-19.981 20.986-32.471 41.946-35.981 25.133-4.21 48.569 9.634 57.884 33.391a49.6 49.6 0 0 1 3.26 14.339 10.7 10.7 0 0 0 .209 1.141z" class="cls-1" data-name="Path 417"/>
            <path id="Path_418" d="M1140.952 4028.622v8.35c0 5.045.023 10.09-.026 15.134a2.851 2.851 0 0 0 .919 2.266c5.321 5.269 10.6 10.576 15.9 15.866.306.3.662.561.882.746l-5.389 5.392c-.106-.1-.4-.342-.662-.609q-8.824-8.817-17.655-17.627a4.95 4.95 0 0 1-1.562-3.783c.04-8.2.022-16.4.024-24.593v-1.142z" class="cls-1" data-name="Path 418"/>
        </g>
    </g>
</svg>
