<svg xmlns="http://www.w3.org/2000/svg" width="97.475" height="82.404" viewBox="0 0 97.475 82.404">
  <defs>
    <style>
      .cls-1 {
        fill: #1e365c;
      }
    </style>
  </defs>
  <g id="Group_464" data-name="Group 464" transform="translate(-607.481 -1112.255)">
    <path id="Path_95" data-name="Path 95" class="cls-1" d="M606.722,1157.827a2.578,2.578,0,0,1,2.595-1.348c2.632.067,5.266.035,7.9.017a4.933,4.933,0,0,1,4.481,2.376,1.353,1.353,0,0,0,.979.479c2.82.081,5.65-.014,8.461.182a15.428,15.428,0,0,1,9.63,4.294c3.588,3.363,7.113,6.792,10.624,10.234a5.665,5.665,0,0,1-7.783,8.235c-2.622-2.35-5.2-4.745-7.794-7.13a1.921,1.921,0,1,1,2.6-2.772q3.8,3.456,7.579,6.943a1.968,1.968,0,0,0,2.253.53c1.3-.555,1.482-2.115.348-3.226-2.154-2.108-4.331-4.191-6.5-6.285-1.118-1.08-2.242-2.155-3.354-3.241a13.408,13.408,0,0,0-9.695-3.934c-2.211,0-4.422,0-6.682,0v11.174c.951.158,1.922.258,2.861.488a13.683,13.683,0,0,1,7.42,4.7c1.56,1.88,3.109,3.767,4.694,5.625a9.351,9.351,0,0,0,7.2,3.532c6.725.067,13.45.047,20.176.033a2.056,2.056,0,1,0-.057-4.1c-2.284-.014-4.568.009-6.852-.01a1.943,1.943,0,0,1-2.18-1.779,1.777,1.777,0,0,1,1.716-1.995c2.759-.037,5.524-.107,8.277.036a5.711,5.711,0,0,1,5.118,5.679,5.832,5.832,0,0,1-4.992,5.908,7.906,7.906,0,0,1-.949.068c-6.726,0-13.451.041-20.177-.033a13.273,13.273,0,0,1-10.338-5.055c-1.553-1.843-3.085-3.7-4.631-5.554a9.839,9.839,0,0,0-6.977-3.618,1.233,1.233,0,0,0-.947.481,4.934,4.934,0,0,1-4.45,2.44c-.6,0-1.21.035-1.807-.026a1.853,1.853,0,0,1-1.737-2,1.832,1.832,0,0,1,1.869-1.765c.538-.029,1.079-.025,1.618-.011.863.022,1.29-.357,1.289-1.247q-.015-7.329,0-14.657c0-.656-.237-1.166-.95-1.175-2.307-.029-4.616-.011-7.031-.011v1.571q0,4.948,0,9.9c0,1.341-.419,2.069-1.342,2.356-.955.3-1.708-.091-2.464-1.271Z" transform="translate(0.759 2.103)"/>
    <path id="Path_96" data-name="Path 96" class="cls-1" d="M606.722,1178.731a6.176,6.176,0,0,1,1.526-1.281,1.715,1.715,0,0,1,2.129,1.129,1.878,1.878,0,0,1-3.2,1.874c-.159-.187-.3-.387-.454-.58Z" transform="translate(0.759 2.14)"/>
    <path id="Path_97" data-name="Path 97" class="cls-1" d="M700.323,1142.485v-9.051c0-1.174-.013-2.348.005-3.522a1.907,1.907,0,0,1,1.875-2.078,1.885,1.885,0,0,1,1.92,2.032q.023,7.188,0,14.373a1.9,1.9,0,0,1-2.1,2.049q-4.329.026-8.661,0a4.817,4.817,0,0,1-4.151-2.281,1.478,1.478,0,0,0-1.027-.561c-2.821-.088-5.652.01-8.462-.187a15.435,15.435,0,0,1-9.632-4.294c-3.59-3.36-7.114-6.792-10.626-10.232a5.665,5.665,0,0,1,7.783-8.234c2.6,2.329,5.157,4.7,7.726,7.065,1.029.947,1.172,2.066.4,2.922a1.947,1.947,0,0,1-2.937-.09q-3.8-3.456-7.582-6.942a1.937,1.937,0,0,0-2.337-.482,1.854,1.854,0,0,0-.327,3.115c1.622,1.608,3.281,3.18,4.925,4.767,1.666,1.608,3.341,3.208,5,4.825a13.389,13.389,0,0,0,9.6,3.933c2.219.015,4.437,0,6.738,0v-11.184c-.922-.154-1.893-.253-2.833-.486a13.7,13.7,0,0,1-7.42-4.7c-1.537-1.857-3.073-3.717-4.63-5.557a9.543,9.543,0,0,0-7.461-3.61c-6.631-.047-13.262-.035-19.893-.022a2.025,2.025,0,0,0-2.293,2.1c.021,1.254.889,2,2.374,2.006,2.38.009,4.76,0,7.139.007a4.762,4.762,0,0,1,1.13.105,1.83,1.83,0,0,1,1.4,1.989,1.778,1.778,0,0,1-1.749,1.684c-2.981.028-5.968.1-8.944-.035a5.717,5.717,0,0,1-5.167-5.732,5.83,5.83,0,0,1,5.041-5.863,11.3,11.3,0,0,1,1.235-.072q9.565,0,19.132,0a13.852,13.852,0,0,1,11.269,5.351c1.423,1.747,2.887,3.458,4.32,5.2a10.155,10.155,0,0,0,7.023,3.749.917.917,0,0,0,1.056-.531,4.642,4.642,0,0,1,4.155-2.412,17.08,17.08,0,0,1,1.808.01,1.892,1.892,0,0,1-.048,3.783c-.189.011-.381.008-.571.008-2.186.012-2.186.012-2.186,2.153q0,6.711,0,13.42c0,1.28.233,1.517,1.476,1.519,2.122,0,4.244,0,6.5,0" transform="translate(0.82 2.018)"/>
    <path id="Path_98" data-name="Path 98" class="cls-1" d="M655.539,1143.823a9.4,9.4,0,0,1,5.193-2.608,8.874,8.874,0,0,1,9.284,5.182,8.753,8.753,0,0,1-2.446,10.322q-5.132,4.09-10.262,8.182c-1.5,1.191-2.078,1.177-3.579-.015-3.352-2.661-6.727-5.292-10.058-7.978a8.464,8.464,0,0,1-3.225-8.535,8.376,8.376,0,0,1,5.866-6.762,8.514,8.514,0,0,1,8.329,1.467c.3.227.577.478.9.745m-.07,17.587a2.14,2.14,0,0,0,.312-.167q4.8-3.817,9.59-7.644a3.6,3.6,0,0,0,.637-.7,5.018,5.018,0,1,0-8.573-5.148,1.987,1.987,0,0,1-3.831-.009,4.992,4.992,0,0,0-9.276.747,4.781,4.781,0,0,0,1.644,5.38c3.125,2.535,6.3,5.008,9.5,7.542" transform="translate(0.82 2.075)"/>
    <path id="Path_99" data-name="Path 99" class="cls-1" d="M630.686,1150.193a1.9,1.9,0,0,1-1.92,1.921,1.952,1.952,0,0,1-1.867-1.9,1.9,1.9,0,0,1,1.944-1.9,1.852,1.852,0,0,1,1.844,1.881" transform="translate(0.796 2.088)"/>
    <path id="Path_100" data-name="Path 100" class="cls-1" d="M650.817,1125.329a1.9,1.9,0,1,1-1.841-1.9,1.881,1.881,0,0,1,1.841,1.9" transform="translate(0.832 2.042)"/>
    <path id="Path_101" data-name="Path 101" class="cls-1" d="M660.913,1175.5a1.883,1.883,0,0,1,1.875,1.864,1.9,1.9,0,1,1-1.875-1.864" transform="translate(0.854 2.137)"/>
    <path id="Path_102" data-name="Path 102" class="cls-1" d="M633.523,1139.212a1.9,1.9,0,1,1-3.8,0,1.938,1.938,0,0,1,1.954-1.9,1.9,1.9,0,0,1,1.843,1.905" transform="translate(0.801 2.067)"/>
    <path id="Path_103" data-name="Path 103" class="cls-1" d="M684.061,1147.788a1.9,1.9,0,1,1-1.818-1.933,1.917,1.917,0,0,1,1.818,1.933" transform="translate(0.893 2.083)"/>
    <path id="Path_104" data-name="Path 104" class="cls-1" d="M680.244,1153.445a1.866,1.866,0,0,1,1.937-1.891,1.9,1.9,0,1,1-.112,3.8,1.874,1.874,0,0,1-1.824-1.912" transform="translate(0.892 2.093)"/>
    <path id="Path_105" data-name="Path 105" class="cls-1" d="M680.678,1164.327a1.865,1.865,0,0,1-1.952,1.877,1.914,1.914,0,0,1-1.838-1.918,1.955,1.955,0,0,1,1.981-1.89,1.87,1.87,0,0,1,1.809,1.931" transform="translate(0.886 2.113)"/>
    <path id="Path_106" data-name="Path 106" class="cls-1" d="M631.07,1155.9a1.907,1.907,0,0,1-1.935,1.9,1.951,1.951,0,0,1-1.85-1.915,1.908,1.908,0,0,1,1.959-1.881,1.847,1.847,0,0,1,1.827,1.891" transform="translate(0.796 2.098)"/>
    <path id="Path_107" data-name="Path 107" class="cls-1" d="M704.01,1123.46a1.892,1.892,0,1,1-3.784-.01,1.892,1.892,0,0,1,3.784.01" transform="translate(0.929 2.039)"/>
    <path id="Path_108" data-name="Path 108" class="cls-1" d="M666.348,1173.765a1.9,1.9,0,0,1,1.9,1.852,1.985,1.985,0,0,1-1.933,1.947,1.888,1.888,0,0,1-1.866-1.878,1.856,1.856,0,0,1,1.9-1.92" transform="translate(0.864 2.134)"/>
    <path id="Path_109" data-name="Path 109" class="cls-1" d="M681.01,1160.948a1.9,1.9,0,0,1-1.868-1.877,1.937,1.937,0,0,1,1.943-1.913,1.9,1.9,0,0,1-.074,3.791" transform="translate(0.89 2.104)"/>
    <path id="Path_110" data-name="Path 110" class="cls-1" d="M636.609,1134.37a1.911,1.911,0,0,1-1.886,1.96,1.948,1.948,0,0,1-1.9-1.862,1.922,1.922,0,0,1,1.908-1.937,1.841,1.841,0,0,1,1.88,1.839" transform="translate(0.806 2.059)"/>
    <path id="Path_111" data-name="Path 111" class="cls-1" d="M643.545,1129.181a1.852,1.852,0,0,1-1.863-1.857,1.9,1.9,0,1,1,3.8-.038,1.879,1.879,0,0,1-1.935,1.9" transform="translate(0.822 2.046)"/>
    <path id="Path_112" data-name="Path 112" class="cls-1" d="M671.227,1170.915a1.9,1.9,0,0,1,1.941,1.89,1.953,1.953,0,0,1-1.867,1.9,1.9,1.9,0,0,1-1.916-1.82,1.846,1.846,0,0,1,1.842-1.965" transform="translate(0.873 2.129)"/>
    <path id="Path_113" data-name="Path 113" class="cls-1" d="M636.888,1130.438a1.855,1.855,0,0,1,1.89-1.927,1.883,1.883,0,0,1,1.9,1.838,1.948,1.948,0,0,1-1.911,1.948,1.889,1.889,0,0,1-1.878-1.859" transform="translate(0.814 2.052)"/>
    <path id="Path_114" data-name="Path 114" class="cls-1" d="M677.4,1168.939a1.941,1.941,0,0,1-1.95,1.907,1.893,1.893,0,1,1,1.95-1.907" transform="translate(0.88 2.122)"/>
    <path id="Path_115" data-name="Path 115" class="cls-1" d="M629.648,1142.642a1.9,1.9,0,0,1,1.857,1.981,1.883,1.883,0,0,1-3.765-.045,1.906,1.906,0,0,1,1.907-1.936" transform="translate(0.797 2.077)"/>
  </g>
</svg>
