<svg xmlns="http://www.w3.org/2000/svg" width="123.302" height="115.226" viewBox="0 0 123.302 115.226">
    <defs>
        <style>
            .cls-1{fill:#1e365c}
        </style>
    </defs>
    <g id="Group_110" data-name="Group 110" transform="translate(-776.415 -3975.505)">
        <g id="Group_109" data-name="Group 109">
            <path id="Path_410" d="M776.415 4036.459a2.918 2.918 0 0 1 3.108-1.734c1.355.086 2.72 0 4.08.026a2.328 2.328 0 0 1 2.489 2.346 2.353 2.353 0 0 1-2.418 2.442c-1.6.06-3.2.016-4.8.013a2.979 2.979 0 0 1-2.457-1.648z" class="cls-1" data-name="Path 410"/>
            <path id="Path_411" d="M838.125 4010.439c9.591 0 19.183.035 28.774-.022a6.393 6.393 0 0 1 5.91 3.178c4.185 6.558 8.449 13.066 12.673 19.6 1.85 2.863 1.688 5.207-.593 7.77q-21.088 23.7-42.2 47.37c-2.848 3.193-6.386 3.192-9.213.021q-21.109-23.677-42.2-47.371c-2.323-2.61-2.473-4.919-.561-7.863 4.216-6.49 8.467-12.959 12.633-19.481a6.4 6.4 0 0 1 5.885-3.222c9.628.053 19.26.02 28.892.02zm4.709 70.111l.246.112 36.609-41.1h-1.282c-7.263 0-14.526.019-21.789-.023-.943-.006-1.27.32-1.534 1.189q-4.618 15.172-9.321 30.321-1.463 4.751-2.929 9.501zm-46.382-40.99l36.628 41.118a.859.859 0 0 0 .05-.686q-6.079-19.749-12.144-39.5c-.236-.772-.6-.952-1.352-.947-5.095.032-10.19.017-15.285.017zm53.944.073h-24.657l12.194 39.568.281-.031c4.05-13.143 8.099-26.286 12.186-39.537zm-32.331-4.944l-11.294-17.452-11.329 17.452zm51.352-17.442l-11.265 17.426H880.7zm-4.517-1.891h-22.431l11.218 17.337zm-31.227 0h-22.38l11.189 17.294zm15.557 19.327l-11.164-17.251-11.151 17.251z" class="cls-1" data-name="Path 411"/>
            <path id="Path_412" d="M840.519 3985.7c0 2.527.014 5.054-.005 7.58a2.412 2.412 0 0 1-2.415 2.7 2.448 2.448 0 0 1-2.384-2.641q-.039-7.64 0-15.28a2.4 2.4 0 1 1 4.794.063c.026 2.529.01 5.056.01 7.578z" class="cls-1" data-name="Path 412"/>
            <path id="Path_413" d="M879.64 3992.83a2.546 2.546 0 0 1 2.54 1.47 2.268 2.268 0 0 1-.51 2.659c-1.424 1.47-2.882 2.907-4.328 4.356-1.162 1.164-2.309 2.346-3.5 3.483a2.408 2.408 0 1 1-3.4-3.39q3.843-3.9 7.757-7.736a5.789 5.789 0 0 1 1.441-.842z" class="cls-1" data-name="Path 413"/>
            <path id="Path_414" d="M796.633 3992.826a4.571 4.571 0 0 1 1.316.727q4.01 3.9 7.928 7.9a2.364 2.364 0 0 1 .06 3.447 2.339 2.339 0 0 1-3.443-.067 787.539 787.539 0 0 1-7.918-7.912 2.278 2.278 0 0 1-.518-2.663 2.458 2.458 0 0 1 2.575-1.432z" class="cls-1" data-name="Path 414"/>
            <path id="Path_415" d="M894.94 4034.749c.8 0 1.6-.028 2.4.006a2.355 2.355 0 0 1 2.373 2.235 2.263 2.263 0 0 1-1.977 2.468 39.491 39.491 0 0 1-5.746-.006 2.218 2.218 0 0 1-1.928-2.6 2.315 2.315 0 0 1 2.358-2.1c.838-.03 1.68-.004 2.52-.003z" class="cls-1" data-name="Path 415"/>
            <path id="Path_416" d="M840.505 4001.752a2.4 2.4 0 0 1-2.369 2.387 2.479 2.479 0 0 1-2.415-2.375 2.41 2.41 0 0 1 2.463-2.417 2.336 2.336 0 0 1 2.321 2.405z" class="cls-1" data-name="Path 416"/>
        </g>
    </g>
</svg>
