<svg xmlns="http://www.w3.org/2000/svg" width="158.959" height="86.115" viewBox="0 0 158.959 86.115">
    <defs>
        <style>
            .cls-1{fill:#1b365d}
        </style>
    </defs>
    <g id="Group_106" data-name="Group 106" transform="translate(-167.16 -3999.771)">
        <path id="Path_406" d="M326.119 4043.117c-.421.43-.875.832-1.257 1.294-14.979 18.127-33.211 31.54-55.97 38.216-18.354 5.384-36.429 3.963-54.008-3.271a115.88 115.88 0 0 1-47.2-35.96c-.127-.16-.236-.334-.526-.75 2.507-2.868 4.931-5.885 7.607-8.659 11.246-11.66 24.1-21.056 39.113-27.335 23.19-9.7 46.215-9.088 68.933 1.484a116.827 116.827 0 0 1 42.427 33.552 7.688 7.688 0 0 0 .879.808zm-108.679-7.838c-3.721 16.074 4.929 30.123 17.8 35.411a30.158 30.158 0 1 0-9.235-49.978c-1.1-1.228-2.266-2.4-3.264-3.7a2.128 2.128 0 0 0-2.972-.781c-14.543 5.87-26.879 14.886-37.65 26.166a2.856 2.856 0 0 0-.314.535c11.162 11.662 23.846 20.968 38.992 26.69-9.6-10.071-13.03-21.825-10.238-35.531zm55.059 34.349c10.729-2.979 33.376-18.615 38.95-26.892-8.293-10.012-31.524-25.889-38.965-26.632 13.591 12.796 16.389 37.806.016 53.524z" class="cls-1" data-name="Path 406"/>
        <path id="Path_407" d="M227.649 4036.984l14.977 2.487-9.7-10.961c4.666-5.489 15.717-8.368 24.7-2.5a20.046 20.046 0 0 1-20.1 34.625c-10.126-5.207-12.611-16.606-9.877-23.651z" class="cls-1" data-name="Path 407"/>
    </g>
</svg>
