<svg xmlns="http://www.w3.org/2000/svg" width="91.659" height="91.666" viewBox="0 0 91.659 91.666">
  <defs>
    <style>
      .cls-1 {
        fill: #1e365c;
      }
    </style>
  </defs>
  <g id="Group_463" data-name="Group 463" transform="translate(-983.317 -1101.234)">
    <path id="Path_116" data-name="Path 116" class="cls-1" d="M999.742,1190.855c-1.338-.763-1.58-1.387-1.078-2.871,1.364-4.034,2.755-8.06,4.089-12.1.36-1.087.862-1.9,2.181-1.872v-1.133c0-8.235-.016-16.47.005-24.7a22.72,22.72,0,0,1,45.119-3.914,27.541,27.541,0,0,1,.336,4.271c.031,8.145.015,16.29.015,24.435v1.031c1.3.006,1.822.792,2.182,1.885,1.331,4.044,2.726,8.069,4.088,12.1.5,1.485.26,2.108-1.078,2.872Zm47.086-16.872v-.754c0-8.409.014-16.819-.016-25.23a21.368,21.368,0,0,0-.347-3.552,19.149,19.149,0,0,0-37.95,4.025q-.006,12.256,0,24.514v1Zm-44.11,13.248h49.839a2,2,0,0,0-.041-.387c-.983-2.9-1.991-5.8-2.941-8.717-.187-.571-.543-.522-.96-.522q-20.94,0-41.882-.017a.933.933,0,0,0-1.054.786c-.689,2.124-1.426,4.233-2.14,6.348-.273.812-.533,1.627-.821,2.508" transform="translate(1.471 2.046)"/>
    <path id="Path_117" data-name="Path 117" class="cls-1" d="M1028.159,1099.236a2.412,2.412,0,0,1,1.273,2.428c-.055,3.273-.015,6.549-.023,9.823a1.851,1.851,0,0,1-1.565,2.055,1.752,1.752,0,0,1-1.993-1.7c-.035-3.631-.018-7.262-.01-10.894,0-.853.611-1.3,1.243-1.712Z" transform="translate(1.521 1.998)"/>
    <path id="Path_118" data-name="Path 118" class="cls-1" d="M1073.375,1149.458a8.627,8.627,0,0,1-.55.665,1.775,1.775,0,1,1-2.42-2.6,1.8,1.8,0,0,1,2.541.193,6.683,6.683,0,0,1,.43.663Z" transform="translate(1.601 2.085)"/>
    <path id="Path_119" data-name="Path 119" class="cls-1" d="M1063.533,1114.993a5,5,0,0,1-.694,1.168q-4.23,4.3-8.519,8.542a1.793,1.793,0,1,1-2.546-2.5q4.283-4.311,8.591-8.6a1.734,1.734,0,0,1,2.037-.456,1.951,1.951,0,0,1,1.131,1.842" transform="translate(1.567 2.023)"/>
    <path id="Path_120" data-name="Path 120" class="cls-1" d="M993.444,1112.761a7.832,7.832,0,0,1,1.456.866q4.326,4.266,8.6,8.588a1.788,1.788,0,1,1-2.506,2.537q-4.313-4.28-8.6-8.59a1.634,1.634,0,0,1-.441-2.1,6.853,6.853,0,0,1,1.489-1.3" transform="translate(1.459 2.023)"/>
    <path id="Path_121" data-name="Path 121" class="cls-1" d="M1061.2,1147.088c1.311,0,2.622-.017,3.932.005a1.782,1.782,0,1,1,.048,3.557q-4.021.056-8.045,0a1.781,1.781,0,1,1,.042-3.557c1.341-.021,2.682-.005,4.022-.005" transform="translate(1.574 2.085)"/>
    <path id="Path_122" data-name="Path 122" class="cls-1" d="M994.9,1147.088c1.311,0,2.622-.017,3.932.005a1.777,1.777,0,1,1,.114,3.549q-4.109.068-8.22,0a1.71,1.71,0,0,1-1.753-1.854,1.735,1.735,0,0,1,1.906-1.692c1.34-.021,2.681-.005,4.021-.005" transform="translate(1.454 2.085)"/>
    <path id="Path_123" data-name="Path 123" class="cls-1" d="M988.87,1130.824c2.309,1.015,4.643,1.977,6.911,3.074a1.574,1.574,0,0,1,.4,2.095,1.672,1.672,0,0,1-2.032.9q-3.163-1.228-6.266-2.6a1.652,1.652,0,0,1-.838-2.053,2.121,2.121,0,0,1,1.825-1.412" transform="translate(1.45 2.056)"/>
    <path id="Path_124" data-name="Path 124" class="cls-1" d="M1066.514,1130.984a1.7,1.7,0,0,1,1.686,1.223,1.617,1.617,0,0,1-.727,2.018q-3.177,1.425-6.428,2.679a1.645,1.645,0,0,1-1.994-.967,1.6,1.6,0,0,1,.533-2.14c2.19-1,4.437-1.868,6.663-2.785a1,1,0,0,1,.267-.028" transform="translate(1.581 2.056)"/>
    <path id="Path_125" data-name="Path 125" class="cls-1" d="M1039.377,1115.7c1.017-2.309,1.977-4.645,3.083-6.909a1.541,1.541,0,0,1,2.094-.392,1.7,1.7,0,0,1,.885,2.044q-1.231,3.162-2.606,6.267a1.626,1.626,0,0,1-1.967.847,2.087,2.087,0,0,1-1.488-1.857" transform="translate(1.545 2.015)"/>
    <path id="Path_126" data-name="Path 126" class="cls-1" d="M1015.707,1115.816a1.723,1.723,0,0,1-1.284,1.728,1.617,1.617,0,0,1-1.987-.8q-1.393-3.142-2.636-6.35a1.67,1.67,0,0,1,.937-2.016,1.58,1.58,0,0,1,2.144.51c1.013,2.215,1.887,4.493,2.812,6.747a.577.577,0,0,1,.014.178" transform="translate(1.491 2.015)"/>
    <path id="Path_127" data-name="Path 127" class="cls-1" d="M1027.656,1120.5a1.783,1.783,0,1,1,1.749-1.862,1.812,1.812,0,0,1-1.749,1.862" transform="translate(1.521 2.03)"/>
    <path id="Path_128" data-name="Path 128" class="cls-1" d="M983.7,1147.1a1.758,1.758,0,0,1,1.749,1.774,1.784,1.784,0,1,1-3.568-.07,1.758,1.758,0,0,1,1.818-1.7" transform="translate(1.441 2.085)"/>
    <path id="Path_129" data-name="Path 129" class="cls-1" d="M1022.259,1146.254c0-1.432-.017-2.865,0-4.3a5.364,5.364,0,0,1,10.727-.042q.053,4.341,0,8.683a5.364,5.364,0,0,1-10.727-.048c-.02-1.432,0-2.865,0-4.3m7.16.065c0-1.369.009-2.737,0-4.106a1.8,1.8,0,1,0-3.573-.036q-.018,4.061,0,8.123a1.8,1.8,0,1,0,3.572.036c.015-1.339,0-2.678,0-4.016" transform="translate(1.514 2.066)"/>
    <path id="Path_130" data-name="Path 130" class="cls-1" d="M1027.619,1159.465a5.368,5.368,0,1,1-5.358,5.355,5.382,5.382,0,0,1,5.358-5.355m.025,7.151a1.783,1.783,0,1,0-1.8-1.813,1.808,1.808,0,0,0,1.8,1.813" transform="translate(1.514 2.108)"/>
  </g>
</svg>
