<svg xmlns="http://www.w3.org/2000/svg" width="66.791" height="43.175" viewBox="0 0 66.791 43.175">
    <defs>
        <style>
            .cls-1{fill:none}.cls-2{clip-path:url(#clip-path)}.cls-3{fill:#7f7f7f}.cls-4{clip-path:url(#clip-path-2)}.cls-5{fill:url(#linear-gradient)}.cls-6{fill:#fff}
        </style>
        <clipPath id="clip-path">
            <path id="Rectangle_373" d="M0 0h66.791v43.175H0z" class="cls-1" data-name="Rectangle 373" transform="translate(9993.209 1832.948)"/>
        </clipPath>
        <clipPath id="clip-path-2">
            <path id="Path_668" d="M10030.651 1845.634a20.442 20.442 0 0 0-7.111-6.6l-2.4 4.646a15.174 15.174 0 0 1 6.771 8.1h-17.235v-11.939h-8.895a8.585 8.585 0 0 0 0 17.169v-5.214a3.357 3.357 0 0 1 0-6.713h3.674V1857h44.292a10.251 10.251 0 0 0 1.6-20.376v5.356a5.024 5.024 0 0 1-1.6 9.791h-16.365a15.133 15.133 0 0 1 14.26-10.089h.028v-5.217h-.028a20.316 20.316 0 0 0-16.991 9.166m-32.037-7.47h5.217v-5.216h-5.217zm6.846 0h5.217v-5.216h-5.217z" class="cls-1" data-name="Path 668"/>
        </clipPath>
        <linearGradient id="linear-gradient" x1="-86.175" x2="-86.17" y1="1.44" y2="1.44" gradientUnits="objectBoundingBox">
            <stop offset="0" stop-color="#80a661"/>
            <stop offset="1" stop-color="#5e98ca"/>
        </linearGradient>
    </defs>
    <g id="Group_187" data-name="Group 187" transform="translate(-9993.209 -1832.948)">
        <g id="Group_184" data-name="Group 184">
            <g id="Group_183" class="cls-2" data-name="Group 183">
                <path id="Path_638" d="M10012.8 1870.833a.331.331 0 1 1-.331-.331.33.33 0 0 1 .331.331" class="cls-3" data-name="Path 638"/>
                <path id="Path_639" d="M10017.686 1870.833a.33.33 0 1 1-.329-.331.329.329 0 0 1 .329.331" class="cls-3" data-name="Path 639"/>
                <path id="Path_640" d="M10011.391 1874.8a.12.12 0 0 1-.035.085.117.117 0 0 1-.084.036h-.3a.122.122 0 0 1-.119-.121v-3.61c0-.012 0-.018-.007-.018s-.008 0-.012.012l-.873 1.8a.422.422 0 0 1-.1.134.28.28 0 0 1-.171.042h-.28a.28.28 0 0 1-.171-.042.437.437 0 0 1-.1-.134l-.872-1.8q-.006-.012-.012-.012s-.006.006-.006.018v3.61a.125.125 0 0 1-.121.121h-.295a.114.114 0 0 1-.084-.036.117.117 0 0 1-.036-.085v-4.224a.175.175 0 0 1 .174-.177h.393a.268.268 0 0 1 .125.022.177.177 0 0 1 .069.082l1.007 2.087c.021.045.046.067.073.067s.053-.022.073-.067l1.007-2.087a.179.179 0 0 1 .07-.082.262.262 0 0 1 .125-.022h.392a.175.175 0 0 1 .174.177z" class="cls-3" data-name="Path 640"/>
                <path id="Path_641" d="M10012.73 1874.8a.123.123 0 0 1-.122.121h-.292a.116.116 0 0 1-.085-.036.117.117 0 0 1-.036-.085v-3.1a.125.125 0 0 1 .121-.122h.292a.125.125 0 0 1 .122.122z" class="cls-3" data-name="Path 641"/>
                <path id="Path_642" d="M10016.193 1874.8a.123.123 0 0 1-.121.121h-.293a.123.123 0 0 1-.121-.121v-2a1.587 1.587 0 0 0-.04-.386.576.576 0 0 0-.122-.246.445.445 0 0 0-.21-.131 1.023 1.023 0 0 0-.3-.039 1.3 1.3 0 0 0-.4.067 3.14 3.14 0 0 0-.419.17v2.563a.125.125 0 0 1-.122.121h-.3a.109.109 0 0 1-.083-.036.123.123 0 0 1-.033-.085v-3.1a.119.119 0 0 1 .033-.085.106.106 0 0 1 .083-.037h.3a.1.1 0 0 1 .082.037.118.118 0 0 1 .034.086v.118a2.809 2.809 0 0 1 .474-.213 1.615 1.615 0 0 1 .494-.071.956.956 0 0 1 .807.329 1.515 1.515 0 0 1 .252.937z" class="cls-3" data-name="Path 642"/>
                <path id="Path_643" d="M10017.624 1874.8a.119.119 0 0 1-.037.085.114.114 0 0 1-.085.036h-.292a.12.12 0 0 1-.086-.036.117.117 0 0 1-.036-.085v-3.1a.114.114 0 0 1 .036-.085.117.117 0 0 1 .086-.037h.292a.112.112 0 0 1 .085.037.115.115 0 0 1 .037.085z" class="cls-3" data-name="Path 643"/>
                <path id="Path_644" d="M10020.642 1874.077a.881.881 0 0 1-.082.4.723.723 0 0 1-.23.274 1.017 1.017 0 0 1-.359.158 1.916 1.916 0 0 1-.466.052h-.2q-.119 0-.249-.015c-.087-.008-.176-.018-.265-.028a1.592 1.592 0 0 1-.243-.045c-.086-.02-.128-.061-.128-.122v-.213a.081.081 0 0 1 .03-.067.123.123 0 0 1 .079-.024h.024l.24.024c.087.008.176.015.265.021l.25.016c.078.004.144.005.2.005a.893.893 0 0 0 .451-.091.365.365 0 0 0 .152-.341.342.342 0 0 0-.1-.243 1.8 1.8 0 0 0-.358-.262l-.614-.365a1.784 1.784 0 0 1-.451-.374.745.745 0 0 1-.17-.5.815.815 0 0 1 .085-.393.676.676 0 0 1 .231-.249.938.938 0 0 1 .347-.131 2.39 2.39 0 0 1 .438-.037 5.848 5.848 0 0 1 .954.08c.077.011.116.052.116.121v.2a.092.092 0 0 1-.1.1h-.018c-.106-.009-.247-.019-.423-.031s-.351-.018-.521-.018a1.162 1.162 0 0 0-.41.06.278.278 0 0 0-.155.293.325.325 0 0 0 .1.24 1.6 1.6 0 0 0 .316.222l.6.359a1.659 1.659 0 0 1 .523.439.834.834 0 0 1 .146.48" class="cls-3" data-name="Path 644"/>
                <path id="Path_645" d="M10022.907 1874.825c0 .057-.037.092-.11.1s-.128.016-.2.022-.138.009-.193.009a1.793 1.793 0 0 1-.369-.033.528.528 0 0 1-.255-.126.561.561 0 0 1-.153-.249 1.348 1.348 0 0 1-.051-.408v-2.124l-.591-.067c-.077-.008-.115-.044-.115-.109v-.165c0-.072.038-.109.115-.109h.591v-.6a.113.113 0 0 1 .108-.121l.317-.049h.018a.088.088 0 0 1 .064.027.106.106 0 0 1 .027.076v.664h.656a.115.115 0 0 1 .086.037.114.114 0 0 1 .036.085v.206a.123.123 0 0 1-.122.122h-.656v2.119a.46.46 0 0 0 .072.316.387.387 0 0 0 .257.067h.341c.085 0 .128.029.128.086z" class="cls-3" data-name="Path 645"/>
                <path id="Path_646" d="M10024.976 1871.891c0 .07-.043.1-.128.1a1.452 1.452 0 0 0-.411.058 1.83 1.83 0 0 0-.429.2v2.545a.112.112 0 0 1-.037.085.114.114 0 0 1-.084.036h-.3a.108.108 0 0 1-.082-.036.127.127 0 0 1-.033-.085v-3.1a.123.123 0 0 1 .033-.085.106.106 0 0 1 .082-.037h.286a.1.1 0 0 1 .082.037.129.129 0 0 1 .034.086v.13a1.684 1.684 0 0 1 .44-.228 1.364 1.364 0 0 1 .417-.068c.085 0 .128.038.128.111z" class="cls-3" data-name="Path 646"/>
                <path id="Path_647" d="M10028.153 1871.673a.107.107 0 0 1-.006.043l-1.006 3.505a2.707 2.707 0 0 1-.154.421.828.828 0 0 1-.209.277.814.814 0 0 1-.309.155 1.73 1.73 0 0 1-.44.049 2.652 2.652 0 0 1-.271-.016 1.659 1.659 0 0 1-.24-.04.453.453 0 0 1-.091-.029.07.07 0 0 1-.037-.068v-.225c0-.065.038-.1.115-.1h.019a6.264 6.264 0 0 0 .542.036 1.083 1.083 0 0 0 .226-.021.394.394 0 0 0 .167-.079.535.535 0 0 0 .122-.158 1.209 1.209 0 0 0 .088-.259l.061-.25h-.086a.7.7 0 0 1-.13-.012.3.3 0 0 1-.122-.054.426.426 0 0 1-.106-.128 1.073 1.073 0 0 1-.091-.226l-.81-2.781a.089.089 0 0 1-.007-.043c0-.069.037-.1.11-.1h.335a.084.084 0 0 1 .063.03.187.187 0 0 1 .039.067l.718 2.642a.2.2 0 0 0 .057.112.1.1 0 0 0 .06.021h.1l.741-2.781a.16.16 0 0 1 .043-.064.105.105 0 0 1 .073-.027h.341c.064 0 .1.034.1.1" class="cls-3" data-name="Path 647"/>
                <path id="Path_648" d="M10032.024 1873.475a2.086 2.086 0 0 1-.085.609 1.285 1.285 0 0 1-.257.468 1.136 1.136 0 0 1-.426.3 1.524 1.524 0 0 1-.59.107 1.5 1.5 0 0 1-.587-.107 1.137 1.137 0 0 1-.424-.3 1.268 1.268 0 0 1-.255-.468 2.022 2.022 0 0 1-.085-.609v-.463a2.01 2.01 0 0 1 .085-.608 1.262 1.262 0 0 1 .255-.469 1.148 1.148 0 0 1 .424-.3 1.511 1.511 0 0 1 .587-.106 1.54 1.54 0 0 1 .59.106 1.148 1.148 0 0 1 .426.3 1.28 1.28 0 0 1 .257.469 2.074 2.074 0 0 1 .085.608zm-.536-.463a1.264 1.264 0 0 0-.194-.742.852.852 0 0 0-1.248 0 1.26 1.26 0 0 0-.2.746v.463a1.271 1.271 0 0 0 .192.742.707.707 0 0 0 .624.274.718.718 0 0 0 .623-.27 1.245 1.245 0 0 0 .2-.746z" class="cls-3" data-name="Path 648"/>
                <path id="Path_649" d="M10034.221 1870.62c0 .061-.036.092-.108.092h-.293a.39.39 0 0 0-.292.085.5.5 0 0 0-.079.335v.438h.639a.116.116 0 0 1 .082.03.1.1 0 0 1 .034.079v.238c0 .069-.039.1-.116.1h-.639v2.775a.126.126 0 0 1-.033.086.11.11 0 0 1-.083.036h-.3a.123.123 0 0 1-.121-.122v-2.775l-.591-.067c-.077-.008-.116-.044-.116-.109v-.165a.1.1 0 0 1 .034-.079.116.116 0 0 1 .082-.03h.591v-.438a1.252 1.252 0 0 1 .057-.408.617.617 0 0 1 .168-.262.63.63 0 0 1 .268-.137 1.508 1.508 0 0 1 .359-.039 1.406 1.406 0 0 1 .2.012c.052.008.1.016.14.024.076.02.115.053.115.1z" class="cls-3" data-name="Path 649"/>
                <path id="Path_650" d="M10038.658 1874.8a.117.117 0 0 1-.036.085.12.12 0 0 1-.086.036h-.311a.125.125 0 0 1-.122-.121v-2.015h-2.081v2.015a.116.116 0 0 1-.036.085.119.119 0 0 1-.085.036h-.312a.119.119 0 0 1-.085-.036.121.121 0 0 1-.036-.085v-4.279a.123.123 0 0 1 .121-.122h.312a.123.123 0 0 1 .085.036.118.118 0 0 1 .036.086v1.765h2.081v-1.765a.119.119 0 0 1 .037-.086.121.121 0 0 1 .085-.036h.311a.124.124 0 0 1 .086.036.118.118 0 0 1 .036.086z" class="cls-3" data-name="Path 650"/>
                <path id="Path_651" d="M10041.969 1873.28c0 .089-.039.134-.115.134h-2.033v.085a1.106 1.106 0 0 0 .213.767.83.83 0 0 0 .633.225q.268 0 .57-.018c.2-.012.372-.028.514-.049h.03a.118.118 0 0 1 .066.019.071.071 0 0 1 .031.067v.206a.159.159 0 0 1-.025.1.148.148 0 0 1-.1.046q-.262.048-.52.075a5.246 5.246 0 0 1-.57.028 1.869 1.869 0 0 1-.511-.07 1.137 1.137 0 0 1-.441-.237 1.206 1.206 0 0 1-.31-.448 1.819 1.819 0 0 1-.119-.706v-.547a1.5 1.5 0 0 1 .346-1.042 1.283 1.283 0 0 1 1-.383 1.551 1.551 0 0 1 .583.1 1.1 1.1 0 0 1 .416.286 1.226 1.226 0 0 1 .252.45 1.888 1.888 0 0 1 .085.588zm-.536-.328a1.1 1.1 0 0 0-.2-.737.921.921 0 0 0-1.206.012 1.052 1.052 0 0 0-.21.725v.054h1.612z" class="cls-3" data-name="Path 651"/>
                <path id="Path_652" d="M10044.884 1874.8a.125.125 0 0 1-.122.122h-.278a.123.123 0 0 1-.122-.122v-.133a2.864 2.864 0 0 1-.451.213 1.393 1.393 0 0 1-.487.085 1.492 1.492 0 0 1-.374-.046.778.778 0 0 1-.316-.161.814.814 0 0 1-.219-.3 1.2 1.2 0 0 1-.083-.475v-.073a1.14 1.14 0 0 1 .076-.429.712.712 0 0 1 .25-.311 1.216 1.216 0 0 1 .453-.185 3.286 3.286 0 0 1 .688-.061h.45v-.243a.773.773 0 0 0-.146-.536.684.684 0 0 0-.506-.152 7.946 7.946 0 0 0-.931.049h-.029a.161.161 0 0 1-.077-.019c-.022-.012-.033-.038-.033-.079v-.213c0-.065.043-.1.128-.116.126-.02.263-.038.411-.055a5.064 5.064 0 0 1 .532-.024 1.18 1.18 0 0 1 .91.305 1.2 1.2 0 0 1 .276.84zm-.535-1.5h-.45a2.619 2.619 0 0 0-.456.034.767.767 0 0 0-.287.1.39.39 0 0 0-.146.183.811.811 0 0 0-.042.277v.073a.534.534 0 0 0 .146.441.665.665 0 0 0 .414.113 1.379 1.379 0 0 0 .407-.061 2.226 2.226 0 0 0 .414-.183z" class="cls-3" data-name="Path 652"/>
                <path id="Path_653" d="M10046.156 1874.8a.129.129 0 0 1-.03.085.1.1 0 0 1-.079.036h-.316a.1.1 0 0 1-.079-.036.129.129 0 0 1-.03-.085v-4.34a.116.116 0 0 1 .03-.082.1.1 0 0 1 .079-.034h.316a.1.1 0 0 1 .079.034.116.116 0 0 1 .03.082z" class="cls-3" data-name="Path 653"/>
                <path id="Path_654" d="M10048.67 1874.825c0 .057-.037.092-.11.1s-.128.016-.2.022-.138.009-.194.009a1.813 1.813 0 0 1-.369-.033.541.541 0 0 1-.255-.126.552.552 0 0 1-.152-.249 1.315 1.315 0 0 1-.052-.408v-2.124l-.59-.067c-.078-.008-.116-.044-.116-.109v-.165c0-.072.038-.109.116-.109h.59v-.6a.114.114 0 0 1 .11-.121l.315-.049h.019a.086.086 0 0 1 .063.027.1.1 0 0 1 .027.076v.664h.658a.118.118 0 0 1 .085.037.114.114 0 0 1 .036.085v.206a.118.118 0 0 1-.036.086.121.121 0 0 1-.085.036h-.658v2.119a.459.459 0 0 0 .073.316.384.384 0 0 0 .256.067h.341c.085 0 .128.029.128.086z" class="cls-3" data-name="Path 654"/>
                <path id="Path_655" d="M10051.646 1874.8a.123.123 0 0 1-.122.121h-.292a.116.116 0 0 1-.085-.036.119.119 0 0 1-.037-.085v-2a.867.867 0 0 0-.177-.627.655.655 0 0 0-.475-.17c-.049 0-.107 0-.173.009s-.139.016-.217.03-.155.033-.233.055a1.626 1.626 0 0 0-.217.076v2.63a.123.123 0 0 1-.122.121h-.3a.108.108 0 0 1-.082-.036.123.123 0 0 1-.033-.085v-4.334a.121.121 0 0 1 .033-.085.109.109 0 0 1 .082-.037h.3a.108.108 0 0 1 .082.037.121.121 0 0 1 .033.085v1.254a2.026 2.026 0 0 1 .478-.143 2.708 2.708 0 0 1 .454-.046 1.286 1.286 0 0 1 .444.073.9.9 0 0 1 .347.226 1.019 1.019 0 0 1 .226.392 1.882 1.882 0 0 1 .079.575z" class="cls-3" data-name="Path 655"/>
                <path id="Path_656" d="M10028.027 1860.243a.189.189 0 0 0-.051-.134.165.165 0 0 0-.129-.055h-.487a.184.184 0 0 0-.135.055.188.188 0 0 0-.055.134v5.308c0 .337.028.459-.437.459h-1.319a.5.5 0 0 1-.358-.167.452.452 0 0 1-.121-.313v-1.487a1.368 1.368 0 0 0-1.36-1.361h-2.252a1.416 1.416 0 0 0-.938.367v-.21a.155.155 0 0 0-.156-.157h-.544a.156.156 0 0 0-.155.157v3.171h-2.065v-.367a3.011 3.011 0 0 0-.849-2.1 3.486 3.486 0 0 0-2.673-.7.064.064 0 0 0-.059.064v.749a.074.074 0 0 0 .082.075 2.834 2.834 0 0 1 2.013.448 2.1 2.1 0 0 1 .62 1.443v.389h-5.1a1.129 1.129 0 0 0 .037-.283v-1.684a1.37 1.37 0 0 0-1.36-1.361h-1.146a1.37 1.37 0 0 0-1.356 1.361v1.488a1.37 1.37 0 0 0 1.356 1.356h14.771a1.136 1.136 0 0 0 .771-.3 1.35 1.35 0 0 0 .846.3h2.234a.392.392 0 0 0 .379-.407zm-17.79 5.767H10009a.5.5 0 0 1-.358-.167.459.459 0 0 1-.12-.312v-1.488a.488.488 0 0 1 .479-.484h1.182a.5.5 0 0 1 .346.144.48.48 0 0 1 .144.34v1.53a.437.437 0 0 1-.437.437m13.405 0h-2.778a.5.5 0 0 1-.358-.167.452.452 0 0 1-.122-.313v-1.487a.489.489 0 0 1 .48-.484h2.728a.49.49 0 0 1 .344.144.477.477 0 0 1 .145.34v1.546a.435.435 0 0 1-.436.421" class="cls-3" data-name="Path 656"/>
                <path id="Path_657" d="M10043.009 1866.827a.211.211 0 0 0 .05-.139v-6.445a.211.211 0 0 0-.05-.139.16.16 0 0 0-.129-.06h-.488a.174.174 0 0 0-.134.06.2.2 0 0 0-.055.139v6.445a.2.2 0 0 0 .055.139.174.174 0 0 0 .134.06h.488a.16.16 0 0 0 .129-.06" class="cls-3" data-name="Path 657"/>
                <path id="Path_658" d="M10030.524 1866.827a.217.217 0 0 0 .051-.139v-6.445a.217.217 0 0 0-.051-.139.16.16 0 0 0-.13-.06h-.487a.171.171 0 0 0-.134.06.2.2 0 0 0-.056.139v6.445a.2.2 0 0 0 .056.139.171.171 0 0 0 .134.06h.487a.161.161 0 0 0 .13-.06" class="cls-3" data-name="Path 658"/>
                <path id="Path_659" d="M10045.905 1862.951h-.506a.178.178 0 0 0-.18.189v4.152c0 .67-.145.879-.507.945a3.478 3.478 0 0 1-.579.03c-.12 0-.179.05-.179.149v.428a.172.172 0 0 0 .168.169c.118.015.336.02.369.02 1.241 0 1.582-.589 1.582-1.663v-4.23a.178.178 0 0 0-.169-.189" class="cls-3" data-name="Path 659"/>
                <path id="Path_660" d="M10040.343 1862.951h-.506a.177.177 0 0 0-.179.189v4.152c0 .67-.146.879-.507.945a3.485 3.485 0 0 1-.58.03c-.119 0-.18.05-.18.149v.428a.174.174 0 0 0 .169.169c.118.015.337.02.369.02 1.242 0 1.582-.589 1.582-1.663v-4.23a.178.178 0 0 0-.169-.189" class="cls-3" data-name="Path 660"/>
                <path id="Path_661" d="M10051.726 1866.963v-2.92a1.369 1.369 0 0 0-1.36-1.361h-1.146a1.371 1.371 0 0 0-1.355 1.361v1.487a1.37 1.37 0 0 0 1.355 1.357h1.65v.23c0 1.051-.845 1.15-1.732 1.15-.105 0-.722-.01-.835-.01s-.159.046-.159.138v.432c0 .078.021.135.159.157.268.043.959.049 1.025.049 1.194 0 2.4-.3 2.4-2.07m-.856-.953h-1.669a.493.493 0 0 1-.479-.48v-1.487a.489.489 0 0 1 .479-.484h1.18a.492.492 0 0 1 .489.484z" class="cls-3" data-name="Path 661"/>
                <path id="Path_662" d="M10037.706 1865.749v-1.706a1.37 1.37 0 0 0-1.36-1.361h-1.145a1.37 1.37 0 0 0-1.356 1.361v1.487a1.37 1.37 0 0 0 1.356 1.357h1.368a1.138 1.138 0 0 0 1.137-1.138m-2.522.261a.5.5 0 0 1-.357-.168.449.449 0 0 1-.121-.312v-1.487a.488.488 0 0 1 .479-.484h1.179a.489.489 0 0 1 .344.144.481.481 0 0 1 .145.34v1.529a.437.437 0 0 1-.437.438z" class="cls-3" data-name="Path 662"/>
                <path id="Path_663" d="M10010.854 1861.513a.52.52 0 1 1-.52-.517.519.519 0 0 1 .52.517" class="cls-3" data-name="Path 663"/>
                <path id="Path_664" d="M10009.387 1861.513a.521.521 0 1 1-.52-.517.519.519 0 0 1 .52.517" class="cls-3" data-name="Path 664"/>
                <path id="Path_665" d="M10037.03 1861.513a.521.521 0 1 1-.521-.517.52.52 0 0 1 .521.517" class="cls-3" data-name="Path 665"/>
                <path id="Path_666" d="M10035.563 1861.513a.521.521 0 1 1-.521-.517.52.52 0 0 1 .521.517" class="cls-3" data-name="Path 666"/>
                <path id="Path_667" d="M10046.17 1861.513a.521.521 0 1 1-.521-.517.52.52 0 0 1 .521.517" class="cls-3" data-name="Path 667"/>
            </g>
        </g>
        <g id="Group_186" data-name="Group 186">
            <g id="Group_185" class="cls-4" data-name="Group 185">
                <path id="Rectangle_374" d="M0 0h66.791v24.056H0z" class="cls-5" data-name="Rectangle 374" transform="translate(9993.209 1832.948)"/>
            </g>
        </g>
        <path id="Rectangle_375" d="M0 0h.449v.449H0z" class="cls-6" data-name="Rectangle 375" transform="rotate(-53.98 6832.058 -8917.134)"/>
        <path id="Rectangle_376" d="M0 0h.725v.725H0z" class="cls-6" data-name="Rectangle 376" transform="rotate(-42.52 7384.406 -11962.6)"/>
        <path id="Rectangle_377" d="M0 0h.621v.621H0z" class="cls-6" data-name="Rectangle 377" transform="rotate(-48.45 7072.371 -10223.502)"/>
        <path id="Rectangle_378" d="M0 0h.543v.543H0z" class="cls-6" data-name="Rectangle 378" transform="rotate(-53.98 6829.674 -8917.875)"/>
        <path id="Rectangle_379" d="M0 0h.671v.671H0z" class="cls-6" data-name="Rectangle 379" transform="rotate(-45.497 7217.277 -11033.68)"/>
        <path id="Rectangle_380" d="M0 0h.494v.494H0z" class="cls-6" data-name="Rectangle 380" transform="rotate(-58.52 6667.166 -8023.017)"/>
        <path id="Rectangle_381" d="M0 0h.725v.725H0z" class="cls-6" data-name="Rectangle 381" transform="rotate(-51.462 6928.786 -9478.878)"/>
        <path id="Rectangle_382" d="M0 0h.845v.845H0z" class="cls-6" data-name="Rectangle 382" transform="rotate(-54.465 6802.966 -8818.848)"/>
        <path id="Rectangle_383" d="M0 0h.543v.543H0z" class="cls-6" data-name="Rectangle 383" transform="rotate(-81.03 6094.871 -4938.622)"/>
        <path id="Rectangle_384" d="M0 0h.371v.371H0z" class="cls-6" data-name="Rectangle 384" transform="rotate(-81.03 6097.712 -4938.491)"/>
        <path id="Path_669" d="M10030.672 1850.786l-.188-.189-.007.006-.007-.006-.182.2-.188.188.006.006-.006.007.194.182.189.189.006-.007.007.006.182-.2.189-.189-.007-.007.006-.006z" class="cls-6" data-name="Path 669"/>
        <path id="Rectangle_385" d="M0 0h.494v.493H0z" class="cls-6" data-name="Rectangle 385" transform="rotate(-49.5 7024.666 -9961.546)"/>
        <path id="Rectangle_386" d="M0 0h.494v.494H0z" class="cls-6" data-name="Rectangle 386" transform="rotate(-85.486 6015.282 -4495.524)"/>
        <path id="Rectangle_387" d="M0 0h.621v.622H0z" class="cls-6" data-name="Rectangle 387" transform="rotate(-45.2 7231.843 -11115.328)"/>
        <path id="Rectangle_388" d="M0 0h.783v.783H0z" class="cls-6" data-name="Rectangle 388" transform="rotate(-57.463 6695.181 -8220.568)"/>
        <path id="Rectangle_389" d="M0 0h.307v.306H0z" class="cls-6" data-name="Rectangle 389" transform="rotate(-65.1 6469.016 -6927.094)"/>
        <path id="Rectangle_390" d="M0 0h.408v.408H0z" class="cls-6" data-name="Rectangle 390" transform="rotate(-58.49 6666.343 -8024.18)"/>
        <path id="Rectangle_391" d="M0 0h.408v.408H0z" class="cls-6" data-name="Rectangle 391" transform="rotate(-76.541 6188.816 -5426.424)"/>
        <path id="Rectangle_392" d="M0 0h.337v.337H0z" class="cls-6" data-name="Rectangle 392" transform="rotate(-60.6 6603.993 -7654.754)"/>
        <path id="Rectangle_393" d="M0 0h.371v.371H0z" class="cls-6" data-name="Rectangle 393" transform="rotate(-56.08 6754.178 -8486.46)"/>
        <path id="Rectangle_394" d="M0 0h.408v.408H0z" class="cls-6" data-name="Rectangle 394" transform="rotate(-51.54 6935.315 -9461.119)"/>
        <path id="Rectangle_395" d="M0 0h.306v.306H0z" class="cls-6" data-name="Rectangle 395" transform="rotate(-53.98 6835.29 -8916.2)"/>
        <path id="Rectangle_396" d="M0 0h.371v.371H0z" class="cls-6" data-name="Rectangle 396" transform="rotate(-63.003 6527.596 -7253.9)"/>
        <path id="Rectangle_397" d="M0 0h.337v.337H0z" class="cls-6" data-name="Rectangle 397" transform="rotate(-67.494 6402.915 -6576.46)"/>
        <path id="Path_670" d="M10027.012 1856.444l-.328-.078-.079.328.328.078z" class="cls-6" data-name="Path 670"/>
        <path id="Rectangle_398" d="M0 0h.449v.448H0z" class="cls-6" data-name="Rectangle 398" transform="rotate(-72 6289.51 -5972.536)"/>
        <path id="Rectangle_399" d="M0 0h.494v.493H0z" class="cls-6" data-name="Rectangle 399" transform="rotate(-67.515 6399.382 -6573.976)"/>
        <path id="Rectangle_400" d="M0 0h.449v.449H0z" class="cls-6" data-name="Rectangle 400" transform="rotate(-63.011 6525.793 -7252.94)"/>
        <path id="Rectangle_401" d="M0 0h.371v.371H0z" class="cls-6" data-name="Rectangle 401" transform="rotate(-72.007 6290.327 -5971.544)"/>
        <path id="Rectangle_402" d="M0 0h.337v.337H0z" class="cls-6" data-name="Rectangle 402" transform="rotate(-49.5 7028.476 -9960.283)"/>
        <path id="Rectangle_403" d="M0 0h.597v.597H0z" class="cls-6" data-name="Rectangle 403" transform="rotate(-85.515 6022.937 -4501.841)"/>
        <path id="Rectangle_404" d="M0 0h.722v.723H0z" class="cls-6" data-name="Rectangle 404" transform="rotate(-76.5 6198.152 -5442.528)"/>
        <path id="Rectangle_405" d="M0 0h.543v.543H0z" class="cls-6" data-name="Rectangle 405" transform="rotate(-80.973 6106.985 -4952.238)"/>
        <path id="Rectangle_406" d="M0 0h.795v.795H0z" class="cls-6" data-name="Rectangle 406" transform="rotate(-80.97 6104.922 -4954.517)"/>
        <path id="Rectangle_407" d="M0 0h.493v.494H0z" class="cls-6" data-name="Rectangle 407" transform="rotate(-85.53 6022.418 -4499.204)"/>
        <path id="Rectangle_408" d="M0 0h.449v.449H0z" class="cls-6" data-name="Rectangle 408" transform="translate(10023.556 1855.704)"/>
        <path id="Rectangle_409" d="M0 0h.543v.543H0z" class="cls-6" data-name="Rectangle 409" transform="translate(10038.554 1854.227)"/>
        <path id="Rectangle_410" d="M0 0h.657v.657H0z" class="cls-6" data-name="Rectangle 410" transform="rotate(-80.994 6106.725 -4951.872)"/>
        <path id="Rectangle_411" d="M0 0h.657v.657H0z" class="cls-6" data-name="Rectangle 411" transform="rotate(-72.009 6298.814 -5981.903)"/>
        <path id="Rectangle_412" d="M0 0h.795v.795H0z" class="cls-6" data-name="Rectangle 412" transform="rotate(-71.994 6299.547 -5986.21)"/>
        <path id="Rectangle_413" d="M0 0h.874v.874H0z" class="cls-6" data-name="Rectangle 413" transform="rotate(-76.507 6198.303 -5444.255)"/>
        <path id="Rectangle_414" d="M0 0h.597v.597H0z" class="cls-6" data-name="Rectangle 414" transform="rotate(-4.44 28660.38 -127597.537)"/>
        <path id="Rectangle_415" d="M0 0h.597v.597H0z" class="cls-6" data-name="Rectangle 415" transform="rotate(-76.52 6200.36 -5440.692)"/>
        <path id="Rectangle_416" d="M0 0h.722v.723H0z" class="cls-6" data-name="Rectangle 416" transform="rotate(-85.516 6022.995 -4503.662)"/>
        <path id="Rectangle_417" d="M0 0h.657v.657H0z" class="cls-6" data-name="Rectangle 417" transform="translate(10040.227 1852.44)"/>
        <path id="Rectangle_418" d="M0 0h.449v.449H0z" class="cls-6" data-name="Rectangle 418" transform="rotate(-80.998 6098.415 -4941.332)"/>
        <path id="Rectangle_419" d="M0 0h.449v.448H0z" class="cls-6" data-name="Rectangle 419" transform="rotate(-47.16 7140.965 -10566.33)"/>
        <path id="Rectangle_420" d="M0 0h.306v.306H0z" class="cls-6" data-name="Rectangle 420" transform="rotate(-44.997 7255.935 -11180.545)"/>
        <path id="Rectangle_421" d="M0 0h.493v.494H0z" class="cls-6" data-name="Rectangle 421" transform="rotate(-76.52 6190.652 -5431.477)"/>
        <path id="Rectangle_422" d="M0 0h.543v.543H0z" class="cls-6" data-name="Rectangle 422" transform="rotate(-72.025 6286.788 -5969.656)"/>
        <path id="Rectangle_423" d="M0 0h.408v.408H0z" class="cls-6" data-name="Rectangle 423" transform="rotate(-85.47 6016.248 -4497.212)"/>
        <path id="Rectangle_424" d="M0 0h.371v.371H0z" class="cls-6" data-name="Rectangle 424" transform="rotate(-44.958 7256.402 -11192.847)"/>
        <path id="Rectangle_425" d="M0 0h.543v.543H0z" class="cls-6" data-name="Rectangle 425" transform="rotate(-18.01 10870.9 -30753.592)"/>
        <path id="Rectangle_426" d="M0 0h.449v.449H0z" class="cls-6" data-name="Rectangle 426" transform="rotate(-9.002 16798.846 -62818.068)"/>
        <path id="Rectangle_427" d="M0 0h.493v.494H0z" class="cls-6" data-name="Rectangle 427" transform="rotate(-4.44 28258.18 -125980.07)"/>
        <path id="Rectangle_428" d="M0 0h.449v.449H0z" class="cls-6" data-name="Rectangle 428" transform="translate(10037.172 1855.704)"/>
        <path id="Rectangle_429" d="M0 0h.543v.543H0z" class="cls-6" data-name="Rectangle 429" transform="rotate(-9.03 16746.54 -62608.458)"/>
        <path id="Rectangle_430" d="M0 0h.494v.493H0z" class="cls-6" data-name="Rectangle 430" transform="rotate(-13.517 12838.145 -41415.545)"/>
        <path id="Rectangle_431" d="M0 0h.408v.408H0z" class="cls-6" data-name="Rectangle 431" transform="rotate(-4.524 28510.42 -126111.112)"/>
        <path id="Rectangle_432" d="M0 0h.408v.408H0z" class="cls-6" data-name="Rectangle 432" transform="rotate(-67.483 6401.854 -6578.242)"/>
        <path id="Rectangle_433" d="M0 0h.494v.493H0z" class="cls-6" data-name="Rectangle 433" transform="rotate(-4.44 28689.648 -127387.18)"/>
        <path id="Rectangle_434" d="M0 0h.597v.597H0z" class="cls-6" data-name="Rectangle 434" transform="rotate(-85.515 6013.134 -4492.783)"/>
        <path id="Rectangle_435" d="M0 0h.597v.597H0z" class="cls-6" data-name="Rectangle 435" transform="rotate(-4.44 28669.688 -127365.55)"/>
        <path id="Rectangle_436" d="M0 0h.543v.543H0z" class="cls-6" data-name="Rectangle 436" transform="translate(10022.079 1854.227)"/>
        <path id="Rectangle_437" d="M0 0h.723v.722H0z" class="cls-6" data-name="Rectangle 437" transform="rotate(-13.509 12836.936 -41360.673)"/>
        <path id="Rectangle_438" d="M0 0h.657v.657H0z" class="cls-6" data-name="Rectangle 438" transform="translate(10020.291 1852.44)"/>
        <path id="Rectangle_439" d="M0 0h.543v.543H0z" class="cls-6" data-name="Rectangle 439" transform="rotate(-8.986 16818.087 -62835.269)"/>
        <path id="Rectangle_440" d="M0 0h.783v.783H0z" class="cls-6" data-name="Rectangle 440" transform="rotate(-48.454 7062.777 -10219.767)"/>
        <path id="Rectangle_441" d="M0 0h.783v.783H0z" class="cls-6" data-name="Rectangle 441" transform="rotate(-41.52 7447.117 -12310.16)"/>
        <path id="Rectangle_442" d="M0 0h.371v.371H0z" class="cls-6" data-name="Rectangle 442" transform="rotate(-8.946 16881.273 -63212.06)"/>
        <path id="Rectangle_443" d="M0 0h.671v.671H0z" class="cls-6" data-name="Rectangle 443" transform="rotate(-46.896 7145.096 -10638.948)"/>
        <path id="Rectangle_444" d="M0 0h.913v.913H0z" class="cls-6" data-name="Rectangle 444" transform="rotate(-60.461 6591.569 -7679.815)"/>
        <path id="Rectangle_445" d="M0 0h.795v.795H0z" class="cls-6" data-name="Rectangle 445" transform="rotate(-8.88 16714.35 -62921.544)"/>
        <path id="Rectangle_446" d="M0 0h.846v.846H0z" class="cls-6" data-name="Rectangle 446" transform="rotate(-63.459 6502.35 -7182.602)"/>
        <path id="Rectangle_447" d="M0 0h.408v.408H0z" class="cls-6" data-name="Rectangle 447" transform="rotate(-13.47 12867.347 -41549.137)"/>
        <path id="Path_671" d="M10029 1856.969l.057.035h.249l.078-.126-.238-.146z" class="cls-6" data-name="Path 671"/>
        <path id="Rectangle_448" d="M0 0h.962v.962H0z" class="cls-6" data-name="Rectangle 448" transform="rotate(-17.991 10858.642 -30694.9)"/>
        <path id="Path_672" d="M10027.409 1856.975l.086.028h.227l.073-.225-.291-.095z" class="cls-6" data-name="Path 672"/>
        <path id="Path_673" d="M10031.792 1856.877l.077.126h.249l.057-.035-.146-.237z" class="cls-6" data-name="Path 673"/>
        <path id="Path_674" d="M10033.38 1856.778l.073.225h.225l.089-.028-.1-.292z" class="cls-6" data-name="Path 674"/>
        <path id="Rectangle_449" d="M0 0h.962v.962H0z" class="cls-6" data-name="Rectangle 449" transform="rotate(-72.009 6299.657 -5987.219)"/>
        <path id="Rectangle_450" d="M0 0h.874v.874H0z" class="cls-6" data-name="Rectangle 450" transform="rotate(-67.48 6410.849 -6592.92)"/>
        <path id="Rectangle_451" d="M0 0h.723v.722H0z" class="cls-6" data-name="Rectangle 451" transform="rotate(-4.44 28645.54 -127339.377)"/>
        <path id="Rectangle_452" d="M0 0h.874v.874H0z" class="cls-6" data-name="Rectangle 452" transform="rotate(-22.48 9651.733 -24227.55)"/>
        <path id="Rectangle_453" d="M0 0h.657v.657H0z" class="cls-6" data-name="Rectangle 453" transform="rotate(-9.002 16786.552 -62709.218)"/>
        <path id="Rectangle_454" d="M0 0h.657v.657H0z" class="cls-6" data-name="Rectangle 454" transform="rotate(-17.992 10871.012 -30710.596)"/>
        <path id="Rectangle_455" d="M0 0h.597v.597H0z" class="cls-6" data-name="Rectangle 455" transform="rotate(-13.526 12834.312 -41316.294)"/>
        <path id="Rectangle_456" d="M0 0h.874v.874H0z" class="cls-6" data-name="Rectangle 456" transform="rotate(-13.493 12837.437 -41400.042)"/>
        <path id="Rectangle_457" d="M0 0h.795v.795H0z" class="cls-6" data-name="Rectangle 457" transform="rotate(-18.006 10860.635 -30677.681)"/>
        <path id="Rectangle_458" d="M0 0h.846v.846H0z" class="cls-6" data-name="Rectangle 458" transform="rotate(-26.54 8923.825 -20351.295)"/>
        <path id="Rectangle_459" d="M0 0h.622v.621H0z" class="cls-6" data-name="Rectangle 459" transform="rotate(-41.519 7456.2 -12309.673)"/>
        <path id="Rectangle_460" d="M0 0h.725v.725H0z" class="cls-6" data-name="Rectangle 460" transform="rotate(-38.537 7657.86 -13428.613)"/>
        <path id="Rectangle_461" d="M0 0h.671v.671H0z" class="cls-6" data-name="Rectangle 461" transform="rotate(-44.52 7275.906 -11333.158)"/>
        <path id="Rectangle_462" d="M0 0h.449v.449H0z" class="cls-6" data-name="Rectangle 462" transform="rotate(-35.997 7867.89 -14512.109)"/>
        <path id="Rectangle_463" d="M0 0h.845v.846H0z" class="cls-6" data-name="Rectangle 463" transform="rotate(-35.51 7891.624 -14745.034)"/>
        <path id="Rectangle_464" d="M0 0h.408v.408H0z" class="cls-6" data-name="Rectangle 464" transform="rotate(-31.51 8297.125 -16841.212)"/>
        <path id="Rectangle_465" d="M0 0h.575v.576H0z" class="cls-6" data-name="Rectangle 465" transform="rotate(-41.931 7431.304 -12165.203)"/>
        <path id="Rectangle_466" d="M0 0h.783v.783H0z" class="cls-6" data-name="Rectangle 466" transform="rotate(-32.54 8176.505 -16267.82)"/>
        <path id="Rectangle_467" d="M0 0h.408v.408H0z" class="cls-6" data-name="Rectangle 467" transform="rotate(-40.5 7524.534 -12653.997)"/>
        <path id="Rectangle_468" d="M0 0h.337v.337H0z" class="cls-6" data-name="Rectangle 468" transform="rotate(-40.5 7526.555 -12653.144)"/>
        <path id="Rectangle_469" d="M0 0h.278v.278H0z" class="cls-6" data-name="Rectangle 469" transform="rotate(-40.5 7536.734 -12675.753)"/>
        <path id="Rectangle_470" d="M0 0h.913v.913H0z" class="cls-6" data-name="Rectangle 470" transform="rotate(-29.539 8509.674 -18114.332)"/>
        <path id="Rectangle_471" d="M0 0h.493v.494H0z" class="cls-6" data-name="Rectangle 471" transform="rotate(-31.46 8302.611 -16881.68)"/>
        <path id="Rectangle_472" d="M0 0h.279v.279H0z" class="cls-6" data-name="Rectangle 472" transform="rotate(-49.5 7029.901 -9959.811)"/>
        <path id="Rectangle_473" d="M0 0h.493v.494H0z" class="cls-6" data-name="Rectangle 473" transform="rotate(-22.48 9692.714 -24339.455)"/>
        <path id="Rectangle_474" d="M0 0h.408v.408H0z" class="cls-6" data-name="Rectangle 474" transform="rotate(-22.519 9674.498 -24272.229)"/>
        <path id="Rectangle_475" d="M0 0h.449v.449H0z" class="cls-6" data-name="Rectangle 475" transform="rotate(-27 8876.755 -19968.493)"/>
        <path id="Rectangle_476" d="M0 0h.725v.725H0z" class="cls-6" data-name="Rectangle 476" transform="rotate(-47.55 7108.462 -10462.478)"/>
        <path id="Rectangle_477" d="M0 0h.337v.337H0z" class="cls-6" data-name="Rectangle 477" transform="rotate(-22.535 9674.408 -24251.813)"/>
        <path id="Rectangle_478" d="M0 0h.449v.449H0z" class="cls-6" data-name="Rectangle 478" transform="rotate(-18.024 10862.303 -30708.335)"/>
        <path id="Path_675" d="M10034.434 1855.765l-.115-.352-.352.115.114.352z" class="cls-6" data-name="Path 675"/>
        <path id="Rectangle_479" d="M0 0h.337v.337H0z" class="cls-6" data-name="Rectangle 479" transform="rotate(-13.471 12876.63 -41552.993)"/>
        <path id="Rectangle_480" d="M0 0h.371v.371H0z" class="cls-6" data-name="Rectangle 480" transform="rotate(-27 8879.895 -19967.26)"/>
        <path id="Rectangle_481" d="M0 0h.306v.306H0z" class="cls-6" data-name="Rectangle 481" transform="rotate(-36 7868.265 -14504.36)"/>
        <path id="Rectangle_482" d="M0 0h.306v.306H0z" class="cls-6" data-name="Rectangle 482" transform="rotate(-26.96 8888.421 -19997.976)"/>
        <path id="Rectangle_483" d="M0 0h.621v.622H0z" class="cls-6" data-name="Rectangle 483" transform="rotate(-50.533 6974.746 -9701.95)"/>
        <path id="Rectangle_484" d="M0 0h.493v.493H0z" class="cls-6" data-name="Rectangle 484" transform="rotate(-42.6 7389.923 -11935.086)"/>
        <path id="Rectangle_485" d="M0 0h.337v.337H0z" class="cls-6" data-name="Rectangle 485" transform="rotate(-31.54 8303.397 -16836.512)"/>
        <path id="Rectangle_486" d="M0 0h.371v.371H0z" class="cls-6" data-name="Rectangle 486" transform="rotate(-35.961 7873.394 -14527.48)"/>
    </g>
</svg>
