<svg xmlns="http://www.w3.org/2000/svg" width="107.475" height="69.473" viewBox="0 0 107.475 69.473"><defs><style>.a{fill:#fff;}</style></defs><g transform="translate(-4094.956 -1226.31)"><rect class="a" width="8.329" height="8.329" transform="translate(4114.575 1226.31)"/><rect class="a" width="8.329" height="8.329" transform="translate(4103.234 1226.31)"/><path class="a" d="M4185.189,1260.286l-1.472-.479.479-1.472,1.472.479Zm-1.814,3.467-1.3-.537.538-1.3,1.3.538Zm-2.011-4.292-1.369-.328.329-1.369,1.368.329Zm-1.4,3.272-1.216-.4.4-1.217,1.217.4Zm-2.128-3.747-1.264-.2.2-1.263,1.263.2Zm-1.033,3.066-1.13-.272.271-1.13,1.13.272Zm-1.154,2.7-1.006-.327.328-1.005,1,.326Zm-2.2-6.039.091-1.159,1.16.091-.092,1.159Zm.442,2.943-1.044-.166.166-1.044,1.043.166Zm-.853,2.533-.934-.224.224-.935.935.224Zm-1.369-5.317h-1.056v-1.056h1.056Zm-.446,2.636-.958-.075.075-.958.958.075Zm-.593,2.357-.862-.137.136-.862.863.136Zm-2.578-4.644-.076-.958.958-.077.076.959Zm.741,2.344h-.874v-.874h.874Zm-.368,2.177-.792-.062.062-.791.792.062Zm-2.668-4.024-.137-.864.863-.136.136.862Zm.047,2.134-.062-.792.792-.062.062.792Zm.613,1.938h-.722v-.722h.722Zm-2.51-1.527-.112-.714.713-.112.113.713Zm.039,1.764-.05-.655.653-.05.052.653Zm-.419-4.467.771-.185.187.771-.773.185Zm-.465-2.16.83-.27.27.831-.831.271Zm-.684,6.966-.093-.589.591-.093.093.589Zm-.314-2.234.638-.153.154.638-.638.153Zm-.385-1.784.688-.224.222.688-.686.222Zm-.7,4.438-.127-.527.527-.127.127.528Zm-.445-2,.568-.185.184.569-.567.183Zm-.475-1.591.6-.251.252.607-.606.252Zm-.654,2.791-.207-.5.5-.208.207.5Zm-.752-1.908.532-.27.27.53-.532.272Zm-.394,2.575-.224-.439.44-.224.223.439Zm-.818-1.675.462-.284.284.463-.463.283Zm-.406-.822-.351-.483.483-.351.35.483Zm-.337,2.123-.29-.4.4-.29.29.4Zm-.718-1.115-.353-.413.413-.352.352.413Zm-.153,1.947-.292-.34.342-.291.29.34Zm-.73-3.108-.422-.421.422-.422.422.422Zm0,2.149-.349-.348.349-.348.349.348Zm-.73.959-.341-.291.291-.34.341.291Zm-.213-2.712.412.352-.352.413-.413-.352Zm-.657,1.88-.4-.29.289-.4.4.29Zm-.927-.775-.473-.267.266-.473.472.267Zm-.491,1.232-.447-.209.208-.446.448.207Zm-.808-2.126-.532-.272.271-.53.532.27Zm-.481,1.376-.5-.207.207-.5.5.208Zm-.9-2.183-.606-.252.251-.607.606.251Zm-.409,1.55-.567-.183.184-.569.567.185Zm-.26,1.435-.527-.126.125-.528.528.127Zm-.921-3.752-.686-.222.223-.688.686.224Zm-.314,1.736-.639-.153.153-.638.638.153Zm-.162,1.6-.589-.093.093-.589.589.093Zm-.952-6.134-.831-.271.27-.831.831.27Zm-.381,2.1-.772-.185.185-.771.773.185Zm-.2,1.932-.713-.113.113-.713.713.112Zm-.04,1.764-.654-.052.051-.653.655.05Zm-1.81-4.309-.862-.138.136-.862.864.136Zm-.838,2.072.062-.792.791.062-.062.792Zm.9,2h-.723v-.722h.723Zm-2.731-.048-.062-.791.791-.062.064.791Zm-.369-3.051h.874v.874h-.874Zm-.141-2.505.958.077-.075.958-.958-.076Zm-1.695,5.679-.136-.863.862-.136.137.862Zm-.668-3.315.959-.075.075.958-.958.075Zm-.371-2.734h1.057v1.056h-1.057Zm-1.369,6.373-.224-.935.934-.224.224.935Zm-1.019-3.577,1.045-.166.165,1.044-1.044.166Zm-.642-2.967,1.158-.091.092,1.159-1.16.091Zm-.952,7.107-.326-1.006,1-.326.326,1.005Zm-1.425-3.834,1.13-.272.272,1.13-1.131.272Zm-.96-3.2,1.262-.2.2,1.263-1.263.2Zm-1.931,5.009-.394-1.216,1.215-.4.4,1.217Zm-1.724-4.64,1.368-.329.328,1.369-1.367.328Zm-1.683,5.66-.538-1.3,1.3-.538.538,1.3Zm-2.292-4.939,1.472-.479.477,1.472-1.472.479Zm23.828-.69.734.3-.3.734-.733-.3Zm1.792,1.044.643.327-.328.643-.643-.327Zm.836-2.2.677.416-.416.677-.677-.416Zm.268-5.85-.77-.757.758-.769.769.757Zm-.717,2.725-.749-.664.663-.748.748.663Zm-1.506-4.941-.913-.726.728-.913.911.726Zm-2.1-6.825.791-1.106,1.107.791-.79,1.106Zm-.535,4.7-1.063-.677.679-1.063,1.061.678Zm-1.56-6.224-1.279-.725.725-1.278,1.278.724Zm-1.514,4.234-1.217-.608.608-1.217,1.217.608Zm7.333-1.247.943.835-.835.943-.943-.835Zm2.121,11.845-.514.707-.707-.514.514-.707Zm.332-9.2.787.861-.861.787-.787-.861Zm.7,7.352-.71-.706.705-.709.709.7Zm-.6,3.912.515-.6.6.515-.517.6Zm.316,2.968.408-.515.515.408-.408.514Zm-.466.96.5.332-.333.495-.5-.333Zm-.79-.786-.343.56-.559-.343.343-.56Zm-.09-1.419.423-.584.585.425-.424.584Zm3.369-.318-.492.528-.529-.491.492-.529Zm-.589-2.756-.011-.011-.009.012-.305-.3-.313-.293.009-.012-.01-.01.3-.3.293-.313.01.009.012-.01.3.3.313.292-.009.011.01.01-.3.3Zm.464-6.772.788.738-.738.788-.788-.738Zm2.032-3.141.861.787-.787.861-.861-.787Zm1.864,3.41.758.769-.769.757-.758-.769Zm.589-6.056.835.943-.942.835-.835-.943Zm.117,10.307-.664-.749.749-.663.663.748Zm1.691-6.58.727.913-.913.726-.727-.913Zm1.126-6.292.791,1.106-1.108.791-.791-1.106Zm2.388,5.125-1.063.677-.677-1.062,1.062-.678Zm1.051-7.55.725,1.278-1.279.725-.725-1.279Zm1.569,4.412.609,1.217-1.219.608-.607-1.217Zm-9.348,17.287.343.56-.56.343-.342-.56Zm-.893-1.66.425.584-.584.425-.425-.584Zm.46-3.762.619.69-.689.618-.619-.689Zm-1.239-1.293-.773-.636.636-.771.773.636Zm-.157,6.857-.5.426-.426-.5.5-.426Zm-.378-2.5-.537-.584.584-.537.538.584Zm2.921-.61.414.677-.677.414-.414-.677Zm1.164,2.54-.644.327-.327-.643.642-.327Zm1.462-1.687.305.734-.734.3-.305-.734Zm35.608-21.209a18.9,18.9,0,0,0-6.372-3.854,16.471,16.471,0,0,0-2.323-.572v8.377a8.157,8.157,0,0,1-2.17,15.917h-27.688l.017-.031c.064-.118.329-.593.8-1.315s1.167-1.723,2.069-2.844c.127-.16.259-.32.4-.484l.137-.165a32.985,32.985,0,0,1,12.966-9.564c.219-.085.439-.168.663-.248a27.286,27.286,0,0,1,5.011-1.295c.47-.075.947-.14,1.434-.191v-8.4a32.511,32.511,0,0,0-9.979,1.6,31.656,31.656,0,0,0-4.747,1.97,32.683,32.683,0,0,0-4.385,2.689,35.112,35.112,0,0,0-8,8.36c-.592-.813-1.212-1.6-1.866-2.339-.112-.13-.23-.253-.344-.38a34.563,34.563,0,0,0-5.916-5.6,32.146,32.146,0,0,0-3.436-2.185l-.257.493-.737,1.414-.507.972-.68,1.305-1.434,2.753-.285.546c.171.109.342.219.511.333.288.19.574.383.856.585q.584.417,1.152.864.5.39.984.8.864.732,1.68,1.528c.039.038.081.074.119.113.241.236.474.478.708.721q.716.75,1.386,1.55l.2.242c.366.446.727.9,1.071,1.369a32.549,32.549,0,0,1,2.722,4.365q.1.189.229.452l-28.473.016v-19.215h-14.287a13.717,13.717,0,0,0-4.659,26.619,9.78,9.78,0,0,0,4.147.971c.06,0,.117,0,.173-.005v-8.364a5.493,5.493,0,0,1,.737-10.927h5.564l0,19.3,35.509.008-.154-.051.153-.468.468.152-.119.367h2.157l-.1-.06.234-.383.383.234-.128.209h4.131l-.128-.21.381-.234.235.383-.1.061h2.159l-.12-.368.47-.152.151.468-.159.052c12.9,0,23.55.005,23.723,0s.319,0,.477-.005a27.592,27.592,0,0,0,7.587-1.084,16.452,16.452,0,0,0,5.6-27.169"/><path class="a" d="M4179.24,1271.687a.833.833,0,1,0,1.178,0,.833.833,0,0,0-1.178,0"/><path class="a" d="M4165.705,1272.865a.833.833,0,1,0-1.178,0,.834.834,0,0,0,1.178,0"/><path class="a" d="M4163.344,1272.865a.833.833,0,1,0-1.178,0,.834.834,0,0,0,1.178,0"/><path class="a" d="M4123.1,1272.865a.833.833,0,1,0-1.178,0,.834.834,0,0,0,1.178,0"/><path class="a" d="M4120.739,1272.865a.833.833,0,1,0-1.178,0,.833.833,0,0,0,1.178,0"/><path class="a" d="M4143.659,1279.511h-4.412a.8.8,0,0,1-.576-.269.719.719,0,0,1-.2-.5v-2.394a.786.786,0,0,1,.772-.779h4.329a.791.791,0,0,1,.554.233.771.771,0,0,1,.232.546v.575h-.007v1.819c0,.032,0,.063,0,.094a.7.7,0,0,1-.7.677m-21.328,0H4120.4a.8.8,0,0,1-.576-.269.726.726,0,0,1-.2-.5v-2.394a.785.785,0,0,1,.771-.779h1.844a.792.792,0,0,1,.554.233.77.77,0,0,1,.231.546v2.462a.7.7,0,0,1-.7.7m27.64-9.583h-.785a.3.3,0,0,0-.216.088.3.3,0,0,0-.088.216v8.737c0,.277-.04.443-.12.5a1.278,1.278,0,0,1-.584.08h-.712v-.034h-.93a.8.8,0,0,1-.576-.269.727.727,0,0,1-.195-.5v-2.394a2.2,2.2,0,0,0-2.189-2.189h-3.624a2.183,2.183,0,0,0-1.477.591v-.34a.252.252,0,0,0-.252-.251h-.906a.252.252,0,0,0-.253.251v5.1h-3.079v-.59h0a4.95,4.95,0,0,0-1.419-3.375c-1.213-1.22-3.238-1.222-4.247-1.132a.1.1,0,0,0-.094.1v1.205a.122.122,0,0,0,.133.121c.893-.075,2.449-.022,3.185.719a3.472,3.472,0,0,1,1,2.359v.629l-.321-.005h-7.836a1.823,1.823,0,0,0,.059-.454v-2.745a2.2,2.2,0,0,0-2.189-2.189H4120.4a2.2,2.2,0,0,0-2.181,2.189v2.394a2.2,2.2,0,0,0,2.181,2.182h23.529a1.822,1.822,0,0,0,1.241-.488,2.168,2.168,0,0,0,1.361.488h1.209c.182,0,.376,0,.584-.009s.409-.015.6-.031.369-.032.528-.048a1.531,1.531,0,0,0,.369-.072.5.5,0,0,0,.256-.193.919.919,0,0,0,.1-.272c.021-.128.038-.272.048-.432s.018-.325.023-.5.009-.337.009-.5v-8.641a.315.315,0,0,0-.08-.216.272.272,0,0,0-.208-.088"/><path class="a" d="M4153.285,1280.922h.784a.26.26,0,0,0,.209-.1.341.341,0,0,0,.08-.224v-10.369a.341.341,0,0,0-.08-.225.259.259,0,0,0-.209-.1h-.784a.282.282,0,0,0-.216.1.327.327,0,0,0-.088.225V1280.6a.327.327,0,0,0,.088.224.282.282,0,0,0,.216.1"/><path class="a" d="M4171.233,1283.644a2.41,2.41,0,0,0,.264-.865,8.909,8.909,0,0,0,.055-1.024v-6.585a.305.305,0,0,0-.08-.216.249.249,0,0,0-.192-.088h-.784a.272.272,0,0,0-.209.088.308.308,0,0,0-.08.216v6.681a3.528,3.528,0,0,1-.079.84.844.844,0,0,1-.288.473,1.147,1.147,0,0,1-.544.208,6.509,6.509,0,0,1-.865.048h-.336c-.182,0-.272.074-.272.224v.688a.251.251,0,0,0,.048.169.389.389,0,0,0,.208.088,3.75,3.75,0,0,0,.423.048c.178.01.292.015.345.015a4.17,4.17,0,0,0,1.5-.224,1.749,1.749,0,0,0,.889-.784"/><path class="a" d="M4175.571,1280.826a.344.344,0,0,0,.081-.224v-10.369a.342.342,0,0,0-.081-.225.257.257,0,0,0-.208-.1h-.784a.284.284,0,0,0-.217.1.327.327,0,0,0-.088.225V1280.6a.328.328,0,0,0,.088.224.288.288,0,0,0,.217.1h.784a.26.26,0,0,0,.208-.1"/><path class="a" d="M4180.231,1274.866h-.785a.271.271,0,0,0-.208.088.312.312,0,0,0-.081.216v6.681a3.446,3.446,0,0,1-.08.84.909.909,0,0,1-.263.473.942.942,0,0,1-.472.208,4.384,4.384,0,0,1-.689.048h-.273c-.192,0-.287.08-.287.239v.689c0,.149.09.241.272.272.095.01.2.019.328.025s.21.007.264.007a3.64,3.64,0,0,0,1.376-.224,1.756,1.756,0,0,0,.865-.784,2.3,2.3,0,0,0,.257-.865c.032-.32.047-.661.047-1.025v-6.584a.3.3,0,0,0-.08-.216.249.249,0,0,0-.191-.088"/><path class="a" d="M4187.713,1279.788h-2.629a.787.787,0,0,1-.535-.228.751.751,0,0,1-.237-.545v-2.393a.785.785,0,0,1,.772-.778h1.843a.8.8,0,0,1,.554.231.779.779,0,0,1,.232.547Zm.315,4.184a2.513,2.513,0,0,0,.8-1.016,3.989,3.989,0,0,0,.288-1.634v-4.7a2.2,2.2,0,0,0-2.189-2.189h-1.843a2.2,2.2,0,0,0-2.181,2.189v2.393a2.2,2.2,0,0,0,2.181,2.183h2.672v.37a1.943,1.943,0,0,1-.2.941,1.426,1.426,0,0,1-.56.565,2.516,2.516,0,0,1-.873.273,8.2,8.2,0,0,1-1.152.072c-.171,0-.4,0-.673-.008s-.506-.007-.689-.007-.256.073-.256.221v.695a.247.247,0,0,0,.049.166.383.383,0,0,0,.207.088c.053.01.15.021.289.031s.291.018.457.023l.5.017c.164.005.3.008.407.008a7.406,7.406,0,0,0,1.554-.153,3.142,3.142,0,0,0,1.217-.528"/><path class="a" d="M4163.006,1279.788a.8.8,0,0,1-.576-.269.73.73,0,0,1-.2-.5v-2.393a.785.785,0,0,1,.771-.78h1.844a.8.8,0,0,1,.554.232.774.774,0,0,1,.232.548v2.462a.7.7,0,0,1-.7.7Zm4.033-.421v-2.744a2.2,2.2,0,0,0-2.189-2.191h-1.844a2.2,2.2,0,0,0-2.181,2.191v2.393a2.2,2.2,0,0,0,2.181,2.182h2.2a1.831,1.831,0,0,0,1.831-1.831"/><path class="a" d="M4124.213,1293.648a.191.191,0,0,1-.059.138.183.183,0,0,1-.135.058h-.474a.186.186,0,0,1-.136-.058.19.19,0,0,1-.058-.138v-5.807c0-.019,0-.03-.009-.03s-.015.007-.02.02l-1.4,2.9a.656.656,0,0,1-.167.217.456.456,0,0,1-.275.068h-.452a.449.449,0,0,1-.274-.068.644.644,0,0,1-.167-.217l-1.4-2.9c-.006-.013-.013-.02-.019-.02s-.009.011-.009.03v5.807a.194.194,0,0,1-.058.138.186.186,0,0,1-.136.058h-.474a.18.18,0,0,1-.136-.058.19.19,0,0,1-.058-.138v-6.8a.28.28,0,0,1,.281-.285h.629a.444.444,0,0,1,.2.035.281.281,0,0,1,.112.132l1.62,3.36c.033.071.072.107.118.107s.085-.036.117-.107l1.621-3.36a.277.277,0,0,1,.113-.132.437.437,0,0,1,.2-.035h.631a.283.283,0,0,1,.281.285Z"/><path class="a" d="M4126.367,1293.648a.2.2,0,0,1-.2.2h-.47a.185.185,0,0,1-.137-.058.188.188,0,0,1-.06-.138v-4.994a.205.205,0,0,1,.2-.2h.47a.2.2,0,0,1,.2.2Z"/><path class="a" d="M4131.94,1293.648a.2.2,0,0,1-.2.2h-.47a.2.2,0,0,1-.2-.2v-3.215a2.525,2.525,0,0,0-.064-.62.927.927,0,0,0-.2-.4.746.746,0,0,0-.338-.21,1.609,1.609,0,0,0-.48-.063,2.114,2.114,0,0,0-.646.107,5.154,5.154,0,0,0-.676.273v4.124a.2.2,0,0,1-.2.2H4128a.173.173,0,0,1-.133-.058.2.2,0,0,1-.053-.138v-4.994a.2.2,0,0,1,.053-.137.171.171,0,0,1,.133-.06h.489a.175.175,0,0,1,.132.06.2.2,0,0,1,.055.14v.189a4.161,4.161,0,0,1,.764-.342,2.562,2.562,0,0,1,.793-.115,1.531,1.531,0,0,1,1.3.529,2.432,2.432,0,0,1,.407,1.508Z"/><path class="a" d="M4134.241,1293.648a.2.2,0,0,1-.2.2h-.47a.2.2,0,0,1-.2-.2v-4.994a.181.181,0,0,1,.06-.137.183.183,0,0,1,.137-.06h.47a.189.189,0,0,1,.137.06.186.186,0,0,1,.058.137Z"/><path class="a" d="M4139.1,1292.493a1.43,1.43,0,0,1-.133.642,1.167,1.167,0,0,1-.372.44,1.672,1.672,0,0,1-.578.255,3.207,3.207,0,0,1-.749.083c-.091,0-.2,0-.328-.005s-.261-.012-.4-.025-.283-.027-.426-.044a2.462,2.462,0,0,1-.392-.072c-.137-.034-.206-.1-.206-.2v-.343a.132.132,0,0,1,.049-.108.2.2,0,0,1,.127-.039h.039q.177.02.387.039c.141.013.282.025.426.035l.4.025c.122.006.231.009.322.009a1.444,1.444,0,0,0,.725-.146.589.589,0,0,0,.244-.549.551.551,0,0,0-.156-.392,2.876,2.876,0,0,0-.578-.421l-.989-.588a2.877,2.877,0,0,1-.725-.6,1.208,1.208,0,0,1-.274-.8,1.3,1.3,0,0,1,.137-.631,1.106,1.106,0,0,1,.373-.4,1.526,1.526,0,0,1,.558-.211,4.064,4.064,0,0,1,.7-.058q.412,0,.8.035t.73.092a.187.187,0,0,1,.185.2v.322a.147.147,0,0,1-.166.167h-.029c-.17-.013-.4-.03-.681-.049s-.563-.03-.838-.03a1.873,1.873,0,0,0-.66.1.447.447,0,0,0-.25.47.522.522,0,0,0,.166.387,2.57,2.57,0,0,0,.51.358l.97.578a2.665,2.665,0,0,1,.841.7,1.327,1.327,0,0,1,.236.774"/><path class="a" d="M4142.742,1293.695c0,.093-.058.149-.176.168-.1.013-.206.025-.324.035s-.221.015-.313.015a2.99,2.99,0,0,1-.593-.053.826.826,0,0,1-.655-.6,2.125,2.125,0,0,1-.084-.656v-3.418l-.95-.107c-.123-.013-.185-.073-.185-.176v-.265c0-.117.062-.177.185-.177h.95v-.959a.183.183,0,0,1,.176-.2l.51-.079h.03a.139.139,0,0,1,.1.044.165.165,0,0,1,.044.123v1.066h1.058a.2.2,0,0,1,.195.2v.333a.189.189,0,0,1-.058.137.187.187,0,0,1-.137.058h-1.058v3.41a.733.733,0,0,0,.118.509.61.61,0,0,0,.41.106h.549c.137,0,.206.047.206.14Z"/><path class="a" d="M4146.072,1288.975c0,.112-.069.168-.206.168a2.346,2.346,0,0,0-.661.093,3.067,3.067,0,0,0-.69.317v4.1a.2.2,0,0,1-.2.2h-.48a.171.171,0,0,1-.132-.06.2.2,0,0,1-.055-.137v-4.994a.2.2,0,0,1,.055-.138.176.176,0,0,1,.132-.058h.461a.172.172,0,0,1,.132.06.207.207,0,0,1,.053.138v.21a2.757,2.757,0,0,1,.711-.368,2.193,2.193,0,0,1,.67-.108c.137,0,.206.059.206.178Z"/><path class="a" d="M4151.184,1288.624a.17.17,0,0,1-.01.069l-1.616,5.641a4.436,4.436,0,0,1-.25.676,1.307,1.307,0,0,1-.337.446,1.324,1.324,0,0,1-.5.249,2.768,2.768,0,0,1-.709.078,3.965,3.965,0,0,1-.437-.025,2.714,2.714,0,0,1-.387-.063.577.577,0,0,1-.146-.049.109.109,0,0,1-.06-.108v-.362c0-.1.063-.157.187-.157h.03c.11.013.256.026.435.039s.325.021.436.021a1.685,1.685,0,0,0,.362-.035.627.627,0,0,0,.27-.127.806.806,0,0,0,.195-.255,1.751,1.751,0,0,0,.143-.416l.1-.4h-.137a1.114,1.114,0,0,1-.211-.02.46.46,0,0,1-.2-.088.66.66,0,0,1-.172-.2,1.817,1.817,0,0,1-.146-.363l-1.3-4.475a.18.18,0,0,1-.01-.069c0-.111.058-.167.176-.167h.539a.134.134,0,0,1,.1.05.293.293,0,0,1,.064.107l1.156,4.251a.339.339,0,0,0,.088.181.17.17,0,0,0,.1.034h.156l1.2-4.475a.246.246,0,0,1,.068-.1.176.176,0,0,1,.117-.044h.549c.1,0,.156.056.156.167"/><path class="a" d="M4156.551,1290.779a2.036,2.036,0,0,0-.313-1.2,1.371,1.371,0,0,0-2.008-.005,2.024,2.024,0,0,0-.314,1.2v.744a2.048,2.048,0,0,0,.309,1.2,1.138,1.138,0,0,0,1,.44,1.159,1.159,0,0,0,1-.435,2,2,0,0,0,.319-1.2Zm.862.744a3.266,3.266,0,0,1-.137.98,2.057,2.057,0,0,1-.412.754,1.82,1.82,0,0,1-.685.485,2.461,2.461,0,0,1-.95.171,2.418,2.418,0,0,1-.945-.171,1.843,1.843,0,0,1-.681-.485,2.077,2.077,0,0,1-.411-.754,3.313,3.313,0,0,1-.138-.98v-.744a3.313,3.313,0,0,1,.138-.98,2.072,2.072,0,0,1,.411-.753,1.845,1.845,0,0,1,.681-.486,2.418,2.418,0,0,1,.945-.171,2.461,2.461,0,0,1,.95.171,1.822,1.822,0,0,1,.685.486,2.053,2.053,0,0,1,.412.753,3.266,3.266,0,0,1,.137.98Z"/><path class="a" d="M4160.949,1286.93c0,.1-.059.148-.177.148h-.469a.63.63,0,0,0-.47.136.81.81,0,0,0-.129.538v.706h1.028a.193.193,0,0,1,.134.049.166.166,0,0,1,.053.127v.382c0,.111-.062.167-.187.167H4159.7v4.466a.2.2,0,0,1-.054.137.169.169,0,0,1-.132.058h-.479a.2.2,0,0,1-.2-.195v-4.466l-.949-.108c-.124-.013-.186-.072-.186-.176v-.265a.166.166,0,0,1,.053-.127.189.189,0,0,1,.133-.049h.949v-.706a1.964,1.964,0,0,1,.094-.655.993.993,0,0,1,.269-.422,1.015,1.015,0,0,1,.431-.22,2.359,2.359,0,0,1,.579-.063,2.19,2.19,0,0,1,.322.019c.085.013.16.026.225.039.124.033.187.085.187.156Z"/><path class="a" d="M4168.088,1293.648a.2.2,0,0,1-.195.2h-.5a.185.185,0,0,1-.137-.058.189.189,0,0,1-.06-.138v-3.241h-3.349v3.241a.187.187,0,0,1-.058.138.191.191,0,0,1-.137.058h-.5a.188.188,0,0,1-.137-.058.191.191,0,0,1-.059-.138v-6.885a.2.2,0,0,1,.2-.2h.5a.189.189,0,0,1,.137.06.186.186,0,0,1,.058.136v2.84h3.349v-2.84a.188.188,0,0,1,.06-.136.183.183,0,0,1,.137-.06h.5a.188.188,0,0,1,.137.06.186.186,0,0,1,.058.136Z"/><path class="a" d="M4172.553,1290.68a1.76,1.76,0,0,0-.318-1.184,1.229,1.229,0,0,0-.964-.352,1.253,1.253,0,0,0-.975.371,1.7,1.7,0,0,0-.338,1.165v.09h2.6Zm.863.53c0,.144-.063.215-.186.215h-3.272v.137a1.785,1.785,0,0,0,.343,1.235,1.341,1.341,0,0,0,1.019.362c.287,0,.593-.01.915-.029s.6-.046.828-.079h.05a.218.218,0,0,1,.107.029.118.118,0,0,1,.048.108v.334a.254.254,0,0,1-.039.151.228.228,0,0,1-.156.073c-.281.053-.56.093-.838.123a8.56,8.56,0,0,1-.915.044,3.047,3.047,0,0,1-.824-.113,1.811,1.811,0,0,1-.709-.382,1.959,1.959,0,0,1-.5-.719,2.941,2.941,0,0,1-.19-1.137v-.882a2.4,2.4,0,0,1,.557-1.673,2.056,2.056,0,0,1,1.611-.618,2.494,2.494,0,0,1,.939.162,1.755,1.755,0,0,1,.669.461,1.943,1.943,0,0,1,.4.723,3.056,3.056,0,0,1,.138.945Z"/><path class="a" d="M4177.245,1291.239h-.725a4.369,4.369,0,0,0-.734.053,1.236,1.236,0,0,0-.461.167.618.618,0,0,0-.234.294,1.265,1.265,0,0,0-.069.446v.117a.867.867,0,0,0,.234.711,1.074,1.074,0,0,0,.667.18,2.2,2.2,0,0,0,.656-.1,3.622,3.622,0,0,0,.666-.294Zm.862,2.409a.2.2,0,0,1-.2.2h-.45a.184.184,0,0,1-.137-.058.192.192,0,0,1-.06-.138v-.214a4.509,4.509,0,0,1-.724.341,2.242,2.242,0,0,1-.784.138,2.438,2.438,0,0,1-.6-.074,1.237,1.237,0,0,1-.509-.259,1.311,1.311,0,0,1-.353-.489,1.93,1.93,0,0,1-.132-.764v-.118a1.792,1.792,0,0,1,.123-.69,1.135,1.135,0,0,1,.4-.5,1.932,1.932,0,0,1,.73-.3,5.378,5.378,0,0,1,1.106-.1h.725v-.391a1.234,1.234,0,0,0-.235-.862,1.1,1.1,0,0,0-.813-.245q-.478,0-.842.025c-.243.015-.46.033-.657.053h-.049a.251.251,0,0,1-.122-.029.134.134,0,0,1-.054-.128v-.343c0-.1.069-.166.206-.185.2-.032.423-.062.661-.088a7.808,7.808,0,0,1,.857-.04,1.9,1.9,0,0,1,1.464.49,1.936,1.936,0,0,1,.446,1.352Z"/><path class="a" d="M4180.154,1293.648a.213.213,0,0,1-.049.138.159.159,0,0,1-.127.058h-.51a.157.157,0,0,1-.127-.058.21.21,0,0,1-.049-.138v-6.982a.185.185,0,0,1,.049-.132.164.164,0,0,1,.127-.055h.51a.165.165,0,0,1,.127.055.188.188,0,0,1,.049.132Z"/><path class="a" d="M4184.2,1293.695c0,.093-.058.149-.176.168-.1.013-.206.025-.323.035s-.222.015-.314.015a2.984,2.984,0,0,1-.593-.053.9.9,0,0,1-.41-.2.909.909,0,0,1-.246-.4,2.19,2.19,0,0,1-.083-.656v-3.418l-.95-.107c-.124-.013-.185-.073-.185-.176v-.265c0-.117.061-.177.185-.177h.95v-.959a.183.183,0,0,1,.176-.2l.51-.079h.029a.138.138,0,0,1,.1.044.165.165,0,0,1,.044.123v1.066h1.058a.2.2,0,0,1,.2.2v.333a.19.19,0,0,1-.059.137.188.188,0,0,1-.137.058h-1.058v3.41a.733.733,0,0,0,.118.509.611.611,0,0,0,.411.106h.548c.138,0,.206.047.206.14Z"/><path class="a" d="M4188.987,1293.648a.2.2,0,0,1-.195.2h-.47a.186.186,0,0,1-.137-.058.188.188,0,0,1-.06-.138v-3.222a1.391,1.391,0,0,0-.283-1.008,1.051,1.051,0,0,0-.764-.274c-.079,0-.172.005-.28.014s-.224.026-.347.049-.249.052-.378.088a2.843,2.843,0,0,0-.347.123v4.23a.2.2,0,0,1-.2.2h-.479a.17.17,0,0,1-.132-.058.2.2,0,0,1-.055-.138v-6.973a.194.194,0,0,1,.055-.137.171.171,0,0,1,.132-.059h.489a.173.173,0,0,1,.132.059.2.2,0,0,1,.054.137v2.018a3.258,3.258,0,0,1,.769-.23,4.162,4.162,0,0,1,.729-.074,2.091,2.091,0,0,1,.716.118,1.469,1.469,0,0,1,.558.362,1.645,1.645,0,0,1,.363.632,3,3,0,0,1,.126.925Z"/><path class="a" d="M4126.473,1287.271a.532.532,0,1,1-.532-.532.532.532,0,0,1,.532.532"/><path class="a" d="M4134.342,1287.271a.532.532,0,1,1-.532-.532.532.532,0,0,1,.532.532"/></g></svg>