<svg xmlns="http://www.w3.org/2000/svg" xmlns:xlink="http://www.w3.org/1999/xlink" viewBox="0 0 300.94 194.53"><defs><style>.cls-1{fill:none;}.cls-2{clip-path:url(#clip-path);}.cls-3{fill:#7f7f7f;}.cls-4{clip-path:url(#clip-path-2);}.cls-5{fill:url(#linear-gradient);}.cls-6{fill:#fff;}</style><clipPath id="clip-path" transform="translate(0 0)"><rect class="cls-1" width="300.94" height="194.53"/></clipPath><clipPath id="clip-path-2" transform="translate(0 0)"><path class="cls-1" d="M168.7,57.16h0a92.06,92.06,0,0,0-32-29.76l-10.8,20.93a68.41,68.41,0,0,1,30.51,36.49s-77.66,0-77.66,0V31H38.63a38.68,38.68,0,0,0,0,77.36V84.9a15.13,15.13,0,1,1,0-30.25H55.18v53.74H254.75A46.19,46.19,0,0,0,262,16.58V40.71a22.64,22.64,0,0,1-7.21,44.11H181a68.18,68.18,0,0,1,64.25-45.45h.13V15.87h-.13a91.55,91.55,0,0,0-76.56,41.3M24.35,23.5H47.86V0H24.35Zm30.85,0H78.7V0H55.2Z"/></clipPath><linearGradient id="linear-gradient" x1="2521.48" y1="-802.89" x2="2523.25" y2="-802.89" gradientTransform="matrix(170.21, 0, 0, -170.21, -429191.46, -136608.35)" gradientUnits="userSpaceOnUse"><stop offset="0" stop-color="#80a661"/><stop offset="1" stop-color="#5e98ca"/></linearGradient></defs><title>logo</title><g id="Layer_2" data-name="Layer 2"><g id="Layer_1-2" data-name="Layer 1"><g class="cls-2"><path class="cls-3" d="M88.25,170.7a1.49,1.49,0,1,1-1.49-1.49,1.49,1.49,0,0,1,1.49,1.49" transform="translate(0 0)"/><path class="cls-3" d="M110.29,170.7a1.49,1.49,0,1,1-1.49-1.49,1.49,1.49,0,0,1,1.49,1.49" transform="translate(0 0)"/><path class="cls-3" d="M81.92,188.55a.53.53,0,0,1-.16.39.51.51,0,0,1-.38.16H80.05a.52.52,0,0,1-.38-.16.53.53,0,0,1-.16-.39V172.29s0-.08,0-.08,0,0,0,0l-3.93,8.12A2,2,0,0,1,75,181a1.3,1.3,0,0,1-.77.19H73a1.28,1.28,0,0,1-.76-.19,1.84,1.84,0,0,1-.47-.61l-3.93-8.12s0,0-.06,0,0,0,0,.08v16.26a.54.54,0,0,1-.17.39.51.51,0,0,1-.38.16H65.87a.52.52,0,0,1-.38-.16.57.57,0,0,1-.16-.39v-19a.79.79,0,0,1,.79-.79h1.76a1.35,1.35,0,0,1,.57.09.91.91,0,0,1,.31.37l4.54,9.41q.14.3.33.3t.33-.3l4.53-9.41a.85.85,0,0,1,.32-.37,1.33,1.33,0,0,1,.56-.09h1.77a.76.76,0,0,1,.55.23.75.75,0,0,1,.23.56Z" transform="translate(0 0)"/><path class="cls-3" d="M88,188.55a.54.54,0,0,1-.17.39.52.52,0,0,1-.38.16H86.09a.51.51,0,0,1-.38-.16.54.54,0,0,1-.17-.39v-14a.5.5,0,0,1,.17-.38.48.48,0,0,1,.38-.17h1.32a.58.58,0,0,1,.55.55Z" transform="translate(0 0)"/><path class="cls-3" d="M103.56,188.55a.54.54,0,0,1-.17.39.51.51,0,0,1-.38.16h-1.32a.55.55,0,0,1-.54-.54v-9a7.15,7.15,0,0,0-.18-1.74,2.53,2.53,0,0,0-.55-1.1,2,2,0,0,0-1-.59,4.48,4.48,0,0,0-1.34-.18,5.86,5.86,0,0,0-1.81.3,14.73,14.73,0,0,0-1.89.77v11.55a.53.53,0,0,1-.17.38.52.52,0,0,1-.38.16H92.54a.49.49,0,0,1-.38-.16.56.56,0,0,1-.15-.39v-14a.52.52,0,0,1,.15-.38.47.47,0,0,1,.38-.17h1.37a.46.46,0,0,1,.37.17.56.56,0,0,1,.15.39v.53a11.7,11.7,0,0,1,2.13-1,7.07,7.07,0,0,1,2.23-.32,4.28,4.28,0,0,1,3.63,1.48,6.79,6.79,0,0,1,1.14,4.22Z" transform="translate(0 0)"/><path class="cls-3" d="M110,188.55a.55.55,0,0,1-.55.55h-1.31a.53.53,0,0,1-.39-.16.57.57,0,0,1-.16-.39v-14a.53.53,0,0,1,.16-.38.5.5,0,0,1,.39-.17h1.31a.5.5,0,0,1,.39.17.49.49,0,0,1,.16.38Z" transform="translate(0 0)"/><path class="cls-3" d="M123.61,185.32a4.11,4.11,0,0,1-.37,1.79,3.25,3.25,0,0,1-1,1.24,4.56,4.56,0,0,1-1.61.71,8.59,8.59,0,0,1-2.1.24l-.92,0c-.36,0-.73,0-1.13-.07l-1.19-.12a8,8,0,0,1-1.1-.21c-.38-.09-.57-.27-.57-.55v-1a.36.36,0,0,1,.14-.3.56.56,0,0,1,.35-.11h.11c.33,0,.69.08,1.09.11l1.19.1,1.12.07.91,0a4,4,0,0,0,2-.42,1.64,1.64,0,0,0,.68-1.53,1.52,1.52,0,0,0-.44-1.1,8.26,8.26,0,0,0-1.62-1.18l-2.76-1.64a8.11,8.11,0,0,1-2-1.69,3.33,3.33,0,0,1-.77-2.23,3.68,3.68,0,0,1,.38-1.77,3.23,3.23,0,0,1,1-1.13,4.32,4.32,0,0,1,1.57-.59,11,11,0,0,1,2-.16c.77,0,1.51,0,2.24.09s1.4.15,2,.27c.35.05.52.23.52.54v.91a.41.41,0,0,1-.47.47h-.08l-1.9-.14c-.8-.06-1.58-.09-2.35-.09a5.22,5.22,0,0,0-1.85.28c-.46.18-.7.62-.7,1.32a1.45,1.45,0,0,0,.47,1.08,7.46,7.46,0,0,0,1.42,1l2.72,1.62a7.46,7.46,0,0,1,2.36,2,3.81,3.81,0,0,1,.66,2.17" transform="translate(0 0)"/><path class="cls-3" d="M133.81,188.68c0,.26-.17.42-.5.48s-.57.07-.9.09-.62,0-.88,0a7.4,7.4,0,0,1-1.66-.15,2.35,2.35,0,0,1-1.15-.56,2.61,2.61,0,0,1-.69-1.12,6.26,6.26,0,0,1-.23-1.84v-9.57l-2.66-.3c-.35,0-.52-.2-.52-.5v-.74c0-.32.17-.49.52-.49h2.66v-2.69a.52.52,0,0,1,.49-.55l1.43-.22h.08a.41.41,0,0,1,.29.13.45.45,0,0,1,.12.34v3h3a.53.53,0,0,1,.38.17.49.49,0,0,1,.16.38v.93a.51.51,0,0,1-.16.38.53.53,0,0,1-.38.17h-3v9.55a2,2,0,0,0,.33,1.42,1.74,1.74,0,0,0,1.16.3h1.53c.38,0,.58.13.58.39Z" transform="translate(0 0)"/><path class="cls-3" d="M143.13,175.47c0,.31-.19.47-.58.47a6.72,6.72,0,0,0-1.85.26,8.13,8.13,0,0,0-1.93.89v11.47a.56.56,0,0,1-.55.54h-1.34a.47.47,0,0,1-.37-.16.56.56,0,0,1-.15-.39v-14a.52.52,0,0,1,.15-.38.48.48,0,0,1,.37-.17h1.29a.5.5,0,0,1,.37.17.56.56,0,0,1,.15.39v.58a7.9,7.9,0,0,1,2-1,6.14,6.14,0,0,1,1.87-.3c.39,0,.58.17.58.5Z" transform="translate(0 0)"/><path class="cls-3" d="M157.45,174.49a.44.44,0,0,1,0,.19l-4.53,15.79a12.64,12.64,0,0,1-.7,1.9,3.45,3.45,0,0,1-2.33,1.94,7.52,7.52,0,0,1-2,.22,10.33,10.33,0,0,1-1.22-.07,6.49,6.49,0,0,1-1.09-.18,1.8,1.8,0,0,1-.41-.13.31.31,0,0,1-.16-.3v-1c0-.29.17-.44.52-.44h.08c.31,0,.72.08,1.22.11s.91.06,1.22.06a4.37,4.37,0,0,0,1-.1,1.72,1.72,0,0,0,.76-.35,2.44,2.44,0,0,0,.55-.72,5.39,5.39,0,0,0,.39-1.16l.28-1.13h-.39a3.68,3.68,0,0,1-.58,0,1.31,1.31,0,0,1-.55-.25,1.73,1.73,0,0,1-.48-.57,5.08,5.08,0,0,1-.42-1L145,174.68a.44.44,0,0,1,0-.19c0-.31.16-.47.49-.47h1.51a.38.38,0,0,1,.29.14.92.92,0,0,1,.18.3l3.23,11.9a1.07,1.07,0,0,0,.25.51.49.49,0,0,0,.28.09h.44L155,174.43a.77.77,0,0,1,.19-.29.48.48,0,0,1,.33-.12H157c.29,0,.44.16.44.47" transform="translate(0 0)"/><path class="cls-3" d="M174.89,182.6a9.14,9.14,0,0,1-.39,2.75,5.75,5.75,0,0,1-1.15,2.11,5.16,5.16,0,0,1-1.92,1.36,6.86,6.86,0,0,1-2.66.48,6.72,6.72,0,0,1-2.64-.48,5.2,5.2,0,0,1-1.91-1.36,5.75,5.75,0,0,1-1.15-2.11,9.14,9.14,0,0,1-.39-2.75v-2.08a9,9,0,0,1,.39-2.74,5.71,5.71,0,0,1,1.15-2.12,5.18,5.18,0,0,1,1.91-1.35,6.72,6.72,0,0,1,2.64-.48,6.86,6.86,0,0,1,2.66.48,5.14,5.14,0,0,1,1.92,1.35,5.71,5.71,0,0,1,1.15,2.12,9,9,0,0,1,.39,2.74Zm-2.42-2.08a5.74,5.74,0,0,0-.87-3.35,3.85,3.85,0,0,0-5.63,0,5.68,5.68,0,0,0-.87,3.36v2.08A5.71,5.71,0,0,0,166,186a3.84,3.84,0,0,0,5.62,0,5.54,5.54,0,0,0,.89-3.36Z" transform="translate(0 0)"/><path class="cls-3" d="M184.79,169.74c0,.28-.17.41-.5.41H183a1.76,1.76,0,0,0-1.32.39,2.27,2.27,0,0,0-.36,1.51v2h2.88a.49.49,0,0,1,.37.14.45.45,0,0,1,.15.35v1.07c0,.31-.17.47-.52.47H181.3v12.5a.56.56,0,0,1-.15.39.47.47,0,0,1-.37.16h-1.34a.51.51,0,0,1-.38-.16.54.54,0,0,1-.17-.39v-12.5l-2.66-.3c-.35,0-.52-.2-.52-.5v-.74a.45.45,0,0,1,.15-.35.49.49,0,0,1,.37-.14h2.66v-2a5.65,5.65,0,0,1,.26-1.84,2.78,2.78,0,0,1,.76-1.18,2.8,2.8,0,0,1,1.2-.62,6.69,6.69,0,0,1,1.62-.18,5.67,5.67,0,0,1,.91.06l.63.11c.34.09.52.24.52.44Z" transform="translate(0 0)"/><path class="cls-3" d="M204.78,188.55a.54.54,0,0,1-.17.39.51.51,0,0,1-.38.16h-1.4a.51.51,0,0,1-.38-.16.53.53,0,0,1-.17-.38v-9.08H192.9v9.08a.55.55,0,0,1-.54.54H191a.55.55,0,0,1-.55-.55V169.28a.55.55,0,0,1,.55-.55h1.4a.52.52,0,0,1,.38.16.53.53,0,0,1,.16.39v7.95h9.38v-7.95a.54.54,0,0,1,.17-.39.51.51,0,0,1,.38-.16h1.4a.51.51,0,0,1,.38.16.54.54,0,0,1,.17.39Z" transform="translate(0 0)"/><path class="cls-3" d="M219.7,181.73c0,.4-.18.6-.52.6H210v.38a5,5,0,0,0,1,3.46,3.73,3.73,0,0,0,2.85,1c.8,0,1.66,0,2.56-.08s1.68-.13,2.32-.22h.14a.61.61,0,0,1,.3.08.34.34,0,0,1,.13.31v.93a.73.73,0,0,1-.1.42.7.7,0,0,1-.44.21c-.79.14-1.57.26-2.35.34a25.15,25.15,0,0,1-2.56.12,8.52,8.52,0,0,1-2.31-.31,5,5,0,0,1-2-1.07,5.25,5.25,0,0,1-1.4-2,8.11,8.11,0,0,1-.54-3.18v-2.46a6.77,6.77,0,0,1,1.56-4.7,5.78,5.78,0,0,1,4.52-1.72,7,7,0,0,1,2.62.45,4.93,4.93,0,0,1,1.88,1.29,5.43,5.43,0,0,1,1.13,2,8.48,8.48,0,0,1,.39,2.65Zm-2.42-1.48a4.92,4.92,0,0,0-.89-3.32,3.44,3.44,0,0,0-2.7-1,3.51,3.51,0,0,0-2.73,1,4.77,4.77,0,0,0-.94,3.27v.24h7.26Z" transform="translate(0 0)"/><path class="cls-3" d="M232.83,188.55a.55.55,0,0,1-.55.55H231a.52.52,0,0,1-.38-.16.54.54,0,0,1-.17-.39V188a13,13,0,0,1-2,1,6.16,6.16,0,0,1-2.19.39,6.75,6.75,0,0,1-1.69-.21,3.5,3.5,0,0,1-1.42-.73,3.73,3.73,0,0,1-1-1.37,5.33,5.33,0,0,1-.37-2.14v-.33a5,5,0,0,1,.34-1.93,3.25,3.25,0,0,1,1.13-1.4,5.48,5.48,0,0,1,2-.83,14.32,14.32,0,0,1,3.1-.28h2V179a3.46,3.46,0,0,0-.66-2.41,3.08,3.08,0,0,0-2.28-.69c-.89,0-1.68,0-2.35.07l-1.84.15h-.14a.63.63,0,0,1-.34-.08q-.15-.08-.15-.36v-1c0-.29.19-.46.57-.52q.86-.13,1.86-.24a20.54,20.54,0,0,1,2.39-.11,4.64,4.64,0,0,1,5.35,5.15Zm-2.41-6.74h-2a11.83,11.83,0,0,0-2.06.15,3.45,3.45,0,0,0-1.29.47,1.63,1.63,0,0,0-.65.82,3.48,3.48,0,0,0-.2,1.25v.32a2.4,2.4,0,0,0,.66,2,3,3,0,0,0,1.87.51,6.14,6.14,0,0,0,1.83-.27,10.25,10.25,0,0,0,1.87-.83Z" transform="translate(0 0)"/><path class="cls-3" d="M238.56,188.55a.59.59,0,0,1-.13.39.46.46,0,0,1-.36.16h-1.43a.43.43,0,0,1-.35-.16.6.6,0,0,1-.14-.39V169a.55.55,0,0,1,.14-.37.45.45,0,0,1,.35-.15h1.43a.49.49,0,0,1,.36.15.54.54,0,0,1,.13.37Z" transform="translate(0 0)"/><path class="cls-3" d="M249.89,188.68c0,.26-.17.42-.49.48s-.58.07-.91.09-.62,0-.88,0a7.4,7.4,0,0,1-1.66-.15,2.39,2.39,0,0,1-1.15-.56,2.5,2.5,0,0,1-.68-1.12,5.91,5.91,0,0,1-.24-1.84v-9.57l-2.66-.3c-.34,0-.52-.2-.52-.5v-.74c0-.32.18-.49.52-.49h2.66v-2.69a.52.52,0,0,1,.5-.55l1.42-.22h.08a.39.39,0,0,1,.29.13.42.42,0,0,1,.13.34v3h3a.53.53,0,0,1,.38.17.5.5,0,0,1,.17.38v.93a.52.52,0,0,1-.17.38.53.53,0,0,1-.38.17h-3v9.55a2.1,2.1,0,0,0,.32,1.42,1.74,1.74,0,0,0,1.16.3h1.53c.39,0,.58.13.58.39Z" transform="translate(0 0)"/><path class="cls-3" d="M263.3,188.55a.54.54,0,0,1-.17.39.49.49,0,0,1-.38.16h-1.32a.52.52,0,0,1-.38-.16.53.53,0,0,1-.16-.39v-9a3.88,3.88,0,0,0-.8-2.82,3,3,0,0,0-2.14-.77c-.22,0-.48,0-.78,0a9.45,9.45,0,0,0-1,.14c-.35.06-.7.15-1.06.24a6.82,6.82,0,0,0-1,.35v11.84a.54.54,0,0,1-.17.39.52.52,0,0,1-.38.16h-1.35a.5.5,0,0,1-.37-.16.56.56,0,0,1-.15-.39V169a.52.52,0,0,1,.15-.38.51.51,0,0,1,.37-.17h1.38a.5.5,0,0,1,.37.17.52.52,0,0,1,.15.38v5.65a9.46,9.46,0,0,1,2.15-.65,12.69,12.69,0,0,1,2-.2,5.79,5.79,0,0,1,2,.33,4,4,0,0,1,1.57,1,4.5,4.5,0,0,1,1,1.77,8.26,8.26,0,0,1,.36,2.59Z" transform="translate(0 0)"/><path class="cls-3" d="M156.88,123a.89.89,0,0,0-.23-.61.76.76,0,0,0-.58-.25h-2.19a.83.83,0,0,0-.61.25.86.86,0,0,0-.25.61V146.9c0,1.52.13,2.07-2,2.07h-5.94a2.27,2.27,0,0,1-1.62-.75,2,2,0,0,1-.54-1.41v-6.7a6.16,6.16,0,0,0-6.13-6.13H126.67a6.38,6.38,0,0,0-4.23,1.65v-.95a.7.7,0,0,0-.7-.7h-2.45a.7.7,0,0,0-.71.7V149h-9.3v-1.65a13.54,13.54,0,0,0-3.83-9.45c-3.39-3.42-9.21-3.43-12-3.18a.29.29,0,0,0-.26.29v3.38a.33.33,0,0,0,.37.33c2.5-.2,7-.06,9.07,2a9.48,9.48,0,0,1,2.79,6.51V149h-23a5.41,5.41,0,0,0,.16-1.28v-7.58A6.15,6.15,0,0,0,76.42,134H71.26a6.16,6.16,0,0,0-6.11,6.13v6.7a6.18,6.18,0,0,0,6.11,6.11h66.56a5.11,5.11,0,0,0,3.47-1.36,6.11,6.11,0,0,0,3.82,1.36h10.06a1.77,1.77,0,0,0,1.71-1.83ZM76.72,149H71.16a2.23,2.23,0,0,1-1.61-.75,2,2,0,0,1-.55-1.41v-6.7a2.19,2.19,0,0,1,2.16-2.18h5.33a2.2,2.2,0,0,1,2.2,2.18V147a2,2,0,0,1-2,2m60.41,0H124.6a2.23,2.23,0,0,1-1.61-.75,2,2,0,0,1-.55-1.41v-6.7a2.19,2.19,0,0,1,2.16-2.18h12.29a2.2,2.2,0,0,1,2.2,2.18s0,6.88,0,7a2,2,0,0,1-2,1.9" transform="translate(0 0)"/><path class="cls-3" d="M224.38,152.65a1,1,0,0,0,.23-.63V123a1,1,0,0,0-.23-.63.72.72,0,0,0-.58-.27h-2.2a.77.77,0,0,0-.6.27.88.88,0,0,0-.25.63v29a.88.88,0,0,0,.25.63.77.77,0,0,0,.6.27h2.2a.72.72,0,0,0,.58-.27" transform="translate(0 0)"/><path class="cls-3" d="M168.13,152.65a1,1,0,0,0,.23-.63V123a1,1,0,0,0-.23-.63.72.72,0,0,0-.58-.27h-2.2a.8.8,0,0,0-.61.27.92.92,0,0,0-.24.63v29a.92.92,0,0,0,.24.63.8.8,0,0,0,.61.27h2.2a.72.72,0,0,0,.58-.27" transform="translate(0 0)"/><path class="cls-3" d="M237.43,135.19h-2.28a.79.79,0,0,0-.8.85v18.71c0,3-.66,3.95-2.29,4.25a14.86,14.86,0,0,1-2.61.14c-.54,0-.81.22-.81.67v1.93a.78.78,0,0,0,.76.76c.53.07,1.52.09,1.66.09,5.6,0,7.13-2.65,7.13-7.49V136a.8.8,0,0,0-.76-.85" transform="translate(0 0)"/><path class="cls-3" d="M212.37,135.19h-2.28a.79.79,0,0,0-.8.85v18.71c0,3-.66,3.95-2.29,4.25a14.86,14.86,0,0,1-2.61.14c-.54,0-.81.22-.81.67v1.93a.78.78,0,0,0,.76.76c.53.07,1.51.09,1.66.09,5.6,0,7.13-2.65,7.13-7.49V136a.8.8,0,0,0-.76-.85" transform="translate(0 0)"/><path class="cls-3" d="M263.66,153.27V140.11a6.16,6.16,0,0,0-6.13-6.13h-5.16a6.18,6.18,0,0,0-6.11,6.13v6.7a6.17,6.17,0,0,0,6.11,6.11h7.43v1c0,4.74-3.81,5.19-7.8,5.19l-3.76,0c-.48,0-.72.21-.72.62v1.95c0,.35.09.61.72.71,1.2.19,4.32.22,4.62.22,5.38,0,10.8-1.34,10.8-9.32M259.8,149h-7.52a2.22,2.22,0,0,1-2.16-2.16v-6.7a2.19,2.19,0,0,1,2.16-2.18h5.32a2.22,2.22,0,0,1,2.2,2.18Z" transform="translate(0 0)"/><path class="cls-3" d="M200.49,147.79v-7.68a6.16,6.16,0,0,0-6.13-6.13H189.2a6.12,6.12,0,0,0-4.3,1.8,6.18,6.18,0,0,0-1.81,4.33v6.7a6.18,6.18,0,0,0,6.11,6.11h6.17a5.13,5.13,0,0,0,5.12-5.13M189.13,149a2.23,2.23,0,0,1-1.62-.76,2,2,0,0,1-.54-1.4v-6.7a2.19,2.19,0,0,1,2.16-2.18h5.3a2.22,2.22,0,0,1,2.21,2.18V147a2,2,0,0,1-2,2Z" transform="translate(0 0)"/><path class="cls-3" d="M79.5,128.71a2.35,2.35,0,1,1-2.34-2.33,2.33,2.33,0,0,1,2.34,2.33" transform="translate(0 0)"/><path class="cls-3" d="M72.89,128.71a2.35,2.35,0,1,1-2.34-2.33,2.33,2.33,0,0,1,2.34,2.33" transform="translate(0 0)"/><path class="cls-3" d="M197.44,128.71a2.35,2.35,0,1,1-2.34-2.33,2.33,2.33,0,0,1,2.34,2.33" transform="translate(0 0)"/><path class="cls-3" d="M190.83,128.71a2.35,2.35,0,1,1-2.34-2.33,2.33,2.33,0,0,1,2.34,2.33" transform="translate(0 0)"/><path class="cls-3" d="M238.62,128.71a2.35,2.35,0,1,1-2.34-2.33,2.33,2.33,0,0,1,2.34,2.33" transform="translate(0 0)"/></g><g class="cls-4"><rect class="cls-5" width="300.94" height="108.39"/></g><rect class="cls-6" x="160.62" y="90.36" width="2.02" height="2.02" transform="matrix(0.59, -0.81, 0.81, 0.59, -7.29, 168.43)"/><rect class="cls-6" x="161.11" y="55.9" width="3.27" height="3.27" transform="translate(3.88 125.06) rotate(-42.5)"/><rect class="cls-6" x="154.13" y="73.3" width="2.8" height="2.8" transform="translate(-3.53 141.57) rotate(-48.46)"/><rect class="cls-6" x="158.98" y="80.03" width="2.45" height="2.45" transform="translate(0.3 163.1) rotate(-54)"/><rect class="cls-6" x="156.13" y="65.4" width="3.02" height="3.02" transform="translate(-0.58 132.44) rotate(-45.5)"/><rect class="cls-6" x="156.16" y="86.7" width="2.22" height="2.22" transform="translate(0.26 176.09) rotate(-58.52)"/><rect class="cls-6" x="149.54" y="58.92" width="3.27" height="3.27" transform="translate(9.63 141.07) rotate(-51.46)"/><rect class="cls-6" x="146.3" y="41.39" width="3.81" height="3.81" transform="translate(26.84 138.74) rotate(-54.46)"/><rect class="cls-6" x="136.34" y="90.53" width="2.45" height="2.45" transform="translate(25.46 213.31) rotate(-81.02)"/><rect class="cls-6" x="146.51" y="104.38" width="1.67" height="1.67" transform="matrix(0.16, -0.99, 0.99, 0.16, 20.37, 234.28)"/><polygon class="cls-6" points="168.79 80.38 167.94 79.53 167.91 79.55 167.88 79.53 167.06 80.41 166.22 81.25 166.24 81.28 166.22 81.31 167.09 82.14 167.94 82.99 167.97 82.96 168 82.98 168.82 82.11 169.67 81.25 169.65 81.22 169.67 81.2 168.79 80.38"/><rect class="cls-6" x="163.56" y="85.53" width="2.22" height="2.22" transform="translate(-8.18 155.54) rotate(-49.48)"/><rect class="cls-6" x="136.31" y="96.82" width="2.22" height="2.22" transform="translate(28.98 227.22) rotate(-85.49)"/><rect class="cls-6" x="163.39" y="72.43" width="2.8" height="2.8" transform="translate(-3.71 138.75) rotate(-45.2)"/><rect class="cls-6" x="141.75" y="52.68" width="3.53" height="3.53" transform="translate(20.43 146.15) rotate(-57.46)"/><rect class="cls-6" x="158.94" y="105.59" width="1.38" height="1.38" transform="translate(-4.02 206.26) rotate(-65.08)"/><rect class="cls-6" x="158.29" y="94.95" width="1.84" height="1.84" transform="translate(-5.72 181.52) rotate(-58.5)"/><rect class="cls-6" x="146.89" y="99.67" width="1.84" height="1.84" transform="translate(15.58 220.93) rotate(-76.54)"/><rect class="cls-6" x="160.29" y="101.95" width="1.52" height="1.52" transform="matrix(0.49, -0.87, 0.87, 0.49, -7.54, 192.51)"/><rect class="cls-6" x="162.08" y="98.09" width="1.67" height="1.67" transform="translate(-10.07 178.95) rotate(-56.09)"/><rect class="cls-6" x="164.36" y="94.01" width="1.84" height="1.84" transform="translate(-11.82 165.39) rotate(-51.57)"/><rect class="cls-6" x="163.09" y="104.26" width="1.38" height="1.38" transform="translate(-17.38 175.8) rotate(-54.01)"/><rect class="cls-6" x="156.5" y="99.28" width="1.67" height="1.67" transform="translate(-3.3 194.86) rotate(-63)"/><rect class="cls-6" x="155.18" y="103.35" width="1.52" height="1.52" transform="translate(0.08 208.32) rotate(-67.49)"/><polygon class="cls-6" points="152.3 105.87 150.83 105.51 150.47 106.99 151.95 107.34 152.3 105.87"/><rect class="cls-6" x="147.71" y="94.55" width="2.02" height="2.02" transform="matrix(0.31, -0.95, 0.95, 0.31, 11.92, 207.53)"/><rect class="cls-6" x="149.04" y="89.02" width="2.22" height="2.22" transform="translate(9.45 194.4) rotate(-67.51)"/><rect class="cls-6" x="154" y="91.95" width="2.02" height="2.02" transform="translate(1.83 188.9) rotate(-63.01)"/><rect class="cls-6" x="151.3" y="101.44" width="1.67" height="1.67" transform="translate(7.87 215.38) rotate(-72.01)"/><rect class="cls-6" x="165.1" y="100.97" width="1.52" height="1.52" transform="translate(-19.22 161.74) rotate(-49.49)"/><rect class="cls-6" x="210.98" y="95.37" width="2.69" height="2.69" transform="translate(99.3 300.83) rotate(-85.52)"/><rect class="cls-6" x="226.36" y="96.08" width="3.25" height="3.26" transform="translate(79.75 296.59) rotate(-76.5)"/><rect class="cls-6" x="209.66" y="102.14" width="2.45" height="2.45" transform="translate(75.71 295.42) rotate(-80.97)"/><rect class="cls-6" x="228.8" y="87.25" width="3.58" height="3.58" transform="translate(106.55 302.85) rotate(-80.99)"/><rect class="cls-6" x="203.59" y="102.11" width="2.22" height="2.22" transform="matrix(0.08, -1, 1, 0.08, 85.82, 299.25)"/><rect class="cls-6" x="136.73" y="102.53" width="2.02" height="2.02"/><rect class="cls-6" x="204.31" y="95.88" width="2.45" height="2.45"/><rect class="cls-6" x="218.32" y="95.41" width="2.96" height="2.96" transform="translate(89.7 298.81) rotate(-80.99)"/><rect class="cls-6" x="223.53" y="103.9" width="2.96" height="2.96" transform="translate(55.28 286.84) rotate(-72.01)"/><rect class="cls-6" x="235.1" y="97.54" width="3.58" height="3.58" transform="translate(69.2 293.91) rotate(-71.99)"/><rect class="cls-6" x="238.53" y="88.08" width="3.94" height="3.94" transform="translate(96.82 302.89) rotate(-76.51)"/><rect class="cls-6" x="204.57" y="88.97" width="2.69" height="2.69" transform="translate(-6.43 16.38) rotate(-4.49)"/><rect class="cls-6" x="216.3" y="102.7" width="2.69" height="2.69" transform="translate(65.7 291.42) rotate(-76.51)"/><rect class="cls-6" x="219.91" y="87.21" width="3.26" height="3.26" transform="translate(115.65 302.76) rotate(-85.52)"/><rect class="cls-6" x="211.85" y="87.83" width="2.96" height="2.96"/><rect class="cls-6" x="141.91" y="98.11" width="2.02" height="2.02" transform="translate(22.65 224.77) rotate(-81)"/><rect class="cls-6" x="167.21" y="89.74" width="2.02" height="2.02" transform="translate(-12.74 152.29) rotate(-47.13)"/><rect class="cls-6" x="167.73" y="103.9" width="1.38" height="1.38" transform="translate(-24.63 149.71) rotate(-45)"/><rect class="cls-6" x="142.37" y="92.42" width="2.22" height="2.22" transform="translate(19.1 211.27) rotate(-76.53)"/><rect class="cls-6" x="143.36" y="86.22" width="2.45" height="2.45" transform="translate(16.79 197.99) rotate(-72.03)"/><rect class="cls-6" x="141.88" y="103.31" width="1.84" height="1.84" transform="translate(27.63 238.36) rotate(-85.47)"/><rect class="cls-6" x="167.58" y="97.53" width="1.67" height="1.67" transform="translate(-20.26 147.76) rotate(-44.96)"/><rect class="cls-6" x="191.02" y="86.22" width="2.45" height="2.45" transform="translate(-17.6 63.59) rotate(-17.97)"/><rect class="cls-6" x="192.9" y="98.11" width="2.02" height="2.02" transform="translate(-13.12 31.56) rotate(-9)"/><rect class="cls-6" x="198.3" y="96.82" width="2.22" height="2.22" transform="translate(-7.09 16) rotate(-4.52)"/><rect class="cls-6" x="198.08" y="102.53" width="2.02" height="2.02"/><rect class="cls-6" x="198.05" y="90.53" width="2.45" height="2.45" transform="translate(-11.93 32.4) rotate(-9.03)"/><rect class="cls-6" x="192.24" y="92.42" width="2.22" height="2.22" transform="translate(-16.51 47.78) rotate(-13.52)"/><rect class="cls-6" x="193.11" y="103.31" width="1.84" height="1.84" transform="translate(-7.62 15.63) rotate(-4.52)"/><rect class="cls-6" x="152.4" y="96.86" width="1.84" height="1.84" transform="translate(4.28 201.97) rotate(-67.48)"/><rect class="cls-6" x="131.02" y="102.12" width="2.22" height="2.22" transform="translate(-7.65 10.62) rotate(-4.47)"/><rect class="cls-6" x="129.57" y="88.97" width="2.69" height="2.69" transform="translate(30.64 213.77) rotate(-85.52)"/><rect class="cls-6" x="123.16" y="95.37" width="2.69" height="2.69" transform="translate(-7.18 10.03) rotate(-4.49)"/><rect class="cls-6" x="130.08" y="95.88" width="2.45" height="2.45"/><rect class="cls-6" x="107.22" y="96.09" width="3.26" height="3.25" transform="translate(-19.81 28.13) rotate(-13.51)"/><rect class="cls-6" x="122.02" y="87.83" width="2.96" height="2.96"/><rect class="cls-6" x="124.73" y="102.14" width="2.45" height="2.45" transform="translate(-14.6 20.94) rotate(-8.99)"/><rect class="cls-6" x="154.36" y="48.54" width="3.53" height="3.53" transform="translate(14.93 133.79) rotate(-48.45)"/><rect class="cls-6" x="179.95" y="48.54" width="3.53" height="3.53" transform="translate(12.32 133.11) rotate(-41.53)"/><rect class="cls-6" x="188.65" y="104.38" width="1.67" height="1.67" transform="translate(-14.06 30.75) rotate(-8.95)"/><rect class="cls-6" x="167.86" y="64.65" width="3.02" height="3.02" transform="translate(5.33 144.61) rotate(-46.9)"/><rect class="cls-6" x="136.85" y="34.59" width="4.11" height="4.11" transform="translate(38.54 139.43) rotate(-60.46)"/><rect class="cls-6" x="104.45" y="87.25" width="3.58" height="3.58" transform="translate(-12.62 17.72) rotate(-9)"/><rect class="cls-6" x="132.69" y="46.85" width="3.81" height="3.81" transform="translate(30.83 147.38) rotate(-63.46)"/><rect class="cls-6" x="188.1" y="99.67" width="1.84" height="1.84" transform="translate(-18.22 46.77) rotate(-13.46)"/><polygon class="cls-6" points="161.26 108.23 161.52 108.39 162.64 108.39 162.99 107.82 161.92 107.16 161.26 108.23"/><rect class="cls-6" x="83.39" y="89.83" width="4.33" height="4.33" transform="translate(-24.23 30.92) rotate(-17.99)"/><polygon class="cls-6" points="154.09 108.26 154.48 108.39 155.5 108.39 155.83 107.38 154.52 106.95 154.09 108.26"/><polygon class="cls-6" points="173.84 107.82 174.19 108.39 175.31 108.39 175.57 108.23 174.91 107.16 173.84 107.82"/><polygon class="cls-6" points="181 107.37 181.33 108.39 182.34 108.39 182.74 108.26 182.31 106.95 181 107.37"/><rect class="cls-6" x="249.11" y="89.83" width="4.33" height="4.33" transform="translate(86.16 302.57) rotate(-72.01)"/><rect class="cls-6" x="244.55" y="99.9" width="3.94" height="3.94" transform="translate(58.02 290.59) rotate(-67.49)"/><rect class="cls-6" x="113.66" y="87.22" width="3.26" height="3.26" transform="translate(-6.6 9.29) rotate(-4.49)"/><rect class="cls-6" x="88.34" y="99.9" width="3.94" height="3.94" transform="translate(-32.12 42.34) rotate(-22.51)"/><rect class="cls-6" x="115.55" y="95.4" width="2.96" height="2.96" transform="translate(-13.72 19.5) rotate(-9)"/><rect class="cls-6" x="110.34" y="103.9" width="2.96" height="2.96" transform="translate(-27.08 39.69) rotate(-17.99)"/><rect class="cls-6" x="117.84" y="102.7" width="2.69" height="2.69" transform="matrix(0.97, -0.23, 0.23, 0.97, -21.03, 30.76)"/><rect class="cls-6" x="94.37" y="88.08" width="3.94" height="3.94" transform="translate(-18.35 24.96) rotate(-13.49)"/><rect class="cls-6" x="98.15" y="97.54" width="3.58" height="3.58" transform="translate(-25.81 35.76) rotate(-18.01)"/><rect class="cls-6" x="201.34" y="46.85" width="3.81" height="3.81" transform="translate(-0.37 95.95) rotate(-26.54)"/><rect class="cls-6" x="180.62" y="73.3" width="2.8" height="2.8" transform="translate(-3.78 139.43) rotate(-41.52)"/><rect class="cls-6" x="185.03" y="58.92" width="3.27" height="3.27" transform="translate(2.93 129.48) rotate(-38.54)"/><rect class="cls-6" x="178.69" y="65.4" width="3.02" height="3.02" transform="translate(4.81 145.57) rotate(-44.53)"/><rect class="cls-6" x="174.19" y="90.36" width="2.02" height="2.02" transform="translate(-20.25 120.42) rotate(-36)"/><rect class="cls-6" x="187.73" y="41.39" width="3.81" height="3.81" transform="translate(10.18 118.34) rotate(-35.56)"/><rect class="cls-6" x="176.7" y="94.95" width="1.84" height="1.84" transform="translate(-23.92 106.95) rotate(-31.5)"/><rect class="cls-6" x="175.32" y="79.96" width="2.59" height="2.59" transform="translate(-9.08 138.83) rotate(-41.93)"/><rect class="cls-6" x="192.56" y="52.68" width="3.53" height="3.53" transform="translate(1.22 113.06) rotate(-32.53)"/><rect class="cls-6" x="170.59" y="93.98" width="1.84" height="1.84" transform="translate(-20.53 134.16) rotate(-40.51)"/><rect class="cls-6" x="170.21" y="100.97" width="1.52" height="1.52" transform="translate(-25.09 135.46) rotate(-40.51)"/><rect class="cls-6" x="169.9" y="106.74" width="1.25" height="1.25" transform="translate(-28.87 136.45) rotate(-40.49)"/><rect class="cls-6" x="196.88" y="34.59" width="4.11" height="4.11" transform="translate(7.79 102.84) rotate(-29.54)"/><rect class="cls-6" x="178.44" y="86.7" width="2.22" height="2.22" transform="translate(-19.43 106.69) rotate(-31.48)"/><rect class="cls-6" x="165.67" y="106.74" width="1.26" height="1.26" transform="translate(-23.39 163.94) rotate(-49.45)"/><rect class="cls-6" x="185.57" y="89.02" width="2.22" height="2.22" transform="translate(-20.28 78.25) rotate(-22.49)"/><rect class="cls-6" x="182.59" y="96.86" width="1.84" height="1.84" transform="translate(-23.46 77.74) rotate(-22.52)"/><rect class="cls-6" x="180.81" y="91.95" width="2.02" height="2.02" transform="translate(-22.39 92.64) rotate(-26.99)"/><rect class="cls-6" x="173.46" y="55.9" width="3.27" height="3.27" transform="translate(14.42 147.83) rotate(-47.52)"/><rect class="cls-6" x="180.13" y="103.35" width="1.52" height="1.52" transform="translate(-26.09 77.27) rotate(-22.54)"/><rect class="cls-6" x="187.1" y="94.55" width="2.02" height="2.02" transform="translate(-20.34 62.89) rotate(-18.02)"/><polygon class="cls-6" points="185.75 102.81 185.23 101.22 183.64 101.74 184.16 103.33 185.75 102.81"/><rect class="cls-6" x="184.69" y="105.67" width="1.52" height="1.52" transform="translate(-19.69 46.13) rotate(-13.47)"/><rect class="cls-6" x="178.66" y="99.28" width="1.67" height="1.67" transform="translate(-25.89 92.4) rotate(-27)"/><rect class="cls-6" x="172.36" y="104.26" width="1.38" height="1.38" transform="translate(-28.64 121.74) rotate(-35.99)"/><rect class="cls-6" x="176.88" y="105.35" width="1.38" height="1.38" transform="translate(-28.78 92.03) rotate(-26.96)"/><rect class="cls-6" x="171.65" y="72.43" width="2.8" height="2.8" transform="translate(6.06 160.5) rotate(-50.53)"/><rect class="cls-6" x="170.7" y="85.32" width="2.22" height="2.22" transform="translate(-13.15 139.15) rotate(-42.61)"/><rect class="cls-6" x="175.26" y="101.77" width="1.52" height="1.52" transform="translate(-27.63 107.25) rotate(-31.55)"/><rect class="cls-6" x="173.19" y="97.97" width="1.67" height="1.67" transform="translate(-24.86 121.02) rotate(-35.96)"/></g></g></svg>