<svg xmlns="http://www.w3.org/2000/svg" width="66.791" height="43.175" viewBox="0 0 66.791 43.175">
    <defs>
        <style>
            .cls-1{fill:none}.cls-2{clip-path:url(#clip-path)}.cls-3{fill:#7f7f7f}.cls-4{clip-path:url(#clip-path-2)}.cls-5{fill:url(#linear-gradient)}.cls-6{fill:#fff}
        </style>
        <clipPath id="clip-path">
            <path id="Rectangle_154" d="M0 0h66.791v43.175H0z" class="cls-1" data-name="Rectangle 154" transform="translate(61.563 3004.814)"/>
        </clipPath>
        <clipPath id="clip-path-2">
            <path id="Path_374" d="M99 3017.5a20.436 20.436 0 0 0-7.111-6.6l-2.4 4.646a15.174 15.174 0 0 1 6.771 8.1H79.031V3011.7h-8.895a8.585 8.585 0 0 0 0 17.169v-5.214a3.356 3.356 0 0 1 0-6.713h3.674v11.926h44.29a10.251 10.251 0 0 0 1.6-20.376v5.356a5.024 5.024 0 0 1-1.6 9.791h-16.363A15.132 15.132 0 0 1 116 3013.551h.028v-5.217H116a20.317 20.317 0 0 0-17 9.166m-32.037-7.47h5.217v-5.216h-5.212zm6.846 0h5.217v-5.216h-5.212z" class="cls-1" data-name="Path 374"/>
        </clipPath>
        <linearGradient id="linear-gradient" x1="61.649" x2="61.654" y1="-47.56" y2="-47.56" gradientUnits="objectBoundingBox">
            <stop offset="0" stop-color="#80a661"/>
            <stop offset="1" stop-color="#5e98ca"/>
        </linearGradient>
    </defs>
    <g id="Group_101" data-name="Group 101" transform="translate(-61.563 -3004.814)">
        <g id="Group_98" data-name="Group 98">
            <g id="Group_97" class="cls-2" data-name="Group 97">
                <path id="Path_344" d="M81.15 3042.7a.331.331 0 1 1-.331-.331.331.331 0 0 1 .331.331" class="cls-3" data-name="Path 344"/>
                <path id="Path_345" d="M86.04 3042.7a.331.331 0 1 1-.33-.331.33.33 0 0 1 .33.331" class="cls-3" data-name="Path 345"/>
                <path id="Path_346" d="M79.745 3046.662a.118.118 0 0 1-.036.085.115.115 0 0 1-.084.036h-.295a.115.115 0 0 1-.084-.036.118.118 0 0 1-.036-.085v-3.61c0-.012 0-.018-.006-.018s-.008 0-.012.012l-.873 1.8a.419.419 0 0 1-.1.134.279.279 0 0 1-.171.042h-.28a.281.281 0 0 1-.171-.042.433.433 0 0 1-.1-.134l-.872-1.8c0-.008-.008-.012-.012-.012s-.006.006-.006.018v3.61a.125.125 0 0 1-.121.121h-.295a.115.115 0 0 1-.084-.036.118.118 0 0 1-.036-.085v-4.224a.176.176 0 0 1 .174-.177h.392a.267.267 0 0 1 .125.022.178.178 0 0 1 .07.082l1.007 2.088c.02.044.045.066.073.066s.053-.022.073-.066l1.007-2.088a.178.178 0 0 1 .07-.082.267.267 0 0 1 .125-.022h.392a.176.176 0 0 1 .174.177z" class="cls-3" data-name="Path 346"/>
                <path id="Path_347" d="M81.084 3046.662a.118.118 0 0 1-.036.085.12.12 0 0 1-.086.036h-.292a.123.123 0 0 1-.121-.121v-3.1a.116.116 0 0 1 .036-.085.115.115 0 0 1 .085-.037h.292a.124.124 0 0 1 .122.122z" class="cls-3" data-name="Path 347"/>
                <path id="Path_348" d="M84.547 3046.662a.118.118 0 0 1-.036.085.119.119 0 0 1-.085.036h-.293a.125.125 0 0 1-.121-.121v-2a1.556 1.556 0 0 0-.04-.386.569.569 0 0 0-.122-.246.447.447 0 0 0-.21-.131 1.025 1.025 0 0 0-.3-.039 1.3 1.3 0 0 0-.4.067 3.131 3.131 0 0 0-.419.17v2.563a.125.125 0 0 1-.122.121h-.3a.11.11 0 0 1-.083-.036.123.123 0 0 1-.033-.085v-3.1a.122.122 0 0 1 .033-.085.108.108 0 0 1 .083-.037h.3a.106.106 0 0 1 .082.037.12.12 0 0 1 .034.086v.118a2.786 2.786 0 0 1 .474-.213 1.606 1.606 0 0 1 .494-.071.955.955 0 0 1 .806.329 1.514 1.514 0 0 1 .252.937z" class="cls-3" data-name="Path 348"/>
                <path id="Path_349" d="M85.978 3046.662a.119.119 0 0 1-.037.085.116.116 0 0 1-.085.036h-.292a.125.125 0 0 1-.122-.121v-3.1a.126.126 0 0 1 .122-.122h.292a.113.113 0 0 1 .085.037.117.117 0 0 1 .037.085z" class="cls-3" data-name="Path 349"/>
                <path id="Path_350" d="M89 3045.943a.891.891 0 0 1-.082.4.724.724 0 0 1-.231.274 1.023 1.023 0 0 1-.359.158 1.913 1.913 0 0 1-.466.052h-.2c-.079 0-.162-.007-.249-.015s-.176-.018-.265-.028a1.626 1.626 0 0 1-.243-.045c-.086-.02-.128-.061-.128-.122v-.213a.082.082 0 0 1 .03-.067.123.123 0 0 1 .079-.024h.014l.24.024c.087.008.176.015.265.021l.25.016c.078.004.143.006.2.006a.891.891 0 0 0 .451-.092.363.363 0 0 0 .152-.341.344.344 0 0 0-.1-.243 1.829 1.829 0 0 0-.359-.262l-.614-.365a1.788 1.788 0 0 1-.451-.374.747.747 0 0 1-.17-.5.81.81 0 0 1 .085-.393.682.682 0 0 1 .231-.249.943.943 0 0 1 .347-.131 2.4 2.4 0 0 1 .438-.037 5.462 5.462 0 0 1 .954.08c.077.011.116.052.116.121v.2a.092.092 0 0 1-.1.1h-.018c-.106-.009-.247-.019-.423-.031s-.35-.018-.521-.018a1.172 1.172 0 0 0-.411.06.279.279 0 0 0-.155.293.324.324 0 0 0 .1.24 1.614 1.614 0 0 0 .316.222l.6.359a1.653 1.653 0 0 1 .523.439.832.832 0 0 1 .146.48" class="cls-3" data-name="Path 350"/>
                <path id="Path_351" d="M91.261 3046.691c0 .057-.037.092-.11.1s-.128.016-.2.022-.138.009-.194.009a1.8 1.8 0 0 1-.369-.033.533.533 0 0 1-.255-.126.563.563 0 0 1-.153-.249 1.353 1.353 0 0 1-.051-.408v-2.123l-.591-.068c-.077-.008-.115-.044-.115-.109v-.165c0-.072.038-.109.115-.109h.591v-.6a.114.114 0 0 1 .109-.121l.317-.049h.018a.088.088 0 0 1 .064.027.1.1 0 0 1 .027.077v.663h.658a.124.124 0 0 1 .121.122v.206a.124.124 0 0 1-.121.123h-.658v2.12a.459.459 0 0 0 .073.316.384.384 0 0 0 .256.067h.341c.085 0 .128.029.128.086z" class="cls-3" data-name="Path 351"/>
                <path id="Path_352" d="M93.33 3043.757c0 .07-.043.1-.128.1a1.449 1.449 0 0 0-.411.058 1.823 1.823 0 0 0-.429.2v2.545a.113.113 0 0 1-.037.085.115.115 0 0 1-.084.036h-.3a.108.108 0 0 1-.082-.036.125.125 0 0 1-.033-.085v-3.1a.121.121 0 0 1 .033-.085.106.106 0 0 1 .082-.037h.286a.1.1 0 0 1 .082.037.127.127 0 0 1 .034.086v.13a1.7 1.7 0 0 1 .441-.228 1.36 1.36 0 0 1 .417-.068c.085 0 .128.038.128.111z" class="cls-3" data-name="Path 352"/>
                <path id="Path_353" d="M96.507 3043.539a.105.105 0 0 1-.006.043l-1 3.5a2.688 2.688 0 0 1-.155.421.762.762 0 0 1-.517.432 1.733 1.733 0 0 1-.441.049 2.613 2.613 0 0 1-.271-.016 1.658 1.658 0 0 1-.24-.04.379.379 0 0 1-.091-.029.069.069 0 0 1-.037-.068v-.225c0-.065.038-.1.115-.1h.018a6.644 6.644 0 0 0 .542.036 1.085 1.085 0 0 0 .226-.021.4.4 0 0 0 .167-.079.519.519 0 0 0 .122-.158 1.2 1.2 0 0 0 .088-.259l.061-.25H95a.694.694 0 0 1-.13-.012.3.3 0 0 1-.122-.054.429.429 0 0 1-.107-.128 1.187 1.187 0 0 1-.091-.226l-.809-2.781a.088.088 0 0 1-.007-.043c0-.069.037-.1.11-.1h.335a.084.084 0 0 1 .064.03.2.2 0 0 1 .039.067l.718 2.642a.2.2 0 0 0 .056.112.1.1 0 0 0 .06.021h.1l.742-2.781a.148.148 0 0 1 .043-.064.105.105 0 0 1 .073-.027h.341c.064 0 .1.034.1.1" class="cls-3" data-name="Path 353"/>
                <path id="Path_354" d="M100.378 3045.341a2.074 2.074 0 0 1-.085.609 1.277 1.277 0 0 1-.256.468 1.154 1.154 0 0 1-.426.3 1.522 1.522 0 0 1-.59.106 1.492 1.492 0 0 1-.587-.106 1.155 1.155 0 0 1-.424-.3 1.275 1.275 0 0 1-.255-.468 2.041 2.041 0 0 1-.085-.609v-.463a2.03 2.03 0 0 1 .085-.608 1.271 1.271 0 0 1 .255-.469 1.141 1.141 0 0 1 .424-.3 1.492 1.492 0 0 1 .587-.107 1.521 1.521 0 0 1 .59.107 1.141 1.141 0 0 1 .426.3 1.273 1.273 0 0 1 .256.469 2.062 2.062 0 0 1 .085.608zm-.536-.463a1.263 1.263 0 0 0-.194-.742.852.852 0 0 0-1.248 0 1.258 1.258 0 0 0-.195.746v.463a1.271 1.271 0 0 0 .192.742.707.707 0 0 0 .624.274.718.718 0 0 0 .623-.27 1.244 1.244 0 0 0 .2-.746z" class="cls-3" data-name="Path 354"/>
                <path id="Path_355" d="M102.575 3042.486c0 .061-.036.092-.109.092h-.293a.391.391 0 0 0-.292.085.507.507 0 0 0-.079.335v.438h.639a.117.117 0 0 1 .082.03.1.1 0 0 1 .034.079v.238c0 .069-.039.1-.116.1h-.641v2.775a.124.124 0 0 1-.033.086.11.11 0 0 1-.083.036h-.3a.123.123 0 0 1-.121-.122v-2.775l-.591-.067c-.077-.008-.116-.044-.116-.109v-.165a.1.1 0 0 1 .034-.079.117.117 0 0 1 .082-.03h.591V3043a1.252 1.252 0 0 1 .057-.408.611.611 0 0 1 .168-.262.63.63 0 0 1 .267-.137 1.522 1.522 0 0 1 .36-.039 1.389 1.389 0 0 1 .2.012c.052.008.1.016.139.024.077.021.116.053.116.1z" class="cls-3" data-name="Path 355"/>
                <path id="Path_356" d="M107.012 3046.662a.118.118 0 0 1-.036.085.12.12 0 0 1-.086.036h-.31a.125.125 0 0 1-.122-.121v-2.015h-2.082v2.015a.114.114 0 0 1-.036.085.117.117 0 0 1-.085.036h-.311a.119.119 0 0 1-.085-.036.118.118 0 0 1-.036-.085v-4.279a.119.119 0 0 1 .036-.086.123.123 0 0 1 .085-.036h.311a.121.121 0 0 1 .085.036.115.115 0 0 1 .036.086v1.765h2.082v-1.765a.116.116 0 0 1 .037-.086.119.119 0 0 1 .085-.036h.31a.123.123 0 0 1 .086.036.119.119 0 0 1 .036.086z" class="cls-3" data-name="Path 356"/>
                <path id="Path_357" d="M110.323 3045.146c0 .089-.039.134-.115.134h-2.034v.085a1.11 1.11 0 0 0 .213.767.833.833 0 0 0 .633.225q.269 0 .57-.018c.2-.012.372-.028.514-.049h.03a.118.118 0 0 1 .067.019.072.072 0 0 1 .031.067v.207a.161.161 0 0 1-.025.094.148.148 0 0 1-.1.046 6.854 6.854 0 0 1-.52.075 5.306 5.306 0 0 1-.57.028 1.874 1.874 0 0 1-.511-.07 1.141 1.141 0 0 1-.441-.237 1.206 1.206 0 0 1-.31-.448 1.822 1.822 0 0 1-.119-.706v-.547a1.492 1.492 0 0 1 .346-1.041 1.279 1.279 0 0 1 1-.384 1.556 1.556 0 0 1 .583.1 1.092 1.092 0 0 1 .416.286 1.235 1.235 0 0 1 .252.45 1.912 1.912 0 0 1 .085.588zm-.536-.328a1.1 1.1 0 0 0-.2-.737.921.921 0 0 0-1.206.012 1.061 1.061 0 0 0-.21.725v.054h1.613z" class="cls-3" data-name="Path 357"/>
                <path id="Path_358" d="M113.238 3046.661a.118.118 0 0 1-.036.086.12.12 0 0 1-.086.036h-.279a.123.123 0 0 1-.122-.122v-.133a2.841 2.841 0 0 1-.451.213 1.385 1.385 0 0 1-.486.085 1.493 1.493 0 0 1-.375-.046.771.771 0 0 1-.316-.161.8.8 0 0 1-.219-.3 1.194 1.194 0 0 1-.082-.475v-.073a1.138 1.138 0 0 1 .075-.429.708.708 0 0 1 .25-.31 1.2 1.2 0 0 1 .453-.186 3.272 3.272 0 0 1 .688-.061h.451v-.243a.771.771 0 0 0-.146-.536.683.683 0 0 0-.506-.152c-.2 0-.373 0-.523.015s-.286.021-.408.034h-.03a.153.153 0 0 1-.076-.019c-.023-.012-.034-.038-.034-.079v-.213c0-.065.043-.1.128-.116q.189-.03.411-.054a4.752 4.752 0 0 1 .532-.025 1.179 1.179 0 0 1 .91.3 1.2 1.2 0 0 1 .277.84zm-.535-1.5h-.451a2.624 2.624 0 0 0-.456.034.757.757 0 0 0-.286.1.378.378 0 0 0-.146.183.772.772 0 0 0-.043.277v.073a.535.535 0 0 0 .146.441.665.665 0 0 0 .414.113 1.348 1.348 0 0 0 .408-.061 2.264 2.264 0 0 0 .414-.183z" class="cls-3" data-name="Path 358"/>
                <path id="Path_359" d="M114.51 3046.662a.13.13 0 0 1-.03.085.1.1 0 0 1-.079.036h-.317a.1.1 0 0 1-.079-.036.13.13 0 0 1-.03-.085v-4.34a.119.119 0 0 1 .03-.082.1.1 0 0 1 .079-.034h.317a.1.1 0 0 1 .079.034.119.119 0 0 1 .03.082z" class="cls-3" data-name="Path 359"/>
                <path id="Path_360" d="M117.024 3046.691c0 .057-.037.092-.11.1s-.128.016-.2.022-.137.009-.194.009a1.806 1.806 0 0 1-.369-.033.538.538 0 0 1-.255-.126.553.553 0 0 1-.152-.249 1.319 1.319 0 0 1-.052-.408v-2.123l-.59-.068c-.078-.008-.116-.044-.116-.109v-.165c0-.072.038-.109.116-.109h.59v-.6a.114.114 0 0 1 .11-.121l.316-.049h.018a.087.087 0 0 1 .064.027.1.1 0 0 1 .027.077v.663h.658a.116.116 0 0 1 .085.037.112.112 0 0 1 .036.085v.206a.116.116 0 0 1-.036.086.12.12 0 0 1-.085.037h-.658v2.12a.459.459 0 0 0 .073.316.386.386 0 0 0 .256.067h.341c.085 0 .128.029.128.086z" class="cls-3" data-name="Path 360"/>
                <path id="Path_361" d="M120 3046.662a.118.118 0 0 1-.036.085.12.12 0 0 1-.086.036h-.292a.123.123 0 0 1-.121-.121v-2a.868.868 0 0 0-.177-.627.657.657 0 0 0-.474-.17q-.075 0-.174.009t-.216.03a3.03 3.03 0 0 0-.234.055 1.644 1.644 0 0 0-.217.076v2.63a.123.123 0 0 1-.122.121h-.3a.109.109 0 0 1-.082-.036.123.123 0 0 1-.033-.085v-4.334a.123.123 0 0 1 .033-.085.11.11 0 0 1 .082-.037h.305a.109.109 0 0 1 .082.037.123.123 0 0 1 .033.085v1.254a2.036 2.036 0 0 1 .478-.143 2.706 2.706 0 0 1 .454-.046 1.283 1.283 0 0 1 .444.073.9.9 0 0 1 .347.226 1.02 1.02 0 0 1 .225.392 1.876 1.876 0 0 1 .079.575z" class="cls-3" data-name="Path 361"/>
                <path id="Path_362" d="M96.381 3032.109a.188.188 0 0 0-.05-.134.167.167 0 0 0-.129-.055h-.488a.188.188 0 0 0-.189.189v5.308c0 .337.028.459-.438.459h-1.319a.5.5 0 0 1-.358-.167.452.452 0 0 1-.121-.313v-1.487a1.367 1.367 0 0 0-1.361-1.36h-2.252a1.408 1.408 0 0 0-.937.366v-.21a.156.156 0 0 0-.157-.156h-.544a.155.155 0 0 0-.156.156v3.171h-2.065v-.367a3.012 3.012 0 0 0-.849-2.1 3.487 3.487 0 0 0-2.673-.7.063.063 0 0 0-.058.064v.749a.074.074 0 0 0 .082.075 2.84 2.84 0 0 1 2.013.448 2.108 2.108 0 0 1 .62 1.444v.388h-5.1a1.1 1.1 0 0 0 .037-.283v-1.684a1.367 1.367 0 0 0-1.36-1.36h-1.15a1.367 1.367 0 0 0-1.356 1.36v1.488a1.369 1.369 0 0 0 1.356 1.356h14.772a1.134 1.134 0 0 0 .771-.3 1.345 1.345 0 0 0 .846.3H96a.392.392 0 0 0 .379-.407zm-17.79 5.767h-1.234a.5.5 0 0 1-.358-.167.456.456 0 0 1-.121-.312v-1.488a.488.488 0 0 1 .479-.484h1.182a.5.5 0 0 1 .345.144.481.481 0 0 1 .144.34v1.53a.437.437 0 0 1-.437.437m13.406 0h-2.779a.5.5 0 0 1-.358-.167.452.452 0 0 1-.121-.313v-1.487a.488.488 0 0 1 .479-.484h2.728a.491.491 0 0 1 .344.144.481.481 0 0 1 .144.34v1.546a.437.437 0 0 1-.436.421" class="cls-3" data-name="Path 362"/>
                <path id="Path_363" d="M111.363 3038.693a.212.212 0 0 0 .05-.139v-6.445a.212.212 0 0 0-.05-.139.161.161 0 0 0-.129-.059h-.488a.176.176 0 0 0-.134.059.2.2 0 0 0-.055.139v6.445a.2.2 0 0 0 .055.139.174.174 0 0 0 .134.06h.488a.16.16 0 0 0 .129-.06" class="cls-3" data-name="Path 363"/>
                <path id="Path_364" d="M98.878 3038.693a.213.213 0 0 0 .051-.139v-6.445a.213.213 0 0 0-.051-.139.161.161 0 0 0-.129-.059h-.487a.178.178 0 0 0-.135.059.2.2 0 0 0-.055.139v6.445a.2.2 0 0 0 .055.139.176.176 0 0 0 .135.06h.487a.16.16 0 0 0 .129-.06" class="cls-3" data-name="Path 364"/>
                <path id="Path_365" d="M114.259 3034.817h-.506a.178.178 0 0 0-.179.19v4.151c0 .67-.145.879-.507.945a3.478 3.478 0 0 1-.579.03c-.12 0-.179.05-.179.149v.428a.173.173 0 0 0 .168.169c.118.015.336.02.369.02 1.241 0 1.582-.589 1.582-1.662v-4.23a.179.179 0 0 0-.169-.19" class="cls-3" data-name="Path 365"/>
                <path id="Path_366" d="M108.7 3034.817h-.506a.178.178 0 0 0-.179.19v4.151c0 .67-.145.879-.507.945a3.484 3.484 0 0 1-.58.03c-.119 0-.178.05-.178.149v.428a.173.173 0 0 0 .168.169c.118.015.336.02.369.02 1.242 0 1.582-.589 1.582-1.662v-4.23a.179.179 0 0 0-.169-.19" class="cls-3" data-name="Path 366"/>
                <path id="Path_367" d="M120.08 3038.83v-2.921a1.368 1.368 0 0 0-1.36-1.36h-1.146a1.371 1.371 0 0 0-1.356 1.36v1.487a1.37 1.37 0 0 0 1.356 1.357h1.65v.23c0 1.051-.845 1.15-1.731 1.15-.107 0-.723-.01-.836-.01s-.159.046-.159.138v.432c0 .078.02.135.159.157.267.043.959.049 1.025.049 1.194 0 2.4-.3 2.4-2.069m-.857-.954h-1.668a.493.493 0 0 1-.48-.48v-1.487a.488.488 0 0 1 .48-.484h1.179a.492.492 0 0 1 .489.484z" class="cls-3" data-name="Path 367"/>
                <path id="Path_368" d="M106.06 3037.615v-1.706a1.367 1.367 0 0 0-1.36-1.36h-1.145a1.367 1.367 0 0 0-1.356 1.36v1.487a1.369 1.369 0 0 0 1.356 1.357h1.368a1.138 1.138 0 0 0 1.137-1.138m-2.522.261a.494.494 0 0 1-.358-.168.449.449 0 0 1-.121-.312v-1.487a.488.488 0 0 1 .479-.484h1.178a.489.489 0 0 1 .344.144.482.482 0 0 1 .145.34v1.529a.438.438 0 0 1-.437.438z" class="cls-3" data-name="Path 368"/>
                <path id="Path_369" d="M79.209 3033.379a.521.521 0 1 1-.521-.517.52.52 0 0 1 .521.517" class="cls-3" data-name="Path 369"/>
                <path id="Path_370" d="M77.741 3033.379a.521.521 0 1 1-.52-.517.519.519 0 0 1 .52.517" class="cls-3" data-name="Path 370"/>
                <path id="Path_371" d="M105.384 3033.379a.521.521 0 1 1-.521-.517.519.519 0 0 1 .521.517" class="cls-3" data-name="Path 371"/>
                <path id="Path_372" d="M103.917 3033.379a.521.521 0 1 1-.521-.517.519.519 0 0 1 .521.517" class="cls-3" data-name="Path 372"/>
                <path id="Path_373" d="M114.524 3033.379a.521.521 0 1 1-.521-.517.519.519 0 0 1 .521.517" class="cls-3" data-name="Path 373"/>
            </g>
        </g>
        <g id="Group_100" data-name="Group 100">
            <g id="Group_99" class="cls-4" data-name="Group 99">
                <path id="Rectangle_155" d="M0 0h66.791v24.056H0z" class="cls-5" data-name="Rectangle 155" transform="translate(61.563 3004.814)"/>
            </g>
        </g>
        <path id="Rectangle_156" d="M0 0h.449v.449H0z" class="cls-6" data-name="Rectangle 156" transform="rotate(-53.98 3017.81 1416.83)"/>
        <path id="Rectangle_157" d="M0 0h.725v.725H0z" class="cls-6" data-name="Rectangle 157" transform="rotate(-42.52 3925.586 1383.518)"/>
        <path id="Rectangle_158" d="M0 0h.621v.621H0z" class="cls-6" data-name="Rectangle 158" transform="rotate(-48.45 3407.17 1405.07)"/>
        <path id="Rectangle_159" d="M0 0h.543v.543H0z" class="cls-6" data-name="Rectangle 159" transform="rotate(-53.98 3015.426 1416.087)"/>
        <path id="Rectangle_160" d="M0 0h.671v.671H0z" class="cls-6" data-name="Rectangle 160" transform="rotate(-45.497 3648.848 1395.268)"/>
        <path id="Rectangle_161" d="M0 0h.494v.494H0z" class="cls-6" data-name="Rectangle 161" transform="rotate(-58.52 2747.174 1426.401)"/>
        <path id="Rectangle_162" d="M0 0h.725v.725H0z" class="cls-6" data-name="Rectangle 162" transform="rotate(-51.462 3178.758 1411.003)"/>
        <path id="Rectangle_163" d="M0 0h.845v.845H0z" class="cls-6" data-name="Rectangle 163" transform="rotate(-54.465 2975.657 1416.065)"/>
        <path id="Rectangle_164" d="M0 0h.543v.543H0z" class="cls-6" data-name="Rectangle 164" transform="rotate(-81.03 1816.168 1458.565)"/>
        <path id="Rectangle_165" d="M0 0h.371v.371H0z" class="cls-6" data-name="Rectangle 165" transform="rotate(-81.03 1819.008 1458.695)"/>
        <path id="Path_375" d="M99.026 3022.653l-.189-.189-.007.006-.007-.006-.182.2-.188.188.006.006-.006.007.195.182.189.189.006-.007.007.006.182-.2.189-.189-.006-.007.006-.006z" class="cls-6" data-name="Path 375"/>
        <path id="Rectangle_166" d="M0 0h.494v.493H0z" class="cls-6" data-name="Rectangle 166" transform="rotate(-49.5 3331.683 1405.692)"/>
        <path id="Rectangle_167" d="M0 0h.494v.494H0z" class="cls-6" data-name="Rectangle 167" transform="rotate(-85.486 1683.474 1463.722)"/>
        <path id="Rectangle_168" d="M0 0h.621v.622H0z" class="cls-6" data-name="Rectangle 168" transform="rotate(-45.2 3675.547 1392.474)"/>
        <path id="Rectangle_169" d="M0 0h.783v.783H0z" class="cls-6" data-name="Rectangle 169" transform="rotate(-57.463 2798.192 1423.8)"/>
        <path id="Rectangle_170" d="M0 0h.307v.306H0z" class="cls-6" data-name="Rectangle 170" transform="rotate(-65.1 2420.67 1438.565)"/>
        <path id="Rectangle_171" d="M0 0h.408v.408H0z" class="cls-6" data-name="Rectangle 171" transform="rotate(-58.49 2749.3 1425.982)"/>
        <path id="Rectangle_172" d="M0 0h.408v.408H0z" class="cls-6" data-name="Rectangle 172" transform="rotate(-76.541 1965.698 1453.992)"/>
        <path id="Rectangle_173" d="M0 0h.337v.337H0z" class="cls-6" data-name="Rectangle 173" transform="rotate(-60.6 2639.735 1431.169)"/>
        <path id="Rectangle_174" d="M0 0h.371v.371H0z" class="cls-6" data-name="Rectangle 174" transform="rotate(-56.08 2889.791 1421.476)"/>
        <path id="Rectangle_175" d="M0 0h.408v.408H0z" class="cls-6" data-name="Rectangle 175" transform="rotate(-51.54 3183.077 1411.55)"/>
        <path id="Rectangle_176" d="M0 0h.306v.306H0z" class="cls-6" data-name="Rectangle 176" transform="rotate(-53.98 3021.042 1417.763)"/>
        <path id="Rectangle_177" d="M0 0h.371v.371H0z" class="cls-6" data-name="Rectangle 177" transform="rotate(-63.003 2517.873 1435.043)"/>
        <path id="Rectangle_178" d="M0 0h.337v.337H0z" class="cls-6" data-name="Rectangle 178" transform="rotate(-67.494 2314.102 1442.195)"/>
        <path id="Path_376" d="M95.365 3028.31l-.328-.079-.079.328.328.079z" class="cls-6" data-name="Path 376"/>
        <path id="Rectangle_179" d="M0 0h.449v.448H0z" class="cls-6" data-name="Rectangle 179" transform="rotate(-72 2129.732 1448.325)"/>
        <path id="Rectangle_180" d="M0 0h.494v.493H0z" class="cls-6" data-name="Rectangle 180" transform="rotate(-67.515 2310.221 1441.732)"/>
        <path id="Rectangle_181" d="M0 0h.449v.449H0z" class="cls-6" data-name="Rectangle 181" transform="rotate(-63.011 2515.92 1434.733)"/>
        <path id="Rectangle_182" d="M0 0h.371v.371H0z" class="cls-6" data-name="Rectangle 182" transform="rotate(-72.007 2130.869 1448.38)"/>
        <path id="Rectangle_183" d="M0 0h.337v.337H0z" class="cls-6" data-name="Rectangle 183" transform="rotate(-49.5 3335.493 1406.956)"/>
        <path id="Rectangle_184" d="M0 0h.597v.597H0z" class="cls-6" data-name="Rectangle 184" transform="rotate(-85.515 1690.806 1454.678)"/>
        <path id="Rectangle_185" d="M0 0h.722v.723H0z" class="cls-6" data-name="Rectangle 185" transform="rotate(-76.5 1975.581 1442.521)"/>
        <path id="Rectangle_186" d="M0 0h.543v.543H0z" class="cls-6" data-name="Rectangle 186" transform="rotate(-80.973 1827.529 1450.701)"/>
        <path id="Rectangle_187" d="M0 0h.795v.795H0z" class="cls-6" data-name="Rectangle 187" transform="rotate(-80.97 1827.188 1446.111)"/>
        <path id="Rectangle_188" d="M0 0h.493v.494H0z" class="cls-6" data-name="Rectangle 188" transform="rotate(-85.53 1690.409 1456.196)"/>
        <path id="Rectangle_189" d="M0 0h.449v.449H0z" class="cls-6" data-name="Rectangle 189" transform="translate(91.909 3027.57)"/>
        <path id="Rectangle_190" d="M0 0h.543v.543H0z" class="cls-6" data-name="Rectangle 190" transform="translate(106.908 3026.093)"/>
        <path id="Rectangle_191" d="M0 0h.657v.657H0z" class="cls-6" data-name="Rectangle 191" transform="rotate(-80.994 1827.014 1448.909)"/>
        <path id="Rectangle_192" d="M0 0h.657v.657H0z" class="cls-6" data-name="Rectangle 192" transform="rotate(-72.009 2139.326 1437.77)"/>
        <path id="Rectangle_193" d="M0 0h.795v.795H0z" class="cls-6" data-name="Rectangle 193" transform="rotate(-71.994 2140.28 1435.344)"/>
        <path id="Rectangle_194" d="M0 0h.874v.874H0z" class="cls-6" data-name="Rectangle 194" transform="rotate(-76.507 1975.64 1440.005)"/>
        <path id="Rectangle_195" d="M0 0h.597v.597H0z" class="cls-6" data-name="Rectangle 195" transform="rotate(-4.44 38772.083 120.17)"/>
        <path id="Rectangle_196" d="M0 0h.597v.597H0z" class="cls-6" data-name="Rectangle 196" transform="rotate(-76.52 1975.565 1445.303)"/>
        <path id="Rectangle_197" d="M0 0h.722v.723H0z" class="cls-6" data-name="Rectangle 197" transform="rotate(-85.516 1690.853 1452.764)"/>
        <path id="Rectangle_198" d="M0 0h.657v.657H0z" class="cls-6" data-name="Rectangle 198" transform="translate(108.581 3024.306)"/>
        <path id="Rectangle_199" d="M0 0h.449v.449H0z" class="cls-6" data-name="Rectangle 199" transform="rotate(-80.998 1818.656 1459.038)"/>
        <path id="Rectangle_200" d="M0 0h.449v.448H0z" class="cls-6" data-name="Rectangle 200" transform="rotate(-47.16 3515.532 1400.257)"/>
        <path id="Rectangle_201" d="M0 0h.306v.306H0z" class="cls-6" data-name="Rectangle 201" transform="rotate(-44.997 3704.784 1394.833)"/>
        <path id="Rectangle_202" d="M0 0h.493v.494H0z" class="cls-6" data-name="Rectangle 202" transform="rotate(-76.52 1965.857 1454.518)"/>
        <path id="Rectangle_203" d="M0 0h.543v.543H0z" class="cls-6" data-name="Rectangle 203" transform="rotate(-72.025 2127.063 1448.012)"/>
        <path id="Rectangle_204" d="M0 0h.408v.408H0z" class="cls-6" data-name="Rectangle 204" transform="rotate(-85.47 1685.297 1463.51)"/>
        <path id="Rectangle_205" d="M0 0h.371v.371H0z" class="cls-6" data-name="Rectangle 205" transform="rotate(-44.958 3706.614 1394.083)"/>
        <path id="Rectangle_206" d="M0 0h.543v.543H0z" class="cls-6" data-name="Rectangle 206" transform="rotate(-18.01 9598.507 1185.886)"/>
        <path id="Rectangle_207" d="M0 0h.449v.449H0z" class="cls-6" data-name="Rectangle 207" transform="rotate(-9.002 19276.347 850.553)"/>
        <path id="Rectangle_208" d="M0 0h.493v.494H0z" class="cls-6" data-name="Rectangle 208" transform="rotate(-4.44 38303.376 118.432)"/>
        <path id="Rectangle_209" d="M0 0h.449v.449H0z" class="cls-6" data-name="Rectangle 209" transform="translate(105.525 3027.57)"/>
        <path id="Rectangle_210" d="M0 0h.543v.543H0z" class="cls-6" data-name="Rectangle 210" transform="rotate(-9.03 19200.554 844.198)"/>
        <path id="Rectangle_211" d="M0 0h.494v.493H0z" class="cls-6" data-name="Rectangle 211" transform="rotate(-13.517 12816.56 1073.156)"/>
        <path id="Rectangle_212" d="M0 0h.408v.408H0z" class="cls-6" data-name="Rectangle 212" transform="rotate(-4.524 38378.391 192.268)"/>
        <path id="Rectangle_213" d="M0 0h.408v.408H0z" class="cls-6" data-name="Rectangle 213" transform="rotate(-67.483 2313.223 1441.957)"/>
        <path id="Rectangle_214" d="M0 0h.494v.493H0z" class="cls-6" data-name="Rectangle 214" transform="rotate(-4.44 38801.352 330.526)"/>
        <path id="Rectangle_215" d="M0 0h.597v.597H0z" class="cls-6" data-name="Rectangle 215" transform="rotate(-85.515 1681.004 1463.737)"/>
        <path id="Rectangle_216" d="M0 0h.597v.597H0z" class="cls-6" data-name="Rectangle 216" transform="rotate(-4.44 38781.391 352.156)"/>
        <path id="Rectangle_217" d="M0 0h.543v.543H0z" class="cls-6" data-name="Rectangle 217" transform="translate(90.433 3026.093)"/>
        <path id="Rectangle_218" d="M0 0h.723v.722H0z" class="cls-6" data-name="Rectangle 218" transform="rotate(-13.509 12818.307 1153.075)"/>
        <path id="Rectangle_219" d="M0 0h.657v.657H0z" class="cls-6" data-name="Rectangle 219" transform="translate(88.645 3024.306)"/>
        <path id="Rectangle_220" d="M0 0h.543v.543H0z" class="cls-6" data-name="Rectangle 220" transform="rotate(-8.986 19308.895 946.143)"/>
        <path id="Rectangle_221" d="M0 0h.783v.783H0z" class="cls-6" data-name="Rectangle 221" transform="rotate(-48.454 3399.072 1401.711)"/>
        <path id="Rectangle_222" d="M0 0h.783v.783H0z" class="cls-6" data-name="Rectangle 222" transform="rotate(-41.52 4028.217 1373.892)"/>
        <path id="Rectangle_223" d="M0 0h.371v.371H0z" class="cls-6" data-name="Rectangle 223" transform="rotate(-8.946 19405.559 853.068)"/>
        <path id="Rectangle_224" d="M0 0h.671v.671H0z" class="cls-6" data-name="Rectangle 224" transform="rotate(-46.896 3530.178 1396)"/>
        <path id="Rectangle_225" d="M0 0h.913v.913H0z" class="cls-6" data-name="Rectangle 225" transform="rotate(-60.461 2631.248 1427.817)"/>
        <path id="Rectangle_226" d="M0 0h.795v.795H0z" class="cls-6" data-name="Rectangle 226" transform="rotate(-8.88 19313.67 942.795)"/>
        <path id="Rectangle_227" d="M0 0h.846v.846H0z" class="cls-6" data-name="Rectangle 227" transform="rotate(-63.459 2484.142 1434.434)"/>
        <path id="Rectangle_228" d="M0 0h.408v.408H0z" class="cls-6" data-name="Rectangle 228" transform="rotate(-13.47 12864.375 1075.603)"/>
        <path id="Path_377" d="M97.354 3028.835l.056.034h.25l.078-.126-.238-.146z" class="cls-6" data-name="Path 377"/>
        <path id="Rectangle_229" d="M0 0h.962v.962H0z" class="cls-6" data-name="Rectangle 229" transform="rotate(-17.991 9594.14 1259.95)"/>
        <path id="Path_378" d="M95.763 3028.841l.086.028h.227l.073-.225-.292-.095z" class="cls-6" data-name="Path 378"/>
        <path id="Path_379" d="M100.146 3028.743l.078.126h.249l.057-.034-.146-.238z" class="cls-6" data-name="Path 379"/>
        <path id="Path_380" d="M101.734 3028.645l.073.225h.225l.088-.028-.095-.292z" class="cls-6" data-name="Path 380"/>
        <path id="Rectangle_230" d="M0 0h.962v.962H0z" class="cls-6" data-name="Rectangle 230" transform="rotate(-72.009 2140.169 1432.455)"/>
        <path id="Rectangle_231" d="M0 0h.874v.874H0z" class="cls-6" data-name="Rectangle 231" transform="rotate(-67.48 2324.04 1426.654)"/>
        <path id="Rectangle_232" d="M0 0h.723v.722H0z" class="cls-6" data-name="Rectangle 232" transform="rotate(-4.44 38757.244 378.33)"/>
        <path id="Rectangle_233" d="M0 0h.874v.874H0z" class="cls-6" data-name="Rectangle 233" transform="rotate(-22.48 7644.843 1305.41)"/>
        <path id="Rectangle_234" d="M0 0h.657v.657H0z" class="cls-6" data-name="Rectangle 234" transform="rotate(-9.002 19264.053 959.402)"/>
        <path id="Rectangle_235" d="M0 0h.657v.657H0z" class="cls-6" data-name="Rectangle 235" transform="rotate(-17.992 9606.296 1242.483)"/>
        <path id="Rectangle_236" d="M0 0h.597v.597H0z" class="cls-6" data-name="Rectangle 236" transform="rotate(-13.526 12809.407 1144.265)"/>
        <path id="Rectangle_237" d="M0 0h.874v.874H0z" class="cls-6" data-name="Rectangle 237" transform="rotate(-13.493 12824.733 1163.887)"/>
        <path id="Rectangle_238" d="M0 0h.795v.795H0z" class="cls-6" data-name="Rectangle 238" transform="rotate(-18.006 9592.997 1250.603)"/>
        <path id="Rectangle_239" d="M0 0h.846v.846H0z" class="cls-6" data-name="Rectangle 239" transform="rotate(-26.54 6443.571 1282.23)"/>
        <path id="Rectangle_240" d="M0 0h.622v.621H0z" class="cls-6" data-name="Rectangle 240" transform="rotate(-41.519 4036.148 1376.768)"/>
        <path id="Rectangle_241" d="M0 0h.725v.725H0z" class="cls-6" data-name="Rectangle 241" transform="rotate(-38.537 4368.154 1362.518)"/>
        <path id="Rectangle_242" d="M0 0h.671v.671H0z" class="cls-6" data-name="Rectangle 242" transform="rotate(-44.52 3739.812 1386.939)"/>
        <path id="Rectangle_243" d="M0 0h.449v.449H0z" class="cls-6" data-name="Rectangle 243" transform="rotate(-35.997 4705.544 1358.417)"/>
        <path id="Rectangle_244" d="M0 0h.845v.846H0z" class="cls-6" data-name="Rectangle 244" transform="rotate(-35.51 4757.377 1345.63)"/>
        <path id="Rectangle_245" d="M0 0h.408v.408H0z" class="cls-6" data-name="Rectangle 245" transform="rotate(-31.51 5409.554 1333.799)"/>
        <path id="Rectangle_246" d="M0 0h.575v.576H0z" class="cls-6" data-name="Rectangle 246" transform="rotate(-41.931 3994.64 1380.46)"/>
        <path id="Rectangle_247" d="M0 0h.783v.783H0z" class="cls-6" data-name="Rectangle 247" transform="rotate(-32.54 5219.405 1329.544)"/>
        <path id="Rectangle_248" d="M0 0h.408v.408H0z" class="cls-6" data-name="Rectangle 248" transform="rotate(-40.5 4146.317 1378.116)"/>
        <path id="Rectangle_249" d="M0 0h.337v.337H0z" class="cls-6" data-name="Rectangle 249" transform="rotate(-40.5 4148.338 1378.968)"/>
        <path id="Rectangle_250" d="M0 0h.278v.278H0z" class="cls-6" data-name="Rectangle 250" transform="rotate(-40.5 4157.314 1380.66)"/>
        <path id="Rectangle_251" d="M0 0h.913v.913H0z" class="cls-6" data-name="Rectangle 251" transform="rotate(-29.539 5766.308 1307.08)"/>
        <path id="Rectangle_252" d="M0 0h.493v.494H0z" class="cls-6" data-name="Rectangle 252" transform="rotate(-31.46 5418.36 1332.23)"/>
        <path id="Rectangle_253" d="M0 0h.279v.279H0z" class="cls-6" data-name="Rectangle 253" transform="rotate(-49.5 3336.919 1407.428)"/>
        <path id="Rectangle_254" d="M0 0h.493v.494H0z" class="cls-6" data-name="Rectangle 254" transform="rotate(-22.48 7667.979 1256.792)"/>
        <path id="Rectangle_255" d="M0 0h.408v.408H0z" class="cls-6" data-name="Rectangle 255" transform="rotate(-22.519 7651.809 1256.967)"/>
        <path id="Rectangle_256" d="M0 0h.449v.449H0z" class="cls-6" data-name="Rectangle 256" transform="rotate(-27 6351.388 1301.071)"/>
        <path id="Rectangle_257" d="M0 0h.725v.725H0z" class="cls-6" data-name="Rectangle 257" transform="rotate(-47.55 3474.661 1394.787)"/>
        <path id="Rectangle_258" d="M0 0h.337v.337H0z" class="cls-6" data-name="Rectangle 258" transform="rotate(-22.535 7649.574 1259.208)"/>
        <path id="Rectangle_259" d="M0 0h.449v.449H0z" class="cls-6" data-name="Rectangle 259" transform="rotate(-18.024 9590.908 1188.127)"/>
        <path id="Path_381" d="M102.788 3027.631l-.115-.352-.352.115.115.353z" class="cls-6" data-name="Path 381"/>
        <path id="Rectangle_260" d="M0 0h.337v.337H0z" class="cls-6" data-name="Rectangle 260" transform="rotate(-13.471 12872.087 1080.129)"/>
        <path id="Rectangle_261" d="M0 0h.371v.371H0z" class="cls-6" data-name="Rectangle 261" transform="rotate(-27 6354.66 1302.815)"/>
        <path id="Rectangle_262" d="M0 0h.306v.306H0z" class="cls-6" data-name="Rectangle 262" transform="rotate(-36 4708.118 1359.685)"/>
        <path id="Rectangle_263" d="M0 0h.306v.306H0z" class="cls-6" data-name="Rectangle 263" transform="rotate(-26.96 6366.946 1303.953)"/>
        <path id="Rectangle_264" d="M0 0h.621v.622H0z" class="cls-6" data-name="Rectangle 264" transform="rotate(-50.533 3250.352 1405.18)"/>
        <path id="Rectangle_265" d="M0 0h.493v.493H0z" class="cls-6" data-name="Rectangle 265" transform="rotate(-42.6 3926.827 1384.543)"/>
        <path id="Rectangle_266" d="M0 0h.337v.337H0z" class="cls-6" data-name="Rectangle 266" transform="rotate(-31.54 5411.29 1336.403)"/>
        <path id="Rectangle_267" d="M0 0h.371v.371H0z" class="cls-6" data-name="Rectangle 267" transform="rotate(-35.961 4712.978 1359.4)"/>
    </g>
</svg>
