<svg xmlns="http://www.w3.org/2000/svg" width="113.988" height="105.14" viewBox="0 0 113.988 105.14">
    <defs>
        <style>
            .cls-1{fill:#1e365c}
        </style>
    </defs>
    <g id="Group_108" data-name="Group 108" transform="translate(-487.07 -3984.673)">
        <g id="Group_107" data-name="Group 107">
            <path id="Path_408" d="M487.07 4036.365v-6.234c.065-.322.145-.641.193-.966.31-2.087.5-4.2.936-6.259 5.426-25.38 30.418-42.31 55.911-37.379 19.71 3.812 32.431 15.812 38.292 35.016a1.349 1.349 0 0 0 1.6 1.155c4.675-.04 9.35.02 14.024-.043a3.052 3.052 0 0 1 3.036 1.575v1.335c-.469.562-.9 1.159-1.414 1.679q-2.8 2.849-5.648 5.645a16.258 16.258 0 0 1-1.539 1.187c1.989 1.981 3.707 3.656 5.383 5.372 1.1 1.13 2.147 2.32 3.218 3.483v1.336a3.059 3.059 0 0 1-3.036 1.574c-4.746-.062-9.494-.01-14.241-.039-.734 0-1.079.143-1.3.939a48.386 48.386 0 0 1-20.751 28.434c-.235.154-.448.34-.688.525 2.159 3.814 4.282 7.55 6.39 11.294 1.2 2.136.253 3.8-2.167 3.8-3.486.007-6.973-.026-10.459.017a2.751 2.751 0 0 1-2.7-1.565c-1.3-2.371-2.686-4.7-3.969-7.075a1.109 1.109 0 0 0-1.469-.688 47.532 47.532 0 0 1-22.142 0 1.11 1.11 0 0 0-1.469.687c-1.3 2.412-2.7 4.773-4.03 7.169a2.615 2.615 0 0 1-2.525 1.467c-3.56-.031-7.121 0-10.682-.015-2.27-.008-3.228-1.69-2.1-3.7 1.9-3.393 3.829-6.774 5.742-10.161.232-.411.448-.833.653-1.215a1.215 1.215 0 0 0-.173-.247c-.211-.151-.431-.289-.646-.433-11.532-7.715-18.779-18.3-21.4-31.975-.363-1.879-.558-3.794-.83-5.695zm90.993-14.652c-4.358-17.652-22.471-34.695-46.936-32.31a44.056 44.056 0 1 0 46.923 55.38c-1.635.344-2.663-.574-3.665-1.641-1.218-1.3-2.507-2.529-3.769-3.786-.325-.325-.661-.639-1.069-1.031-.066.3-.095.407-.113.515a34.289 34.289 0 1 1-26.928-39.169 32.945 32.945 0 0 1 9.562 3.506 2.14 2.14 0 0 1 1.193 2.307 1.916 1.916 0 0 1-1.7 1.805 3.734 3.734 0 0 1-1.992-.428 29.871 29.871 0 1 0 14.665 34.574c.535-1.9.8-3.873 1.2-5.882h-9.884a20.063 20.063 0 0 1-39.971-1.446c-.316-10.758 7.058-19.41 17.943-20.76a20.06 20.06 0 0 1 22.068 17.613h9.695c-.04-.578-.046-1.095-.116-1.6a30.828 30.828 0 0 0-3.1-9.923 4.116 4.116 0 0 1-.561-1.872 1.973 1.973 0 0 1 1.69-1.94 2.025 2.025 0 0 1 2.481 1.207c1.089 2.587 2.124 5.2 3.083 7.837a29.585 29.585 0 0 1 .815 3.526c1.641-1.643 3.178-3.143 4.668-4.689 1.047-1.094 2.064-2.187 3.818-1.793zm-27.121 9.273a15.437 15.437 0 0 0-16.358-13.3 15.591 15.591 0 0 0 1.758 31.132c7.288-.252 14.69-7.006 14.537-13.3h-7.757c.128 2.325-1.349 3.687-3.1 2.795a65.19 65.19 0 0 1-5.673-3.282 2.09 2.09 0 0 1-.019-3.562 68.065 68.065 0 0 1 5.777-3.32 2.154 2.154 0 0 1 3.059 1.983c.011.277 0 .555 0 .85zm42.5-4.854c-4.224 0-8.124.162-12-.058-2.553-.145-4.5.484-6.026 2.545a25.481 25.481 0 0 1-2.343 2.4c5.208 0 10.1 0 14.994-.009a1.094 1.094 0 0 0 .706-.217c1.498-1.467 2.973-2.962 4.667-4.661zm.008 14.232c-1.714-1.713-3.206-3.232-4.743-4.705-.194-.186-.621-.177-.941-.177q-6.841-.016-13.684 0c-.259 0-.518.054-1.011.108 1.526 1.494 2.846 2.85 4.245 4.118a2.53 2.53 0 0 0 1.527.632c4.153.051 8.307.028 12.461.028zm-79.372 36.467l-4.811 8.512c2.082 0 3.965.019 5.846-.022a1.08 1.08 0 0 0 .756-.482c1.12-1.912 2.2-3.849 3.32-5.832zm47.877 8.512l-4.825-8.512-5.1 2.184c1.125 1.988 2.2 3.925 3.326 5.837a1.08 1.08 0 0 0 .761.47c1.874.04 3.753.021 5.836.021z" class="cls-1" data-name="Path 408"/>
            <path id="Path_409" d="M558.287 4012.8a2.2 2.2 0 0 1-2.215-2.276 2.229 2.229 0 0 1 2.219-2.175 2.316 2.316 0 0 1 2.234 2.308 2.194 2.194 0 0 1-2.238 2.143z" class="cls-1" data-name="Path 409"/>
        </g>
    </g>
</svg>
